<svg xmlns="http://www.w3.org/2000/svg" viewBox="0 0 512 512"><path d="M302.121 33.127c-13.494 2.242-27.474 12.738-33.675 25.285C252.544 90.587 274.807 127 310.379 127c42.773 0 63.714-50.617 33.436-80.819-10.817-10.789-26.245-15.62-41.694-13.054M243.5 137.039c-2.2.451-5.8 1.473-8 2.271-6.98 2.532-76.816 33.744-81.256 36.316-6.006 3.479-10.218 11.033-10.246 18.374-.028 7.236 10.558 54.314 13.356 59.401 5.591 10.161 21.363 10.264 27.596.181 2.638-4.269 2.63-9.352-.044-30.352-1.151-9.043-1.714-16.775-1.25-17.182.856-.75 43.38-7.345 43.915-6.811.16.16-4.002 14.46-9.248 31.777-12.43 41.029-12.991 48.134-4.997 63.358 4.706 8.963 147.838 165.064 154.848 168.878 14.926 8.121 31.844-2.342 31.82-19.678-.012-8.847-.991-10.307-55.213-82.363-29.172-38.767-53.227-71.211-53.456-72.097-.228-.887 4.298-22.087 10.059-47.112 12.13-52.697 12.316-53.865 10.198-64-6.065-29.022-36.626-47.409-68.082-40.961m137.35 25.338c-2.558.695-11.579 5.394-20.048 10.443-8.469 5.049-15.731 9.18-16.138 9.18-.408 0-4.841-2.757-9.852-6.126-7.877-5.297-9.015-5.805-8.397-3.75 2.126 7.068 1.782 20.385-.816 31.554-3.381 14.541-3.557 13.687 3.561 17.244 13.191 6.592 18.44 4.844 44.559-14.835 24.601-18.536 26.781-20.905 26.781-29.106 0-11.284-8.532-17.625-19.65-14.604M106.168 298.089c-11.417 5.801-13.521 21.816-4.015 30.574 4.653 4.288 87.352 55.685 91.706 56.995 16.917 5.091 28.165-1.748 39.244-23.863l6.974-13.922-14.789-16.085c-20.083-21.846-24.056-26.44-25.824-29.859-.834-1.611-1.711-2.929-1.951-2.929-.239 0-2.493 6.39-5.008 14.2-2.515 7.811-4.718 14.346-4.895 14.524-.178.177-15.125-6.73-33.217-15.35-36.954-17.607-39.943-18.492-48.225-14.285" fill-rule="evenodd"/></svg>