<svg xmlns="http://www.w3.org/2000/svg" width="65" height="63"><path d="M27.558 9.248c-6.243 1.649-13.049 9.118-14.592 16.012-1.467 6.557-.303 11.666 1.263 5.542 2.028-7.933 11.36-12.134 18.617-8.382C34.887 23.476 38.571 24 43.95 24c7.189 0 8.05.199 8.05 1.865 0 3.64-3.854 6.925-10.761 9.171-3.707 1.206-7.709 2.799-8.896 3.54-2.009 1.256-2.374 1.026-5.349-3.364-1.756-2.592-2.977-4.027-2.713-3.19.265.837 1.259 5.112 2.209 9.5 2.357 10.876 4.736 12.324 14.688 8.933 26.744-9.113 13.746-48.436-13.62-41.207M63 26c0 .55.45 1 1 1s1-.45 1-1-.45-1-1-1-1 .45-1 1m-31.808 1.075c.197.591.786 1.075 1.308 1.075.523 0 1.111-.484 1.308-1.075.197-.591-.391-1.075-1.308-1.075s-1.505.484-1.308 1.075" fill-rule="evenodd"/></svg>