<svg xmlns="http://www.w3.org/2000/svg" width="500" height="500"><path fill="#c46d9b" d="M191.393 1.582c.334.87.607 1.796.607 2.059 0 .262.373.247.828-.035.456-.281 1.659 2.955 2.675 7.191 1.463 6.105 1.977 7.184 2.476 5.203.469-1.862 1.126-.075 2.575 7 1.719 8.391 2.018 9.091 2.564 6 .442-2.501.692-2.858.875-1.25.142 1.238.344 2.587.45 3 .106.413 1.26 5.337 2.563 10.943 1.304 5.606 2.715 9.98 3.136 9.72.88-.545 2.593 5.329 3.926 13.467 1.324 8.083 1.363 7.983-3.606 9.234-7.295 1.837-4.561 1.984 4.602.248 27.358-5.184 59.785 4.374 77.779 22.926l4.344 4.478 14.656-.514c27.845-.976 49.317 7.015 67.777 25.225 20.693 20.412 29.912 48.027 26.213 78.523-.367 3.025-.431 4.632-.142 3.571.741-2.723 3.309-5.259 3.309-3.267 0 .874.984 1.446 2.49 1.446 1.369 0 4.614 1.382 7.212 3.072 3.226 2.098 5.093 2.763 5.894 2.098.821-.681 2.911.725 6.976 4.693 4.458 4.352 5.934 5.301 6.366 4.091.387-1.086 2.252 1.05 5.998 6.869 3.668 5.699 5.695 8.035 6.234 7.186.514-.81.805-.298.815 1.432.016 2.928 1.536 4.586 2.351 2.565.278-.691.542-.045.585 1.435.076 2.601 2.079 5.192 2.079 2.69 0-.681 1.305.513 2.9 2.652 1.636 2.194 4.361 4.381 6.25 5.016 2.638.887 3.692 2.049 4.957 5.467 1.06 2.861 1.829 3.854 2.256 2.912.357-.785.422-.226.144 1.243-.661 3.495.52 7.102 1.454 4.439.382-1.087 1.539 1.748 3.075 7.537 2.439 9.185 2.56 9.386 11.803 19.671 6.508 7.239 9.195 10.946 8.861 12.222-.265 1.013.141 2.069.911 2.364 1.17.449 1.42 15.69 1.588 96.815.109 52.954.373 92.906.586 88.781.213-4.125.068-116.512-.322-249.75L499.753 0H345.269C204.812 0 190.841.144 191.393 1.582m29.672 96.487c-2.989.532-5.689 1.236-6 1.564-.311.327 1.292.289 3.561-.086l4.127-.681.748 5.817c.537 4.172.955 5.251 1.476 3.817 1.227-3.374 2.136 1.245 2.517 12.785.185 5.618.375 11.029.421 12.024.047.995.535 1.531 1.085 1.191.55-.34 1-.172 1 .374 0 .545-.787 1.254-1.75 1.575-.963.321-2.875 1.516-4.25 2.654-3.474 2.877-3.445 2.861 24.366-13.125l24.866-14.294-2.366-1.855c-11.781-9.237-34.217-14.535-49.801-11.76m-9.252 2.614c.721.289 1.584.253 1.916-.079.332-.332-.258-.568-1.312-.525-1.165.048-1.402.285-.604.604m88.549 26.233c-3.926 1.065-9.551 3.159-12.5 4.654-7.414 3.756-67.13 38.447-68.362 39.714-.55.565 1.206-.174 3.902-1.643 5.733-3.123 5.871-3.08 4.581 1.419-1.453 5.064-1.175 6.874.604 3.94l1.516-2.5-.501 3.5c-1.762 12.309-1.798 13-.684 13 .63 0 1.404-.675 1.72-1.5.317-.825.964-1.5 1.438-1.5.473 0 .602.675.286 1.5-.4 1.041.069 1.5 1.531 1.5 2.42 0 2.428.025 1.152 3.382-.622 1.635-3.764 4.133-9 7.153-4.425 2.552-8.045 4.852-8.045 5.112 0 .259.338.278.75.041l40.97-23.559C292.274 162.408 300.642 158 303.627 158c2.977 0 10.921 4.155 41.152 21.521l37.464 21.522-.489-12.272c-1.164-29.218-17.03-51.067-43.919-60.48-10.171-3.56-27.126-4.182-37.473-1.375m-81.921 15.639c-1.864 1.494-1.852 1.512.309.465 1.238-.6 2.25-1.3 2.25-1.555 0-.765-.519-.544-2.559 1.09m11.638 28.028c.048 1.165.285 1.402.604.605.289-.722.253-1.585-.079-1.917-.332-.332-.568.258-.525 1.312m-14.829 2.637c-2.202 1.062-2.25 1.449-2.25 17.968 0 16.572.037 16.863 2 15.812 2.336-1.25 2.685-2.2.5-1.362-1.294.497-1.5-1.555-1.5-14.909 0-14.927.081-15.542 2.25-17.055 2.61-1.82 2.21-2.002-1-.454m68.25 14.371a6233.945 6233.945 0 0 1-14.354 8.332c-1.124.642 12.611 9.161 35.104 21.774.413.232.75.212.75-.043 0-.256-2.884-2.152-6.409-4.214-8.054-4.712-7.718-6.042 1.417-5.608 5.312.252 7 .012 7.024-1 .022-.919.438-.797 1.343.395 1.214 1.598 1.41 1.543 2.637-.75 1.446-2.7 3.529-3.043 8.99-1.476 2.935.841 3.728.71 4.993-.829 2.587-3.144 7.422-2.598 14.798 1.673 8.292 4.8 12.017 6.695 10.707 5.447-.953-.908-53.183-31.309-53.735-31.277-.146.009-6.115 3.418-13.265 7.576M194 205.98v23.979l-4.095 2.089-4.094 2.089.713-3.246.713-3.247-4.012 3.178c-4.732 3.748-4.988 3.801-5.405 1.135-.301-1.921-.528-1.864-3.82.959-4.37 3.749-5.22 3.814-4.353.334.613-2.462.513-2.609-.954-1.4-1.503 1.238-1.665.12-1.955-13.5-.2-9.377-.302-7.132-.277 6.088l.039 20.939 14.25 8.22 14.25 8.219v-39.908c0-21.949-.225-39.908-.5-39.908s-.5 10.791-.5 23.98m-53.022 13-.478 13.48-2.903.222c-1.597.122-3.51.454-4.25.738-.851.327-1.347-.215-1.347-1.47 0-2.071-1.787-2.026-7.815.196-3.059 1.128-3.185 1.103-3.185-.646 0-1.932-.534-1.897-7.5.5-6.976 2.4-7.5 2.434-7.5.481 0-1.115-.655-1.355-2.463-.901l-2.462.618-.389-9.349c-.244-5.88-.297-5.082-.142 2.151.432 20.277 8.668 37.24 23.676 48.765 5.23 4.017 75.778 45.16 78.783 45.946.859.225 7.959-3.283 15.779-7.795 13.218-7.627 14.059-8.287 11.967-9.387-11.706-6.156-83.834-48.379-85.749-50.197-2.486-2.359-2.503-2.497-3.022-24.602-.504-21.458-.539-21.762-1-8.75m90.253-1.219-18.268 10.666.268 22.036.269 22.037 18.399 10.576 18.4 10.577 9.925-5.735c10.748-6.209 14.896-9.274 5.541-4.094-6.632 3.673-6.765 3.704-6.765 1.569 0-1.005-.552-1.395-1.474-1.042-.81.311-1.823-.025-2.25-.747-1.429-2.416-5.11-3.763-7.21-2.639-2.799 1.498-3.851 1.286-4.55-.914-.34-1.072-1.192-1.729-1.894-1.46-.797.306-1.771-1.012-2.598-3.517-.727-2.204-1.658-3.8-2.068-3.547-.921.569-1.956-1.97-1.956-4.796 0-1.969-.193-1.92-3 .769-1.65 1.581-3 2.354-3 1.718 0-.635-.636-.911-1.413-.613-1.7.653-3.139-10.017-2.324-17.243l.509-4.516-1.842 3.029c-1.013 1.665-3.211 3.736-4.886 4.602-3.67 1.898-3.741 1.51-1.544-8.477 1.868-8.494 1.899-8.308-1.052-6.374l-2.551 1.672.301-6.338.302-6.338 12.896-7.471c11.576-6.706 13.021-7.301 14.111-5.811 1.689 2.31 2.206 2.115 4.096-1.539l1.654-3.198 2.242 4.395c1.948 3.819 2.327 4.124 2.897 2.33 1.229-3.872 4.56-6.108 6.055-4.065.698.955 1.895 1.742 2.659 1.749.765.007 3.415 1.166 5.89 2.577 2.475 1.411 6.863 3.913 9.75 5.561 2.887 1.648 5.25 2.783 5.25 2.521 0-.532-28.849-17.325-31.075-18.088-.784-.269-9.646 4.311-19.694 10.178m172.848-5.178c.048 1.165.285 1.402.604.605.289-.722.253-1.585-.079-1.917-.332-.332-.568.258-.525 1.312M352 212.43c0 .275.9.981 2 1.57 1.1.589 2 .845 2 .57s-.9-.981-2-1.57c-1.1-.589-2-.845-2-.57M74.259 225c.045 7.387-.182 8.546-1.734 8.848-.982.192-2.17-.258-2.64-1-.661-1.044-.858-.953-.87.402-.008.963-.465 1.75-1.015 1.75-.55 0-1-.675-1-1.5 0-1.972-.389-1.929-9 1-8.681 2.953-8 2.868-8 1 0-1.973-.387-1.929-9.029 1.01-6.241 2.123-7.505 2.288-8.186 1.07-.676-1.207-2.399-.904-10.628 1.867-8.576 2.888-9.944 3.114-10.786 1.779-.859-1.362-1.448-1.367-5.418-.044L1.5 242.667l-.254 128.666L.992 500h246.773l.721-7.75c2.178-23.419 7.506-56.448 9.818-60.86 1.35-2.577 1.838-2.743 7.818-2.664 5.652.076 5.353-.02-2.622-.845-23.169-2.396-42.365-10.968-56.533-25.247l-4.534-4.569-6.966 1.094c-42.478 6.673-86.141-22.467-98.709-65.878-2.936-10.14-3.237-35.199-.538-44.708l1.683-5.928-4.566-6.072C83.119 262.981 76.642 245.383 75.093 227l-.885-10.5.051 8.5M306 218.43c0 .275.9.981 2 1.57 1.1.589 2 .845 2 .57s-.9-.981-2-1.57c-1.1-.589-2-.845-2-.57m7 4c0 .275.9.981 2 1.57 1.1.589 2 .845 2 .57s-.9-.981-2-1.57c-1.1-.589-2-.845-2-.57m-27.162 5.875c.73.879 1.223 8.832 1.413 22.773l.291 21.422.229-22.143c.204-19.74.051-22.211-1.412-22.773-1.29-.495-1.402-.34-.521.721M305 239.393c0 .216.698.661 1.552.989.89.341 1.291.173.941-.393-.587-.951-2.493-1.406-2.493-.596m.45 67.107c.001 19.25.135 26.983.299 17.185.164-9.797.163-25.547-.001-35-.164-9.452-.298-1.435-.298 17.815m-32.009-26.945c-1.864 1.494-1.852 1.512.309.465 1.238-.6 2.25-1.3 2.25-1.555 0-.765-.519-.544-2.559 1.09m13.514 13.195c-.025.413-.006 7.799.042 16.415.088 15.664-.591 18.866-3.314 15.627-.65-.774-2.867-2.506-4.926-3.85-2.059-1.343-3.746-3.004-3.75-3.692-.004-.687-.457-1.25-1.007-1.25-.55 0-1-2.052-1-4.559 0-2.785-.389-4.319-1-3.941-.565.349-1-.476-1-1.899 0-1.925 1.057-3.136 4.5-5.154 2.475-1.45 4.5-2.852 4.5-3.115 0-.542.696-.935-46 25.939-30.48 17.541-34.908 19.802-38 19.403-2.16-.279-17.469-8.518-39.999-21.527-40.398-23.326-37.8-22.505-37.931-11.985-.491 39.556 35.501 71.517 74.169 65.863 12.643-1.848 16.735-3.793 57.511-27.334L288 325.608v-16.804c0-9.242-.225-16.804-.5-16.804s-.52.337-.545.75m-4.514 2.805c-1.864 1.494-1.852 1.512.309.465 1.238-.6 2.25-1.3 2.25-1.555 0-.765-.519-.544-2.559 1.09m15 53c-1.864 1.494-1.852 1.512.309.465 1.238-.6 2.25-1.3 2.25-1.555 0-.765-.519-.544-2.559 1.09m-35.86 20.472c-37.752 21.764-34.48 19.565-32.008 21.509 9.304 7.319 26.302 12.556 39.837 12.275 6.722-.14 7.592-.283 3.34-.55-6.63-.416-6.464-.169-3.388-5.042 1.787-2.831 2.541-5.893 3.098-12.582.607-7.28 1.337-9.974 4.138-15.254 1.871-3.526 3.408-7.193 3.414-8.147.008-1.101 2.752-3.323 7.5-6.073 6.282-3.639 8.579-5.27 7.238-5.139-.137.014-15.064 8.565-33.169 19.003m19.169 32.635c.688.278 1.813.278 2.5 0 .688-.277.125-.504-1.25-.504s-1.937.227-1.25.504" fill-rule="evenodd"/></svg>