<svg xmlns="http://www.w3.org/2000/svg" width="512" height="512"><path fill="#603424" d="M66.923 67.319c-6.584 3.476-10.244 9.272-10.703 16.952-.364 6.082.783 9.428 48.703 142.051C131.916 301.024 154 362.29 154 362.467c0 .178-7.088.499-15.75.714-12.094.3-16.446.768-18.75 2.019-13.169 7.151-16.066 23.047-6.13 33.635 6.353 6.771 5.478 6.633 44.38 6.973l35.25.309v2.376c0 5.822 5.86 13.63 12.491 16.642 6.146 2.792 95.872 2.792 102.018 0 6.631-3.012 12.491-10.82 12.491-16.642v-2.376l35.25-.309c30.634-.268 35.643-.526 38.25-1.973 13.564-7.526 16.162-24.305 5.335-34.465-6.228-5.845-6.222-5.844-34.585-6.194-14.437-.178-26.262-.628-26.276-1-.014-.372 4.136-12.264 9.222-26.426l9.247-25.75H413.302l10.006-3.75 10.005-3.75 7.655-9.564c24.009-29.999 24.105-84.587.202-115.301l-7.33-9.419-11.17-4.259c-6.144-2.343-11.299-4.358-11.456-4.478-.157-.12 5.355-15.86 12.25-34.979C431.957 100.952 436 88.393 436 85.566c0-5.949-4.145-13.702-9.198-17.203l-4.131-2.863-175.663-.258-175.662-.258-4.423 2.335m43.415 48.931c1.82 5.088 22.608 62.692 46.197 128.01l42.888 118.76 46.503-.26 46.504-.26 46.134-127.75L384.698 107H107.029l3.309 9.25m75.162 34.957c-17.393 6.079-18.924 30.414-2.443 38.822 3.715 1.895 6.126 1.971 62.746 1.971h58.882l4.408-2.327c15.202-8.025 14.283-30.601-1.537-37.787-4.773-2.168-116.027-2.787-122.056-.679m208.078 56.043c-.873 2.338-6.042 16.625-11.487 31.75l-9.9 27.5 17.154.285 17.155.285 2.147-2.471c9.449-10.876 9.225-48.787-.349-59.203-1.808-1.967-3.181-2.396-7.668-2.396h-5.465l-1.587 4.25m-185.85 29.053c-20.508 6.508-19.26 36.164 1.715 40.744 3.322.726 16.897.993 39.557.779 33.504-.317 34.621-.391 38.692-2.567 14.866-7.946 14.866-29.572 0-37.518-4.097-2.19-5.006-2.245-40.192-2.438-25.673-.14-37.082.147-39.772 1" fill-rule="evenodd"/></svg>