<svg xmlns="http://www.w3.org/2000/svg" width="512" height="512"><path fill="#fbfbfb" stroke="#fbfbfb" d="M66.88 66.794c-3.898 2.036-6.167 4.119-8.365 7.676-6.193 10.028-8.84 1.248 46.136 153.03l48.897 135-16.024.5c-12.353.385-16.711.88-19.024 2.161-15.733 8.709-15.149 31.466 1 38.943 3.644 1.687 7.047 1.854 38.25 1.874 26.719.017 34.251.297 34.256 1.272.028 6.438 5.457 14.344 12.399 18.059 6.419 3.435 97.771 3.435 104.19 0 6.942-3.715 12.371-11.621 12.399-18.059.005-.975 7.537-1.255 34.256-1.272 31.203-.02 34.606-.187 38.25-1.874 16.935-7.841 16.49-32.363-.718-39.551-3.033-1.267-8.44-1.553-29.357-1.553-24.018 0-25.595-.111-24.94-1.75.385-.962 4.444-12.1 9.02-24.75 4.577-12.65 8.633-23.787 9.015-24.75.638-1.61 2.995-1.75 29.472-1.75h28.779l9.612-3.634 9.612-3.635 6.893-8.726c8.282-10.486 8.157-10.261 12.597-22.639 11.418-31.833 6.351-71.27-12.133-94.419-7.986-10.002-7.944-9.974-23.372-15.275l-6.52-2.241 11.773-32.465c13.928-38.408 14.276-39.677 12.684-46.314-1.522-6.341-8.576-13.949-14.417-15.547-2.824-.772-54.749-1.095-176.636-1.099L72.228 64l-5.348 2.794m41.143 41.456c.013.138 20.671 57.4 45.907 127.25l45.883 127 45.927.26 45.928.26 40.346-111.76c22.19-61.468 42.914-118.848 46.052-127.51l5.707-15.75H245.886c-75.837 0-137.875.112-137.863.25m78.456 42.124c-16.625 5.292-21.044 26.596-7.783 37.527 6.232 5.137 7.308 5.213 69.304 4.894l57.5-.295 4.723-2.777c14.737-8.662 13.833-29.758-1.628-38.032-4.063-2.174-4.542-2.193-61.095-2.394-44.011-.157-57.916.089-61.021 1.077m197.999 83.876c-5.961 16.637-11.03 30.813-11.265 31.5-.826 2.417 30.936 1.707 34.074-.761 7.485-5.888 10.398-34.014 5.178-49.989-3.077-9.417-4.702-11-11.292-11h-5.856l-10.839 30.25m-180.251 2.866c-16.103 7.971-16.051 30.982.088 38.794 4.143 2.006 5.823 2.09 41.795 2.09h37.478l5.407-3.25c14.057-8.449 14.057-28.051 0-36.5l-5.407-3.25-37.544.001c-36.209.001-37.696.076-41.817 2.115" fill-rule="evenodd"/><path fill="#dbd2d0" stroke="#dbd2d0" d="M70.558 65.241C60.2 67.996 53.071 81.115 56.242 91.588c1.187 3.921 94.727 263.218 97.279 269.662.641 1.619-.422 1.752-14.164 1.772-19.961.029-25.158 2.192-29.989 12.478-5.278 11.236-.781 23.238 10.65 28.423 4.219 1.914 6.462 2.034 38.213 2.055l33.731.022.545 2.75c1.044 5.26 5.194 11.754 9.426 14.75l4.239 3h100.656l4.239-3c4.232-2.996 8.382-9.49 9.426-14.75l.545-2.75 33.731-.01c33.303-.009 33.794-.039 38.731-2.358 16.803-7.892 16.495-30.838-.518-38.555-4.122-1.87-6.509-2.035-29.732-2.055-13.887-.012-25.231-.359-25.208-.772.023-.413 4.196-12.225 9.274-26.25l9.232-25.5 29.976-.509 29.976-.508 8.721-3.554c36.696-14.955 46.046-91.47 15.755-128.929l-7.682-9.5-10.897-3.926c-5.993-2.16-10.985-3.973-11.091-4.028-.107-.056 5.432-15.614 12.309-34.574 11.783-32.488 12.483-34.831 12.148-40.701-.436-7.647-4.106-13.511-10.807-17.271l-4.456-2.5-173-.154c-117.978-.105-174.254.18-176.942.895m43.278 60.009L159.971 253l39.544 109.5H292.154l45.894-127c25.242-69.85 45.907-127.338 45.923-127.75.016-.412-62.241-.75-138.349-.75H107.244l6.592 18.25m69.655 26.603c-17.773 8.128-15.732 34.242 3.105 39.718 9.34 2.715 116.585 1.639 121.904-1.224 14.879-8.007 16.098-27.965 2.269-37.119l-4.121-2.728-59.574-.24c-55.94-.226-59.819-.129-63.583 1.593m211.008 53.397c-.242.688-5.342 14.863-11.334 31.5L372.27 267h33.649l2.431-2.622c9.241-9.965 9.281-48.289.061-58.476-2.063-2.28-13.159-2.799-13.912-.652M205.5 236.871c-7.229 3.302-13.5 12.42-13.5 19.629 0 7.209 6.271 16.327 13.5 19.629 4.704 2.149 71.484 2.836 78.777.811 19.195-5.33 19.195-35.55 0-40.88-7.293-2.025-74.073-1.338-78.777.811" fill-rule="evenodd"/><path fill="#5c3424" stroke="#5c3424" d="M66.923 67.319c-6.59 3.478-10.246 9.273-10.697 16.952-.356 6.076.837 9.556 48.704 142.021C131.919 300.977 154 362.243 154 362.437c0 .194-7.088.529-15.75.744-12.094.3-16.446.768-18.75 2.019-13.169 7.151-16.066 23.047-6.13 33.635 6.353 6.771 5.478 6.633 44.38 6.973l35.25.309v2.376c0 5.822 5.86 13.63 12.491 16.642 6.146 2.792 95.872 2.792 102.018 0 6.631-3.012 12.491-10.82 12.491-16.642v-2.376l35.25-.309c30.634-.268 35.643-.526 38.25-1.973 13.564-7.526 16.162-24.305 5.335-34.465-6.228-5.845-6.222-5.844-34.585-6.194-14.437-.178-26.262-.628-26.276-1-.014-.372 4.136-12.264 9.222-26.426l9.247-25.75 28.029.022 28.028.021 10.42-3.771 10.419-3.772 7.534-9.45c24.107-30.237 24.247-84.64.297-115.415l-7.33-9.419-11.17-4.259c-6.144-2.343-11.299-4.358-11.456-4.478-.157-.12 5.355-15.86 12.25-34.979C431.957 100.952 436 88.393 436 85.566c0-5.949-4.145-13.702-9.198-17.203l-4.131-2.863-175.663-.258-175.662-.258-4.423 2.335m43.415 48.931c1.82 5.088 22.608 62.692 46.197 128.01l42.888 118.76 46.503-.26 46.504-.26 46.134-127.75L384.698 107H107.029l3.309 9.25m75.162 34.972c-13.727 4.866-18.506 22.036-9.257 33.256 6.371 7.729 4.006 7.475 69.85 7.5l58.592.022 4.408-2.327c15.202-8.025 14.283-30.601-1.537-37.787-4.801-2.181-116.071-2.787-122.056-.664m208.078 56.028c-.873 2.338-6.042 16.625-11.487 31.75l-9.9 27.5 17.154.285 17.155.285 2.147-2.471c9.449-10.876 9.225-48.787-.349-59.203-1.808-1.967-3.181-2.396-7.668-2.396h-5.465l-1.587 4.25m-185.85 29.077c-19.866 6.179-19.262 35.524.836 40.585 6.638 1.671 70.86 1.384 75.688-.339 9.414-3.359 14.241-10.163 14.241-20.073s-4.827-16.714-14.241-20.073c-5.009-1.788-70.821-1.874-76.524-.1" fill-rule="evenodd"/></svg>