<svg xmlns="http://www.w3.org/2000/svg" width="350" height="295"><path fill="#fcfbfb" stroke="#fcfbfb" d="M253.039 1.101c-30.146 4.624-61.652 28.161-81.557 60.929l-3.638 5.988-9.15-9.107C128.968 29.327 92.514 19.115 58.5 30.844 11.822 46.942-11.602 99.505 6.487 147.563c10.977 29.161 34.398 55.732 69.802 79.189 11.935 7.907 43.316 24.977 44.233 24.06 1.783-1.784-26.67-35.635-46.058-54.795-41.481-40.996-42.238-59.435-1.464-35.671 17.636 10.278 24.396 13.371 32.05 14.666 24.787 4.191 44.062-9.658 71.689-51.512 20.061-30.391 21.786-32.824 28.13-39.676 12.199-13.176 27.165-17.623 27.109-8.055-.03 5.173-1.767 8.62-17.522 34.782-35.859 59.548-43.843 87.129-38.05 131.449 1.776 13.582 8.552 52.19 9.303 53 2.366 2.553 7.326-10.775 11.64-31.274 5.358-25.462 4.39-24.081 23.649-33.725 71.257-35.681 112.391-76.278 126.157-124.51 3.028-10.611 3.281-32.284.501-42.991-10.638-40.979-52.145-67.914-94.617-61.399M112.305 96.11C95.945 98.182 83 112.931 83 129.5c0 24.666 25.96 40.671 48.206 29.719 35.239-17.348 20.057-68.041-18.901-63.109" fill-rule="evenodd"/><path fill="#f7d7da" stroke="#f7d7da" d="M255.218 1.053c-29.41 3.634-58.995 24.248-79.954 55.709l-7.502 11.262-10.169-9.794C112.528 14.824 52.742 15.615 18.456 60.07-17.188 106.286.824 170.643 62.343 216.882 77.299 228.123 116.273 251 120.468 251c.769 0-8.428-12.568-18.295-25-4.147-5.225-15.67-17.607-25.606-27.516-28.768-28.688-38.78-44.205-31.475-48.778 2.749-1.721 14.527 2.694 27.908 10.462 24.34 14.13 33.333 17.067 45.893 14.985 20.256-3.356 35.621-17.871 62.621-59.153 14.553-22.252 23.705-34.404 28.885-38.355 8.415-6.419 19.383-8.789 21.59-4.666 2.171 4.057-.082 8.879-18.202 38.948-37.201 61.732-44.004 89.21-35.297 142.573 4.485 27.493 6.973 39.862 8.01 39.82 2.104-.084 6.516-11.309 8.97-22.82 7.379-34.618 5.376-31.474 27.03-42.421C301.783 189 346.031 139.774 349.598 87.683c3.521-51.415-41.908-93.114-94.38-86.63M108.776 96.479c-38.566 10.616-32.045 66.284 7.724 65.944 40.29-.344 48.056-55.671 9.264-65.998-6.345-1.689-10.706-1.675-16.988.054" fill-rule="evenodd"/><path fill="#fbf5f5" stroke="#fbf5f5" d="M247.569 2.589c-27.414 6.111-52.963 25.322-72.541 54.543-3.18 4.748-5.993 9.248-6.251 10-.302.886-3.999-2.015-10.486-8.227C135.186 36.778 113.207 26.87 87 26.77c-58.898-.226-99.332 55.548-82.466 113.751 11.376 39.255 46.549 74.958 101.925 103.458 7.503 3.862 13.855 7.021 14.115 7.021.607 0-8.876-12.778-18.552-25-4.137-5.225-15.664-17.6-25.616-27.5C57.594 179.786 48 168.076 44.154 159.136c-6.496-15.099 5.433-13.142 38.846 6.375 29.698 17.347 51.658 11.893 77.093-19.145 3.215-3.923 13.545-18.693 22.955-32.821 23.068-34.634 30.987-42.465 43.002-42.523 11.075-.053 9.604 4.931-12.093 40.978-40.942 68.021-44.889 88.351-31.742 163.5 3.607 20.62 3.182 19.356 5.736 17.044 2.603-2.355 5.276-10.868 9.049-28.817 5.404-25.714 4.413-24.32 24.439-34.328 53.727-26.849 92.695-59.251 112.927-93.899C365.909 81.48 345.996 21.781 290.5 3.988c-9.299-2.982-32.447-3.736-42.931-1.399M108.5 96.342c-32.544 10.81-35.069 52.948-3.873 64.619 28.669 10.727 56.562-19.238 43.409-46.633-6.851-14.267-25.37-22.692-39.536-17.986" fill-rule="evenodd"/><path fill="#db1b2a" stroke="#db1b2a" d="M249 2.557c-29.951 6.759-53.856 24.655-74.25 55.586l-7.018 10.644-6.103-6.524c-11.324-12.105-27.746-23.562-41.721-29.105C61.747 10.087 1 51.399 1 114.023c0 48.746 39.031 96.389 106.816 130.385 6.133 3.076 11.401 5.592 11.707 5.592.741 0-9.101-13.316-18.109-24.5-3.986-4.95-15.969-17.775-26.628-28.5-25.175-25.331-35.115-39.779-31.726-46.113 2.517-4.702 13.869-.804 36.44 12.512 22.69 13.386 36.042 15.119 52.736 6.847 15.755-7.807 25.401-18.593 50.299-56.246 22.872-34.588 31.374-43 43.461-43 11.358 0 10.216 4.078-11.133 39.764-38.694 64.679-45.042 90.291-35.874 144.736 2.485 14.754 6.173 35.159 6.653 36.803 1.718 5.886 6.366-5.838 10.824-27.303 5.286-25.452 5.71-26.149 20.237-33.336C301.831 189.549 346.846 139.885 348.731 86c1.397-39.914-22.41-72.251-60.731-82.495-8.914-2.383-30.335-2.903-39-.948M106.419 96.762c-24.428 8.733-31.997 38.721-14.249 56.458 13.528 13.52 37.538 12.807 50.463-1.499 15.376-17.02 10.275-43.28-10.37-53.381-7.256-3.55-18.422-4.232-25.844-1.578" fill-rule="evenodd"/></svg>