<svg xmlns="http://www.w3.org/2000/svg" width="350" height="295"><path fill="#dcdcdc" stroke="#dcdcdc" d="M253.039 1.101c-30.146 4.624-61.652 28.161-81.557 60.929l-3.638 5.988-9.15-9.107c-40.118-39.927-94.281-43.895-130.431-9.555-45.797 43.502-35.055 110.092 26.018 161.273 15.427 12.929 64.018 42.405 66.241 40.183 1.783-1.784-26.67-35.635-46.058-54.795-41.481-40.996-42.238-59.435-1.464-35.671 17.636 10.278 24.396 13.371 32.05 14.666 24.787 4.191 44.062-9.658 71.689-51.512 20.061-30.391 21.786-32.824 28.13-39.676 15.98-17.26 33.047-17.445 25.247-.273-1.012 2.228-8.059 14.378-15.66 27-35.859 59.548-43.843 87.129-38.05 131.449 1.776 13.582 8.552 52.19 9.303 53 2.366 2.553 7.326-10.775 11.64-31.274 5.358-25.462 4.39-24.081 23.649-33.725C324.286 178.281 371 107.081 341.425 46.451c-15.686-32.156-52.214-50.898-88.386-45.35M112.305 96.11C95.945 98.182 83 112.931 83 129.5c0 24.666 25.96 40.671 48.206 29.719 35.239-17.348 20.057-68.041-18.901-63.109" fill-rule="evenodd"/><path fill="#747474" stroke="#747474" d="M255.218 1.053c-29.41 3.634-58.995 24.248-79.954 55.709l-7.502 11.262-10.169-9.794C112.528 14.824 52.742 15.615 18.456 60.07-17.188 106.286.824 170.643 62.343 216.882 77.299 228.123 116.273 251 120.468 251c.769 0-8.428-12.568-18.295-25-4.147-5.225-15.67-17.607-25.606-27.516-9.937-9.91-19.946-20.485-22.242-23.5C33.804 148.033 41.533 141.901 73 160.168c24.34 14.13 33.333 17.067 45.893 14.985 20.256-3.356 35.621-17.871 62.621-59.153 23.83-36.437 32.347-44.911 45.201-44.978 10.352-.054 8.806 4.839-12.928 40.905-37.201 61.732-44.004 89.21-35.297 142.573 4.485 27.493 6.973 39.862 8.01 39.82 2.104-.084 6.516-11.309 8.97-22.82 7.379-34.618 5.376-31.474 27.03-42.421C301.783 189 346.031 139.774 349.598 87.683c3.521-51.415-41.908-93.114-94.38-86.63M108.776 96.479c-26.079 7.179-34.744 39.552-15.352 57.36 23.698 21.763 62.191 1.16 57.333-30.686-2.933-19.229-22.911-31.923-41.981-26.674" fill-rule="evenodd"/><path fill="#a7a7a7" stroke="#a7a7a7" d="M247.569 2.589c-27.414 6.111-52.963 25.322-72.541 54.543-3.18 4.748-5.993 9.248-6.251 10-.302.886-3.999-2.015-10.486-8.227-43.187-41.361-100.009-43.379-134.708-4.787-42.594 47.376-24.763 116.995 42.323 165.247C80.019 229.516 117.146 251 120.574 251c.607 0-8.876-12.778-18.552-25-4.137-5.225-15.664-17.6-25.616-27.5-48.767-48.513-45.757-63.568 6.594-32.989 37.569 21.944 57.829 11.421 100.048-51.966 23.068-34.634 30.987-42.465 43.002-42.523 11.075-.053 9.604 4.931-12.093 40.978-40.942 68.021-44.889 88.351-31.742 163.5 3.607 20.62 3.182 19.356 5.736 17.044 2.603-2.355 5.276-10.868 9.049-28.817 5.404-25.714 4.413-24.32 24.439-34.328C323.608 178.342 370.202 107.154 341.148 46.5c-15.919-33.232-56.359-52.208-93.579-43.911M108.5 96.342c-32.544 10.81-35.069 52.948-3.873 64.619 28.669 10.727 56.562-19.238 43.409-46.633-6.851-14.267-25.37-22.692-39.536-17.986" fill-rule="evenodd"/><path fill="#424242" stroke="#424242" d="M249 2.557c-29.951 6.759-53.856 24.655-74.25 55.586l-7.018 10.644-6.103-6.524C114.48 11.86 41.804 16.125 11.626 71.066c-28.875 52.567.849 117.318 73.957 161.111 9.967 5.97 32.538 17.823 33.94 17.823.741 0-9.101-13.316-18.109-24.5-3.986-4.95-15.969-17.775-26.628-28.5-46.055-46.34-43.825-62.237 4.714-33.601 40.962 24.165 60.623 14.739 103.035-49.399 22.872-34.588 31.374-43 43.461-43 11.358 0 10.216 4.078-11.133 39.764-38.694 64.679-45.042 90.291-35.874 144.736 2.485 14.754 6.173 35.159 6.653 36.803 1.718 5.886 6.366-5.838 10.824-27.303 5.286-25.452 5.71-26.149 20.237-33.336 96.179-47.582 144.315-109.539 130.427-167.873C336.89 20.776 292.105-7.17 249 2.557M106.419 96.762c-19.61 7.01-29.353 28.597-21.071 46.687 15.133 33.054 66.146 21.514 66.082-14.949-.04-22.834-23.549-39.411-45.011-31.738" fill-rule="evenodd"/></svg>