<svg xmlns="http://www.w3.org/2000/svg" width="350" height="295"><path fill="#fcfbfb" stroke="#fcfbfb" d="M254.5.939c-32.749 5.424-61.247 26.549-83.43 61.844l-3.321 5.283-10.247-9.97C115.499 17.23 60.474 15.228 24.364 53.251-16.982 96.79-3.843 163.823 55.412 211.646c15.909 12.839 63.046 41.229 65.08 39.196 1.809-1.81-26.824-35.873-45.679-54.342-21.121-20.689-32.443-36.155-31.633-43.211.308-2.684.527-2.787 5.82-2.729 6.367.07 13.833 3.367 31.38 13.858 21.406 12.799 35.463 14.532 52.12 6.427 14.351-6.984 24.78-18.603 48.31-53.824 22.775-34.092 31.611-43.577 42.433-45.557 13.744-2.513 12.628 3.549-6.502 35.32-32.741 54.379-43.157 82.486-42.054 113.481.653 18.35 9.608 75.097 11.751 74.461 2.136-.633 6.463-11.023 8.539-20.501 8.433-38.505 5.573-33.87 27.909-45.222C318.748 180.283 364.708 115.998 345.857 57 334.017 19.942 292.73-5.393 254.5.939M111.65 96.077c-26.131 4.235-37.828 35.706-20.574 55.357C111.426 174.611 151 159.465 151 128.5c0-20.674-18.382-35.821-39.35-32.423" fill-rule="evenodd"/><path fill="#db1b2b" stroke="#db1b2b" d="M249 2.461c-30.121 6.464-60.71 30.355-77.829 60.788-1.469 2.612-2.966 4.749-3.327 4.75-.361.001-3.736-3.197-7.5-7.106C109.904 8.512 34 17.842 7.487 79.681-12.173 125.536 10.798 179.689 67 219.986c15.515 11.124 51.047 31.3 52.523 29.824.493-.493-16.244-22.552-23.376-30.81-3.088-3.575-12.885-13.7-21.77-22.5-26.855-26.595-37.955-44.811-28.72-47.129 4.822-1.21 15.935 3.519 35.303 15.023 13.055 7.755 18.829 9.804 29.219 10.371 24.635 1.343 39.638-11.09 71.298-59.081C205.825 78.776 213.633 71 226.345 71c10.599 0 8.861 6.246-10.59 38.061-18.294 29.921-28.321 50.204-34.575 69.939-8.281 26.133-8.213 42.148.39 92 4.301 24.919 3.955 23.74 6.323 21.597 2.485-2.249 5.369-11.384 8.555-27.097 3.316-16.357 6.005-24.649 8.836-27.255 1.219-1.121 9.019-5.433 17.334-9.582 89.292-44.553 135.765-104.428 125.4-161.564-5.333-29.404-28.465-54.56-58.057-63.138-9.613-2.786-31.27-3.58-40.961-1.5m-142.647 94.6c-14.714 4.664-25.851 21.586-23.898 36.309 4.275 32.226 47.504 40.571 64.329 12.417 16.093-26.931-9.997-58.373-40.431-48.726" fill-rule="evenodd"/><path fill="#f7d4d6" stroke="#f7d4d6" d="M254.5 1.667c-1.1.24-4.398.902-7.329 1.472s-5.153 1.212-4.937 1.429c.216.216 4.189-.328 8.83-1.208C256.947 2.245 262.981 1.893 271 2.2c6.325.242 10.15.125 8.5-.261-3.284-.769-21.794-.97-25-.272m29.25 1.995c.688.278 1.813.278 2.5 0 .688-.277.125-.504-1.25-.504s-1.937.227-1.25.504m11.609 3.356c24.549 9.122 41.161 26.476 49.279 51.482 1.25 3.85 2.293 6.225 2.317 5.279.193-7.399-10.187-26.808-19.77-36.965-9.792-10.38-31.148-23.04-38.403-22.765-.705.026 2.255 1.362 6.577 2.969M237 6c-1.828 1.181-.249 1.181 2.5 0 1.319-.567 1.489-.878.5-.914-.825-.031-2.175.381-3 .914m-11.875 5.058c-14.26 7.137-28.203 18.593-40.091 32.942C179.521 50.653 169 66.155 169 67.624c0 .45 2.532-2.994 5.626-7.653 15.489-23.319 32.119-38.894 51.832-48.54 4.973-2.433 8.532-4.426 7.908-4.428-.624-.001-4.783 1.823-9.241 4.055M76.5 27.498c.55.187 7.075.526 14.5.752 7.907.242 11.843.092 9.5-.361-3.814-.738-26.086-1.1-24-.391m-11.835 2.009c-2.659.731-5.134 1.647-5.5 2.035-.366.389.329.401 1.545.028 1.215-.374 5.04-1.294 8.5-2.045 3.558-.773 4.987-1.362 3.29-1.356-1.65.005-5.176.608-7.835 1.338m41.148.176c.721.289 1.584.253 1.916-.079.332-.332-.258-.568-1.312-.525-1.165.048-1.402.285-.604.604M115 32.429c15.931 5.588 27.611 13.202 42.942 27.995 7.618 7.35 9.257 8.623 6.057 4.707-12.29-15.049-44.399-35.738-54.406-35.057-.601.041 1.832 1.101 5.407 2.355m-65.749 3.018C26.704 46.252 6.762 71.164 3.58 92.5c-.388 2.605.094 1.679 1.382-2.654 7.301-24.555 23.605-43.732 46.186-54.325 4.044-1.897 6.889-3.465 6.324-3.485-.566-.02-4.265 1.515-8.221 3.411M347.5 83c0 9.563.284 16.062.632 14.443.347-1.619.631-8.118.631-14.443 0-6.325-.284-12.824-.631-14.443-.348-1.619-.632 4.88-.632 14.443M215.961 72.459c-8.019 4.178-17.482 15.577-36.152 43.542-23.142 34.665-32.7 45.504-46.5 52.732-2.855 1.496-5.024 2.886-4.82 3.089 1.265 1.265 14.084-7.439 21.091-14.322 9.511-9.342 16.996-19.339 35.617-47.566 17.725-26.869 25.01-34.739 35.685-38.553 2.101-.751 2.78-1.292 1.618-1.291-1.1.002-4.043 1.068-6.539 2.369m14.257-1.397c.945.551 2.169 1.775 2.72 2.72.551.945 1.015 1.188 1.032.539.039-1.523-2.768-4.33-4.291-4.291-.649.017-.406.481.539 1.032m1.523 9.804c-.959 2.7-7.669 14.748-14.911 26.772-18.605 30.889-34.948 63.626-34.802 69.711.015.633 2.39-4.699 5.277-11.849 6.471-16.023 13.95-30.223 29.229-55.5 11.996-19.846 17.917-31.146 17.296-33.009-.189-.569-1.13 1.174-2.089 3.875M112.75 94.706c1.237.238 3.263.238 4.5 0 1.237-.239.225-.434-2.25-.434s-3.487.195-2.25.434m8-.044c.688.278 1.813.278 2.5 0 .688-.277.125-.504-1.25-.504s-1.937.227-1.25.504m-19.488 3.365c-11.778 5.885-19.307 17.41-19.847 30.379l-.295 7.094.824-7.094c1.763-15.178 9.374-25.467 22.976-31.063 3.069-1.263 4.864-2.306 3.99-2.319-.875-.013-4.316 1.338-7.648 3.003m28.936-.636c9.376 3.856 15.555 10.035 19.411 19.411 1.289 3.134 2.35 5.023 2.357 4.198.027-2.795-4.753-11.758-8.452-15.853-3.594-3.978-14.252-10.171-17.424-10.123-.874.013.974 1.078 4.108 2.367M2.195 99.5c.02 1.65.244 2.204.498 1.231.254-.973.237-2.323-.037-3-.274-.677-.481.119-.461 1.769m342.533 8.114c-11.208 43.56-54.066 85.433-123.228 120.398l-17 8.595-2.738 5.446c-1.506 2.996-2.984 7.022-3.285 8.947-.385 2.464.005 1.873 1.317-2 3.666-10.821 3.657-10.812 21.366-19.71 67.096-33.711 108.266-72.629 122.835-116.116 1.718-5.127 2.984-10.025 2.814-10.883-.17-.859-1.106 1.536-2.081 5.323M1.197 113.5c.022 6.05.35 12.35.73 14 .38 1.65.517-2.85.306-10-.482-16.27-1.088-18.612-1.036-4m151.113 15c.005 3.3.192 4.529.415 2.732.222-1.797.218-4.497-.01-6-.229-1.503-.411-.032-.405 3.268M3.061 132.66c-.109 3.858 5.891 20.507 10.626 29.487 16.244 30.81 49.924 60.076 95.396 82.895 5.434 2.727 10.135 4.958 10.446 4.958 2.524 0-24.019-31.588-42.015-50.002-22.306-22.824-27.518-28.985-32.439-38.35C39.19 150.45 42.89 146.46 55.5 150.405c1.1.344.65-.036-1-.845-6.47-3.17-13.516-1.071-13.49 4.019.037 7.258 12.483 23.909 32.728 43.785 19.074 18.727 43.584 47.647 41.851 49.381-.264.264-5.567-2.195-11.785-5.464-53.995-28.392-88.172-64.169-98.673-103.292-1.105-4.119-2.037-6.517-2.07-5.329m148.018 3.923c.048 1.165.285 1.402.604.605.289-.722.253-1.585-.079-1.917-.332-.332-.568.258-.525 1.312M82.025 137c-.113 7.344 15.456 25.271 21.675 24.96.44-.022-.55-.761-2.2-1.641-8.411-4.49-13.381-10.059-17.146-19.211-1.268-3.085-2.317-4.933-2.329-4.108m66.231 6.411c-2.825 5.813-7.701 11.234-13.231 14.708-2.489 1.564-4.03 2.852-3.425 2.862 4.511.078 21.583-19.131 19.158-21.556-.209-.21-1.336 1.584-2.502 3.986m-82.312 12.156c4.645 2.493 11.62 6.512 15.5 8.93 7.367 4.591 14.457 7.935 15.215 7.177.244-.243-.902-.912-2.546-1.485-1.644-.573-7.918-3.968-13.942-7.543-11.572-6.869-20.584-11.657-21.888-11.629-.431.009 3.017 2.056 7.661 4.55m61.861 5.962c-.291.29-2.503.916-4.917 1.39-3.49.686-3.774.875-1.388.926 2.775.06 10.341-2.582 7.917-2.764-.596-.044-1.322.157-1.612.448m-21.305 1.424c1.92.87 7.276 1.437 6.417.68-.229-.202-2.217-.642-4.417-.977-2.788-.424-3.394-.334-2 .297m9.313 1.73c.721.289 1.584.253 1.916-.079.332-.332-.258-.568-1.312-.525-1.165.048-1.402.285-.604.604M99.5 173c1.1.473 2.9.846 4 .83 1.608-.024 1.51-.186-.5-.83-3.419-1.095-6.048-1.095-3.5 0m22.313.683c.721.289 1.584.253 1.916-.079.332-.332-.258-.568-1.312-.525-1.165.048-1.402.285-.604.604m-13.085 1.039c1.775.221 4.925.224 7 .008 2.074-.217.622-.397-3.228-.402-3.85-.004-5.548.173-3.772.394M179 187c-.674 2.809-1.027 5.307-.783 5.55.243.243.976-1.874 1.629-4.704.653-2.83 1.006-5.327.784-5.55-.223-.222-.956 1.895-1.63 4.704m-1.842 9c0 1.375.227 1.938.504 1.25.278-.687.278-1.812 0-2.5-.277-.687-.504-.125-.504 1.25m-.926 6c0 1.925.206 2.713.457 1.75.252-.963.252-2.537 0-3.5-.251-.963-.457-.175-.457 1.75m-1 13c0 1.925.206 2.713.457 1.75.252-.963.252-2.537 0-3.5-.251-.963-.457-.175-.457 1.75m-.153 6.583c.048 1.165.285 1.402.604.605.289-.722.253-1.585-.079-1.917-.332-.332-.568.258-.525 1.312m1.207 9.917c.008 2.75.202 3.756.432 2.236.229-1.52.223-3.77-.014-5-.237-1.23-.425.014-.418 2.764m.824 7.372c-.133 2.869 2.679 22.241 3.938 27.128.748 2.907.798 2.652.292-1.5-1.333-10.939-4.126-27.861-4.23-25.628m17.534 29.164c-2.873 13.882-6.263 24.318-7.627 23.475-.456-.282-1.163-2.875-1.57-5.762-.407-2.887-.933-4.697-1.169-4.022-.977 2.793 1.826 12.432 3.266 11.236 2.775-2.302 11.915-35.837 10.229-37.524-.239-.238-1.647 5.43-3.129 12.597m-12.449 4.464c.02 1.65.244 2.204.498 1.231.254-.973.237-2.323-.037-3-.274-.677-.481.119-.461 1.769m.963 5.5c0 1.375.227 1.938.504 1.25.278-.687.278-1.812 0-2.5-.277-.687-.504-.125-.504 1.25" fill-rule="evenodd"/></svg>