<svg xmlns="http://www.w3.org/2000/svg" width="350" height="295"><path fill="#434343" stroke="#434343" d="M253 1.631c-31.484 6.041-57.12 24.445-78.385 56.272-3.088 4.622-5.615 8.784-5.615 9.25 0 2.021-2.245.397-8.656-6.26C109.911 8.52 33.996 17.851 7.487 79.681-12.165 125.518 10.82 179.704 67 219.986 81.621 230.469 115.757 250 119.459 250c.818 0-8.817-13.113-18.347-24.971-4.187-5.209-15.734-17.584-25.662-27.5-19.396-19.374-26.056-27.46-30.673-37.245-7.642-16.192 4.396-14.828 36.223 4.104 13.082 7.782 18.785 9.81 29.179 10.377 24.439 1.332 40.01-11.451 70.362-57.765 25.004-38.154 33.965-46.918 46.858-45.829 8.904.752 7.397 6.067-9.875 34.829-44.532 74.158-48.494 92.338-35.954 165 4.301 24.919 3.955 23.74 6.323 21.597 2.485-2.249 5.369-11.384 8.555-27.097 3.316-16.357 6.005-24.649 8.836-27.255 1.219-1.121 9.073-5.46 17.454-9.642 66.527-33.195 109.278-74.625 122.903-119.103 4.111-13.418 4.149-39.956.075-52C337.013 31.767 315.867 11.45 290 3.968c-7.361-2.129-30.474-3.589-37-2.337m-146.647 95.43c-28.952 9.177-32.169 48.415-5.137 62.654 7.841 4.13 22.751 4.117 30.622-.027 38.085-20.054 15.477-75.611-25.485-62.627" fill-rule="evenodd"/></svg>