<svg xmlns="http://www.w3.org/2000/svg" width="384" height="182"><path fill="#e3f3f3" stroke="#e3f3f3" d="M171.747 54.984c-6.279 4.939-3.042 13.906 5.048 13.984 7.563.073 10.867-8.55 5.128-13.379-3.684-3.101-6.77-3.284-10.176-.605m-109.39 2.042c-25.81 10.209-27.099 45.558-2.141 58.685 6.747 3.549 21.918 4.08 27.625.966 3.045-1.661 3.495-1.683 5.079-.25 1.846 1.671 16.08 2.352 16.08.769 0-.442-1.575-2.33-3.5-4.196-4.148-4.02-4.245-4.883-1.105-9.771 9.778-15.219 3.721-36.356-12.895-45.004-6.974-3.63-21.489-4.227-29.143-1.199m179.787-.699c-.855 1.029-1.102 9.552-.909 31.294l.265 29.879 7.264.294 7.265.294-.265-31.294L255.5 55.5l-6.091-.294c-4.321-.208-6.433.118-7.265 1.121m77.364-.125c-.256.714-.588 4.673-.737 8.798-.149 4.125-.496 7.311-.771 7.081-.275-.23-1.512.123-2.75.785-1.912 1.023-2.25 2.025-2.25 6.669 0 5.406.033 5.465 3 5.465h3v33h14V85h10v-5.981c0-6.463-.78-7.212-7-6.718-2.451.195-2.51.033-3-8.301l-.5-8.5-6.263-.298c-4.448-.212-6.398.078-6.729 1M67.5 69.363C49.09 77.913 55.676 106 76.09 106c5.681 0 5.592-1.414-.518-8.264-3.06-3.43-5.565-6.574-5.568-6.986-.002-.412 3.338-.75 7.423-.75 7.353 0 7.458.037 10.488 3.713 6.178 7.495 9.472-6.599 3.909-16.73-4.129-7.521-16.316-11.339-24.324-7.62m51.167 3.356c-3.142.788-2.108 32.562 1.217 37.41 4.61 6.722 8.389 8.371 19.185 8.371 11.214 0 16.323-2.428 19.911-9.461 2.87-5.626 3.092-35.597.27-36.405-1.448-.415-8.671-.268-11.5.233-.412.073-.757 6.321-.765 13.883-.018 16.953-.645 18.627-7.138 19.05-7.375.48-7.844-.511-7.862-16.621-.009-7.524-.346-14.185-.75-14.804-.804-1.229-9.632-2.393-12.568-1.656m52.39.095c-.701.234-1.057 7.905-1.057 22.769V118h14V95.5c0-20.7-.14-22.513-1.75-22.663-3.704-.346-10.183-.359-11.193-.023m22.193-.082c-.81.282-1.25 2.516-1.25 6.351V85H212.047l-12.024 15.969c-6.612 8.783-12.023 16.208-12.023 16.5 0 .292 10.575.531 23.5.531H235V106.063l-11.563-.281-11.563-.282 11.991-15.989c6.594-8.794 11.792-16.188 11.55-16.429-.58-.58-40.549-.912-42.165-.35m82.307 1.315c-18.739 9.349-16.777 38.74 2.943 44.087 5.529 1.499 19.222.625 23.25-1.484 3.064-1.604 3.25-2.015 3.25-7.176 0-6.077-.014-6.086-6-3.974-6.433 2.27-16.116 1.984-19.365-.573-5.417-4.261-3.853-4.926 11.615-4.941 18.447-.017 18.762-.107 18.706-5.353-.094-8.862-5.04-17.042-12.393-20.499-6.036-2.837-16.412-2.878-22.006-.087m7.817 9.634c-2.305.461-7.057 4.969-6.172 5.854.299.299 4.727.413 9.841.254l9.299-.289-2.421-2.676c-2.435-2.691-6.604-3.933-10.547-3.143" fill-rule="evenodd"/><path fill="#bce2db" stroke="#bce2db" d="M172.695 55.111c-3.814 2.219-4.052 9.77-.382 12.103 2.316 1.473 7.671.802 9.687-1.214 5.787-5.787-2.137-15.059-9.305-10.889M67.5 55.875c-22.29 5.922-31.825 31.691-18.454 49.873 8.454 11.495 27.562 16.1 40.103 9.664 2.268-1.163 2.826-1.147 3.873.114.867 1.045 3.286 1.474 8.303 1.474h7.081l-3.703-3.792c-4.385-4.491-4.45-5.018-1.217-9.782 10.256-15.114 3.039-38.092-14.316-45.581-5.094-2.198-16.806-3.263-21.67-1.97m175.167.792c-.367.366-.667 14.091-.667 30.5V117h13V56h-5.833c-3.209 0-6.134.3-6.5.667M320 64.5V73h-6v12h6v32h12V85h10V73h-10V56h-12v8.5M69.367 67.633c-3.341.745-10.275 7.211-11.897 11.093-6.268 15.001 7.182 31.69 22.28 27.644 3.243-.869 2.881-1.842-3.243-8.71l-5.494-6.16 6.744-.308c6.646-.303 6.786-.257 9.743 3.25 3.664 4.346 4.89 4.446 6.51.534 3.485-8.413-.131-20.415-7.526-24.986-3.5-2.163-12.459-3.397-17.117-2.357m211.324 5.305c-17.247 3.468-23.335 28.928-9.668 40.428 6.702 5.639 19.088 6.985 28.727 3.121 4.189-1.68 4.25-1.775 4.25-6.596 0-2.69-.253-4.891-.562-4.891-.309 0-2.79.729-5.513 1.619-7.535 2.465-16.526 1.547-19.576-1.999-4.619-5.371-3.985-5.62 14.29-5.62h16.639l-.544-6c-1.312-14.464-13.285-23.029-28.043-20.062M118 88.532c0 17.008.691 20.031 5.641 24.679 8.667 8.138 26.199 7.104 33.114-1.954 2.715-3.555 2.748-3.785 3.059-20.926L160.129 73H148v14.545c0 17.053-1.106 19.455-8.955 19.455-7.224 0-8.045-1.778-8.045-17.418 0-17.05.201-16.582-7.107-16.582H118v15.532M171 95v22h12V73h-12v22m22-16.5V84h9.333c5.134 0 9.607.274 9.942.608.335.335-4.776 7.76-11.357 16.5L188.953 117H234v-10h-10.941c-6.018 0-11.181-.389-11.475-.864-.293-.474 4.63-7.751 10.941-16.17C228.836 81.547 234 74.286 234 73.83c0-.457-9.225-.83-20.5-.83H193v5.5m86.869 6.01c-2.76 1.499-4.267 4.038-3.313 5.58.309.501 4.81.91 10.003.91 8.656 0 9.441-.16 9.441-1.927 0-5.018-10.058-7.863-16.131-4.563" fill-rule="evenodd"/></svg>