<svg xmlns="http://www.w3.org/2000/svg" width="438" height="268"><path fill="#d5bc7e" stroke="#d5bc7e" d="M0 134.002v134.002l219.25-.252 219.25-.252.254-133.75L439.007 0H0v134.002m.486.498c0 73.7.119 103.702.264 66.672.145-37.03.145-97.33 0-134S.486 60.8.486 134.5M18.71 26c-.287 1.1-.115 2 .384 2 .498 0 .906-.9.906-2s-.173-2-.383-2c-.211 0-.619.9-.907 2m2.448 0c0 1.375.227 1.938.504 1.25.278-.687.278-1.812 0-2.5-.277-.687-.504-.125-.504 1.25m2.229.183c-.323.522-.317 1.22.013 1.55.33.33.6.075.6-.566 0-.642.477-1.167 1.059-1.167s.774.461.426 1.025c-.807 1.305 1.766.814 2.75-.525.484-.659.74-.649.75.032.008.567 1.216 1.131 2.684 1.253 2.359.195 2.585-1.091.248-1.41-.505-.069-1.03-.231-1.167-.36-.811-.761-6.874-.623-7.363.168m12.156-.252c-.317.512-.118 1.213.441 1.559.559.345 1.016-.074 1.016-.931 0-1.757-.6-2.015-1.457-.628m5.932 37.129c-1.664.485-4.589 2.494-6.5 4.466L31.5 71.11l-.268 78.45c-.263 77.143-.234 78.516 1.763 82.43 2.387 4.679 5.963 7.347 8.528 6.363 1.119-.43 1.566-.306 1.175.326-.422.683 9.236 1.025 29.312 1.036 21.765.012 29.759-.289 29.274-1.099-.49-.819-.284-.821.774-.007 1.021.786 18.17 1.078 58.788 1 31.54-.06 57.554.229 57.809.641.254.412.913.75 1.463.75s.754-.399.452-.886c-.301-.488-.572-40.119-.602-88.069l-.055-87.183-3.424-1.431c-3.957-1.653-169.402-2.003-175.014-.371m183.455 1.215c-3.544 2.394-4.383 7.163-1.578 8.96.857.548.851.738-.022.75-.842.011-1.193 4.579-1.252 16.265-.055 11.002.238 15.766.905 14.75.596-.906.992-1.028 1.002-.309.008.655-.379 1.435-.861 1.732-1.483.917-1.408 18.78.083 19.726.999.634 1.009.824.043.836-1.65.02-1.693 10.172-.05 11.815.874.874.888 1.2.051 1.2-.83 0-1.166 6.29-1.211 22.632-.057 20.757.072 22.52 1.559 21.286 1.011-.839 1.203-1.484.511-1.715-1.888-.629-1.223-2.203.93-2.203 1.123 0 3.388-.996 5.034-2.213 2.407-1.779 4.192-2.179 9.116-2.043 7.284.202 8.275.964 7.39 5.681-.62 3.307-.938 3.575-4.24 3.575-3.551 0-3.562.013-1.977 2.431 1.984 3.028.291 3.69-5.687 2.225-3.055-.749-4.143-.617-5.414.653-2.57 2.57-.104 4.614 4.777 3.959 3.869-.519 3.961-.46 3.961 2.536 0 2.567-.542 3.263-3.33 4.271-2.736.989-3.537 1.98-4.495 5.559-.64 2.396-1.954 5.176-2.92 6.179-7.895 8.205-7.052 9.664 5.04 8.718 11.58-.906 11.705-.966 11.705-5.638 0-2.141.45-3.893 1-3.893 1.402 0 1.247-2.596-.25-4.179-.752-.795-1.334-4.627-1.46-9.626-.198-7.838-.1-8.269 1.75-7.682 1.499.475 1.96.153 1.96-1.369 0-1.095 1.088-3.283 2.417-4.863l2.418-2.873-5.405-7.144c-2.973-3.929-7.098-8.382-9.168-9.895-9.463-6.92-13.187-11.55-11.209-13.933 5.191-6.254 18.89 5.943 26.746 23.814 1.149 2.613 2.309 4.75 2.579 4.75 1.037 0-3.866-12.717-6.554-17-6.736-10.733-8.1-15.261-5.074-16.847 5.859-3.07 13.427 8.51 15.77 24.13.649 4.33.892 4.652 3.092 4.099 8.231-2.065 11.293 3.496 9.573 17.388-1.586 12.813-1.609 12.573 1.565 16.345l2.75 3.268.511-2.941c.393-2.261-.048-3.425-1.906-5.025-4.298-3.702-1.919-12.417 3.389-12.417 1.696 0 2.687-3.493 2.553-9-.06-2.475.623-7.65 1.518-11.5.895-3.85 1.73-8.379 1.855-10.064.125-1.685 1.665-5.152 3.421-7.705l3.193-4.641-4.017-1.203c-2.209-.662-4.017-1.582-4.017-2.045 0-1.331-4.42-.982-8.346.658-5.054 2.112-7.115 1.876-8.649-.99-2.496-4.664 6.002-9.51 16.677-9.51 3.172 0 4.318-.398 4.318-1.5 0-1.85 1.142-1.869 7.838-.132 4.291 1.113 5.181 1.125 4.774.063-5.173-13.481-.412-25.936 12.799-33.481 4.803-2.743 5.008-3.035 4.738-6.764-.591-8.188 11.202-12.629 17.093-6.436 3.154 3.316 4.438 7.726 2.817 9.679-.923 1.112-.75 1.534.84 2.039 3.262 1.035 16.366 10.01 19.495 13.352 2.661 2.841 3.063 2.973 4.973 1.636 3.302-2.313 7.218-1.759 10.993 1.555 5.661 4.971 5.68 12.024.039 15.043-1.613.864-2.259 1.863-1.864 2.884 2.122 5.485 2.81 17.177 1.29 21.931-1.568 4.903-1.565 4.929.815 6.013 5.185 2.362 4.878 10.118-.401 10.118-.797 0-2.834 1.164-4.525 2.587l-3.074 2.587-1.775-2.337c-.977-1.285-1.908-3.237-2.07-4.337-.431-2.92-2.148-2.166-3.259 1.43-.596 1.93-1.454 2.92-2.25 2.595-4.333-1.768-4.282-1.465.373 2.255 8.086 6.462 9.784 9.634 6.77 12.649-2.326 2.325-3.343 1.987-7.657-2.548-3.884-4.083-3.93-4.1-5.404-1.996-1.17 1.671-1.885 1.909-3.361 1.119-2.778-1.487-2.705-1.553-6.47 5.922l-3.488 6.926 3.058.671c2.398.527 3.582.178 5.495-1.619 5.338-5.014 7.17 2.762 2.053 8.711l-2.331 2.71-6.561-1.649-6.562-1.648-4.795 2.681c-4.923 2.751-10.807 3.428-19.906 2.291-3.616-.452-4.032-.273-4.335 1.865-.555 3.925.973 4.377 14 4.148 30.518-.536 90.548-.29 92.585.381l2.25.741V75.424l-2.25-4.439c-4.614-9.103 2.513-8.448-95.32-8.756l-86.071-.272-3.429 2.318M51 106.927c0 1.431.642 2.073 2.073 2.073s1.97-.539 1.739-1.739c-.502-2.606-3.812-2.897-3.812-.334m5-.111c0 4.101 1.31 8.184 2.625 8.184.756 0 1.375-.675 1.375-1.5s.45-1.5 1-1.5 1 .675 1 1.5.619 1.5 1.375 1.5c1.315 0 2.625-4.083 2.625-8.184 0-2.972-1.989-1.065-2.079 1.993l-.079 2.691-1.004-2.75c-.553-1.513-1.38-2.75-1.838-2.75-.458 0-1.285 1.237-1.838 2.75l-1.004 2.75-.079-2.691c-.09-3.058-2.079-4.965-2.079-1.993m11.709-1.192c-.39.39-.709 2.659-.709 5.043 0 4.148.128 4.333 3 4.333 1.65 0 3-.45 3-1s-1.013-1.014-2.25-1.032c-2.084-.029-2.121-.13-.5-1.36.963-.731 1.75-1.583 1.75-1.895 0-.311-.787-.772-1.75-1.024-1.271-.332-1.111-.489.583-.573 1.386-.069 2.167-.624 1.922-1.366-.467-1.418-3.972-2.2-5.046-1.126m11.502 1.019c-1.675 3.192-2.472 8.357-1.29 8.357.593 0 1.079-.45 1.079-1 0-1.443 2.75-1.233 3.28.25 1.123 3.146 1.78-.551.699-3.933-1.596-4.992-2.576-5.947-3.768-3.674m6.456-.976c-1.065 1.065-.77 9.333.333 9.333.55 0 1.014-.787 1.032-1.75.03-1.667.095-1.667 1.36 0 1.497 1.973 4.156 2.446 2.971.529-.415-.672-.653-2.55-.53-4.173.274-3.596-3.008-6.098-5.166-3.939m8.034-.035c-.385.386-.701 2.651-.701 5.035 0 3.955.218 4.333 2.5 4.333 1.375 0 2.5-.45 2.5-1s-.675-1-1.5-1-1.5-.477-1.5-1.059.419-.8.931-.484c.512.317 1.196.146 1.521-.379.325-.525-.207-1.419-1.181-1.986-1.679-.978-1.676-1.033.062-1.062 1.014-.016 1.648-.589 1.417-1.28-.481-1.446-3.02-2.147-4.049-1.118m8.966.035c-1.163 1.162-.722 2.333.877 2.333.849 0 1.471.563 1.381 1.25-.38 2.929.147 5.75 1.075 5.75.55 0 1-1.575 1-3.5s.45-3.5 1-3.5 1-.675 1-1.5c0-1.529-4.982-2.185-6.333-.833m12.649 1.232c-.625 2.393-3.316 2.88-3.316.601 0-.825-.45-1.5-1-1.5s-1 2.025-1 4.5.45 4.5 1 4.5 1-.675 1-1.5.675-1.5 1.5-1.5 1.5.675 1.5 1.5.675 1.5 1.5 1.5c1.108 0 1.5-1.16 1.5-4.441 0-4.74-1.77-7.153-2.684-3.66m4.351-1.232c-.367.366-.667 2.616-.667 5 0 4.148.128 4.333 3 4.333 1.65 0 3-.45 3-1s-.9-1-2-1-2-.45-2-1 .506-.888 1.125-.75 1.331-.312 1.583-1c.257-.701-.346-1.278-1.375-1.313-1.47-.051-1.375-.247.481-.992 1.273-.51 2.034-1.382 1.691-1.937-.702-1.136-3.823-1.357-4.838-.341m10.056-.056c-1.105 1.104-.86 9.389.277 9.389.55 0 1.014-1.013 1.03-2.25.029-2.135.088-2.152 1.143-.334 1.081 1.862 1.15 1.863 2.469.058 1.296-1.771 1.358-1.756 1.358.335 0 1.205.45 2.191 1 2.191 1.23 0 1.301-6.977.09-8.889-.683-1.078-1.231-.741-2.445 1.5-.861 1.589-1.583 2.413-1.605 1.83-.066-1.749-2.541-4.607-3.317-3.83m9.944.056c-1.334 1.333-.729 9.333.706 9.333.975 0 1.337-1.279 1.25-4.417-.125-4.504-.764-6.109-1.956-4.916m5.083.4c-3.614 2.133-.861 10.957 2.961 9.491.799-.307 1.866-.558 2.371-.558.505 0 .918-1.125.918-2.5 0-1.63-.56-2.5-1.607-2.5-1.018 0-1.396.55-1.031 1.5.391 1.02-.054 1.5-1.393 1.5-1.434 0-1.969-.68-1.969-2.5 0-2.022.494-2.5 2.583-2.5 1.622 0 2.429-.465 2.167-1.25-.55-1.653-2.828-1.965-5-.683m8-.495c-1.124 1.141-.904 9.428.25 9.428.55 0 1-.675 1-1.5s.885-1.5 1.969-1.5c1.339 0 1.784.48 1.393 1.5-.365.95.013 1.5 1.031 1.5 1.206 0 1.607-.99 1.607-3.969 0-3.116.322-3.845 1.5-3.393.926.356 1.5 1.875 1.5 3.969 0 1.866.45 3.393 1 3.393s1-1.527 1-3.393c0-2.078.575-3.614 1.485-3.963 1.696-.651 3.515 2.129 3.515 5.374 0 1.297.496 1.967 1.25 1.69.688-.252 1.133-.978.99-1.613-.143-.636.419-2.469 1.25-4.076 1.885-3.645 1.886-4.101.01-3.381-.825.317-1.5 1.303-1.5 2.191 0 1.259-.33 1.146-1.49-.512-2.003-2.859-13.102-2.89-12.871-.036.206 2.548-3.428 2.19-3.819-.376-.176-1.152-.658-1.752-1.07-1.333M87 109c0 .55.45 1 1 1s1-.45 1-1-.45-1-1-1-1 .45-1 1m-34.375 16.518c-3.216 3.216-1.171 8.482 3.294 8.482 2.986 0 4.571-2.589 3.07-5.017-1.057-1.71-3.042-.285-2.299 1.65.439 1.145.088 1.471-1.294 1.205-3.374-.65-2.527-5.382.92-5.141 1.804.127 2.674-.233 2.421-1-.615-1.868-4.314-1.977-6.112-.179M61 129c0 2.75.45 5 1 5s1-2.25 1-5-.45-5-1-5-1 2.25-1 5m4.479-1.604C63.761 131.508 63.58 134 65 134c.55 0 1-.45 1-1 0-1.443 2.75-1.233 3.28.25 1.091 3.056 1.741-.46.759-4.107-1.475-5.477-2.791-5.981-4.56-1.747M72 129c0 2.75.45 5 1 5s1.012-1.238 1.027-2.75l.026-2.75 1.705 2.75C78.215 135.212 79 134.667 79 129c0-2.75-.45-5-1-5s-1.018 1.237-1.04 2.75l-.04 2.75-1.492-2.75C73.193 122.631 72 123.414 72 129m8-4c0 .55.675 1 1.5 1 1.083 0 1.5 1.111 1.5 4 0 2.2.45 4 1 4s1-1.8 1-4c0-2.889.417-4 1.5-4 .825 0 1.5-.45 1.5-1s-1.8-1-4-1-4 .45-4 1m8.51.97c-.472 1.485.008 2.67 1.664 4.111l2.326 2.025-2.368-.658c-1.74-.483-2.25-.298-1.922.697.246.745 1.426 1.499 2.623 1.675 3.186.469 4.048-2.688 1.334-4.886-2.753-2.229-2.774-3.261-.049-2.396 1.531.485 1.995.296 1.672-.683-.759-2.304-4.539-2.222-5.28.115m8.157-1.303C95.399 125.934 96.008 127 98 127c1.111 0 2-.667 2-1.5 0-1.522-2.115-2.051-3.333-.833m8.344.819c-1.1 1.326-.929 1.979 1.092 4.168l2.397 2.594-2.368-.729c-1.763-.542-2.254-.382-1.922.626.246.745 1.426 1.499 2.623 1.675 3.186.469 4.048-2.688 1.334-4.886-2.753-2.229-2.774-3.261-.049-2.396 1.532.486 1.994.297 1.667-.683-.659-1.981-3.269-2.182-4.774-.369m6.991 3.006c-1.112 3.973-.485 8.127.718 4.758.246-.687 1.047-1.25 1.78-1.25.733 0 1.534.563 1.78 1.25 1.237 3.464 1.727-.728.512-4.375-1.911-5.732-3.262-5.84-4.79-.383M119 129c0 2.75.45 5 1 5s1-2.25 1-5-.45-5-1-5-1 2.25-1 5m4 0c0 5.248 2.629 6.971 5.8 3.8 3.028-3.028.732-8.8-3.5-8.8-2.093 0-2.3.449-2.3 5m12 0c0 2.75.45 5 1 5s1-.675 1-1.5.645-1.5 1.433-1.5c1.965 0 3.003-3.769 1.527-5.548-2.765-3.332-4.96-1.762-4.96 3.548m8.2-3.8c-1.671 1.671-1.5 6.306.287 7.789 2.267 1.881 6.374.413 7.116-2.545 1.124-4.475-4.318-8.329-7.403-5.244m8.8 3.8c0 4.802 1.929 7.368 2.068 2.75l.067-2.25 1.085 2.25c1.127 2.337 2.78 3.041 2.78 1.184 0-.586-.451-1.909-1.003-2.939-.67-1.252-.67-2.079 0-2.493 1.218-.753 1.34-3.502.156-3.502-.466 0-1.336 1.013-1.933 2.25l-1.085 2.25-.067-2.25c-.139-4.618-2.068-2.052-2.068 2.75m7.398-3.595c-1.43 3.726.05 8.089 2.852 8.411 1.512.174 2.75-.163 2.75-.75 0-.586-.675-1.066-1.5-1.066-1.818 0-1.984-1.607-.25-2.417 1-.466 1-.7 0-1.166-1.734-.81-1.568-2.417.25-2.417.825 0 1.5-.45 1.5-1 0-1.543-4.993-1.182-5.602.405m8.602.279c0 1.054.636 1.383 1.988 1.03 1.629-.427 2.18.195 3.056 3.448 1.161 4.312 3.021 4.665 4.026.764l.625-2.426.402 2.422c.888 5.339 4.869.729 4.897-5.672.011-2.358-1.956-1.25-2.663 1.5-.689 2.68-.721 2.691-1.269.441-.309-1.27-1.012-2.309-1.562-2.309s-1.273 1.039-1.606 2.309l-.607 2.309-.714-2.6c-.833-3.031-6.573-4.093-6.573-1.216M184 129c0 4.889.067 5 3 5 1.65 0 3-.45 3-1s-.9-1-2-1-2-.45-2-1 .675-1 1.5-1 1.5-.45 1.5-1-.675-1-1.5-1-1.5-.45-1.5-1 .927-1 2.059-1c1.132 0 1.781-.45 1.441-1-.34-.55-1.716-1-3.059-1-2.263 0-2.441.366-2.441 5m-59 0c0 2.089.425 3.025 1.25 2.75.688-.229 1.25-1.467 1.25-2.75s-.562-2.521-1.25-2.75c-.825-.275-1.25.661-1.25 2.75m12-1.5c0 .825.45 1.5 1 1.5s1-.675 1-1.5-.45-1.5-1-1.5-1 .675-1 1.5m7.362 0c-.795 2.072.284 4.5 2 4.5 1.95 0 2.927-2.947 1.533-4.627-1.486-1.79-2.816-1.742-3.533.127m-49.711 5.968c-.31.807-.133 1.734.393 2.059.526.325.956.376.956.114 0-.263.273-1.189.607-2.059.334-.87.157-1.582-.393-1.582s-1.254.661-1.563 1.468m71.025-.066c-.625 1.629.215 2.784 1.463 2.012 1.136-.702 1.111-3.414-.032-3.414-.491 0-1.135.631-1.431 1.402m169.991 3.265c-1.463 1.463-.739 3.637.789 2.369.801-.664 1.926-.918 2.5-.563.574.355 1.044-.057 1.044-.914 0-1.546-3.052-2.174-4.333-.892m-284 7c-1.081 1.081-.762 8.156.4 8.875.588.363 1.314-.285 1.617-1.441.699-2.675 3.316-2.754 3.316-.101 0 1.1.45 2 1 2s1-2.25 1-5-.45-5-1-5-1 .9-1 2c0 1.111-.667 2-1.5 2s-1.5-.889-1.5-2c0-1.992-1.066-2.601-2.333-1.333m9.491 3.199c-1.574 5.255-1.483 7.147.234 4.884.731-.963 1.679-1.75 2.108-1.75.429 0 1.377.787 2.108 1.75.964 1.27 1.337 1.37 1.36.366.065-2.832-2.326-9.116-3.468-9.116-.651 0-1.705 1.74-2.342 3.866M67 143.239c0 1.586 3.35 9.761 4 9.761.914 0 4.233-9.1 3.564-9.77-.889-.888-2.564.961-2.564 2.829 0 2.653-1.784 2.464-2.18-.231-.257-1.74-2.82-4.095-2.82-2.589M76 148c0 4.667.167 5 2.5 5 1.375 0 2.5-.45 2.5-1s-.675-1-1.5-1c-1.99 0-1.896-.979.25-2.608 1.667-1.265 1.667-1.33 0-1.36-2.126-.039-2.371-2.032-.25-2.032.825 0 1.5-.45 1.5-1s-1.125-1-2.5-1c-2.333 0-2.5.333-2.5 5m11.153-3.25c-2.715 5.184-2.344 10.141.487 6.5 1.296-1.665 1.413-1.664 2.422.021 1.939 3.237 2.7.838 1.189-3.75-1.596-4.847-2.64-5.554-4.098-2.771m9.514-1.083c-1.433 1.432-.685 8.389.969 9.024 3.538 1.357 6.363-3.804 4.62-8.441-.494-1.313-4.447-1.726-5.589-.583M104 148c0 2.75.45 5 1 5s1-2.25 1-5-.45-5-1-5-1 2.25-1 5m4.571-3.429c-1.966 1.967-1.98 3.4-.061 6.139 2.17 3.099 7.49 2.883 7.49-.303 0-2.737-1.738-4.069-3.287-2.52-.817.817-.741 1.113.287 1.113 1.093 0 1.136.264.193 1.207-.943.943-1.542.872-2.737-.322-2.213-2.213-.805-5.185 2.185-4.613 1.544.295 2.359-.02 2.359-.911 0-1.874-4.491-1.727-6.429.21m12.629-.371c-3.224 3.224-.689 8.8 4 8.8 2.444 0 2.8-.381 2.8-3 0-2.038-.495-3-1.544-3-.915 0-1.424.712-1.25 1.75.171 1.019-.332 1.75-1.206 1.75-.933 0-1.5-.944-1.5-2.5 0-1.949.495-2.483 2.25-2.421 1.245.044 2.25-.514 2.25-1.25 0-1.656-4.18-1.749-5.8-.129m8.87 2.488c-1.547 5.57-1.361 7.276.524 4.812 1.507-1.97 1.551-1.971 2.957-.073 2.193 2.959 2.816 1.174 1.241-3.552-1.843-5.528-3.408-5.921-4.722-1.187M137 148c0 5.144 1.908 7.173 2.116 2.25.071-1.692.292-2.077.573-1 .252.963.852 1.75 1.335 1.75.482 0 1.335-.787 1.896-1.75.871-1.496 1.024-1.351 1.05 1 .016 1.512.505 2.75 1.085 2.75 1.44 0 .77-9.237-.705-9.722-.632-.208-1.59.882-2.127 2.422l-.976 2.8-.732-2.75c-1.278-4.804-3.515-3.372-3.515 2.25m10.195-.25c.279 4.35.537 4.777 3.055 5.066 1.512.174 2.75-.163 2.75-.75 0-.586-.9-1.066-2-1.066s-2-.45-2-1 .675-1 1.5-1 1.5-.45 1.5-1-.675-1-1.5-1-1.5-.45-1.5-1 .9-1 2-1 2-.45 2-1-1.375-1-3.055-1c-3.02 0-3.051.053-2.75 4.75M156 144c0 .55.675 1 1.5 1 1.083 0 1.5 1.111 1.5 4 0 2.2.45 4 1 4s1-1.8 1-4c0-2.889.417-4 1.5-4 .825 0 1.5-.45 1.5-1s-1.8-1-4-1-4 .45-4 1m9.243.157c-1.583 1.583-1.608 6.078-.043 7.643 3.291 3.291 8.82-.986 7.214-5.58-1.057-3.025-5.058-4.176-7.171-2.063M174 148c0 4.654.171 5 2.477 5 3.923 0 6.25-4.242 4.115-7.5-3.104-4.738-6.592-3.415-6.592 2.5m9.983-2.456c-2.582 6.791-2.273 9.474.657 5.706 1.296-1.665 1.413-1.664 2.422.021 1.962 3.276 2.819.735 1.277-3.789-1.731-5.082-2.954-5.625-4.356-1.938m5.534-.794c.402.963 1.012 3.01 1.357 4.55.804 3.595 2.448 3.595 3.252.001.345-1.541.955-3.588 1.357-4.551.927-2.218-1.053-2.34-2.284-.141-.828 1.48-.951 1.48-1.519 0-.339-.885-1.129-1.609-1.756-1.609-.695 0-.854.68-.407 1.75M99 146.059c0 .582.45.781 1 .441s1-.816 1-1.059-.45-.441-1-.441-1 .477-1 1.059m67.667-.392c-1.05 1.05-.779 4.146.429 4.892 1.597.987 4.089-1.914 3.334-3.881-.655-1.708-2.556-2.218-3.763-1.011m9.333 2.416c0 3.826 2.356 3.483 2.816-.41.225-1.894-.139-2.673-1.25-2.673-1.083 0-1.566.951-1.566 3.083m190.701-1.451c-.385.386-.701 1.612-.701 2.726 0 1.943.054 1.95 1.348.18.833-1.139 1.838-1.541 2.63-1.052.853.528 1.127.328.819-.597-.52-1.56-3.024-2.328-4.096-1.257M99 150.059c0 .582.45.781 1 .441s1-.816 1-1.059-.45-.441-1-.441-1 .477-1 1.059m-2.345 12.77C93.8 165.983 95.781 172 99.674 172c3.952 0 5.522-7.049 2.103-9.443-2.808-1.967-3.11-1.951-5.122.272m29.234.515c-.388 7.559.928 9.661 4.56 7.282 4.341-2.845 3.171-7.573-2.199-8.888-1.789-.438-2.273-.109-2.361 1.606m9.766-.515c-2.855 3.154-.874 9.171 3.019 9.171 3.952 0 5.522-7.049 2.103-9.443-2.808-1.967-3.11-1.951-5.122.272m10.095-.749c-4.531 2.639-1.019 10.588 4.088 9.252 2.626-.686 3.109-5.332.555-5.332-1.018 0-1.396.55-1.031 1.5.391 1.02-.054 1.5-1.393 1.5-1.434 0-1.969-.68-1.969-2.5 0-2 .5-2.5 2.5-2.5 2.793 0 3.353-1.459.918-2.393-1.891-.726-1.53-.772-3.668.473m12.473.477c-4.153 2.908-1.029 10.878 3.49 8.906.983-.429 2.172-.693 2.642-.587.471.107 1.502-.343 2.293-.999 1.088-.903 1.718-.911 2.594-.035 2.173 2.173 2.632 1.161 1.401-3.092-1.505-5.195-3.71-5.51-5.111-.728-.941 3.212-1.296 3.474-4.032 2.99-4.07-.721-4.259-4.367-.25-4.828 3.038-.35 3.621-1.636 1.168-2.577-2.005-.769-1.615-.857-4.195.95m-106.065 3.309c-1.574 5.255-1.483 7.147.234 4.884.731-.963 1.679-1.75 2.108-1.75.429 0 1.377.787 2.108 1.75 1.7 2.24 1.828.361.339-5-1.341-4.829-3.322-4.781-4.789.116M59 166.5c0 3.358.385 4.5 1.519 4.5 1.133 0 1.37-.699.931-2.75l-.588-2.75 1.801 2.75c2.721 4.156 4.337 3.504 4.337-1.75 0-3.468-.369-4.5-1.608-4.5-1.24 0-1.466.631-.985 2.75.592 2.612.548 2.653-.892.809-.833-1.068-1.515-2.305-1.515-2.75 0-.445-.675-.809-1.5-.809-1.111 0-1.5 1.167-1.5 4.5m9 .031c0 5.288 1.708 6.546 5.508 4.056 4.515-2.959 2.74-8.587-2.708-8.587-2.655 0-2.8.235-2.8 4.531m12.192.138c.334 5.224 2.271 6.725 5.07 3.927 2.532-2.533.834-8.019-2.605-8.418-2.726-.317-2.767-.241-2.465 4.491m7.808-.235c0 2.511.45 4.566 1 4.566s1.01-.787 1.022-1.75c.018-1.429.366-1.304 1.895.686l1.873 2.437-.145-4.937c-.135-4.6-.332-4.958-2.895-5.252-2.645-.305-2.75-.142-2.75 4.25m17.245-.184c1.308 5.391 2.631 6.939 3.404 3.983.748-2.857 1.954-2.857 2.702 0 .773 2.956 2.096 1.408 3.404-3.983.841-3.461.773-4.25-.361-4.25-.835 0-1.426 1.103-1.473 2.75l-.079 2.75-1.004-2.75c-.553-1.512-1.38-2.75-1.838-2.75-.458 0-1.285 1.238-1.838 2.75l-1.004 2.75-.079-2.75c-.047-1.647-.638-2.75-1.473-2.75-1.134 0-1.202.789-.361 4.25m11.755.25c0 2.475.45 4.5 1 4.5s1-1 1-2.223v-2.222l1.557 2.222c2.373 3.389 3.443 2.681 3.443-2.277 0-2.475-.45-4.5-1-4.5s-1.018 1.238-1.04 2.75l-.04 2.75-1.492-2.75c-2.176-4.011-3.428-3.372-3.428 1.75m56 0c0 2.475.45 4.5 1 4.5s1.007-.787 1.015-1.75c.013-1.498.157-1.534 1-.25.876 1.333 1.094 1.333 1.97 0 .843-1.284.987-1.248 1 .25.008.963.69 1.75 1.515 1.75 1.645 0 1.818-1.159.875-5.875-.731-3.657-2.101-4.04-3.258-.912l-.819 2.213-1.184-2.213c-1.875-3.504-3.114-2.594-3.114 2.287m10.195.241c.237 3.684.719 4.82 2.161 5.094 3.015.573 4.392-1.623 1.653-2.636-1.951-.722-2.06-.965-.669-1.499 2.19-.84 2.13-2.683-.09-2.763-1.341-.049-1.224-.275.5-.968 3.108-1.249 2.814-1.969-.805-1.969-3.019 0-3.051.054-2.75 4.741M70 166.5c0 1.982.439 2.562 1.75 2.31.963-.186 1.75-1.225 1.75-2.31s-.787-2.124-1.75-2.31c-1.311-.252-1.75.328-1.75 2.31m20-1.5c0 .55.45 1 1 1s1-.45 1-1-.45-1-1-1-1 .45-1 1m7.364.493c-.346.903-.15 2.121.436 2.707 1.524 1.524 4.41.131 4.012-1.935-.443-2.302-3.647-2.858-4.448-.772m30.636.924c0 1.68.549 2.583 1.57 2.583 1.042 0 1.462-.729 1.25-2.172-.472-3.201-2.82-3.544-2.82-.411m8.364-.924c-.346.903-.15 2.121.436 2.707 1.524 1.524 4.41.131 4.012-1.935-.443-2.302-3.647-2.858-4.448-.772M82 168c0 .55.702 1 1.559 1s1.281-.45.941-1c-.34-.55-1.041-1-1.559-1s-.941.45-.941 1m159.667 10.667c-1.268 1.268-.665 2.576.675 1.464.738-.612 1.638-.818 2-.456.362.362.658.133.658-.508 0-1.257-2.241-1.593-3.333-.5m-190.269 2.738c-.296.772-.395 2.91-.218 4.75.571 5.965 7.82 4.813 7.82-1.242 0-4.079-6.272-6.973-7.602-3.508m10.352-.325c-2.133 1.242-2.325 6.198-.305 7.874 4.271 3.545 9.83-2.783 6.082-6.924-2.045-2.26-3.201-2.45-5.777-.95m8.033-.53c-.998.999 1.582 9.45 2.885 9.45.733 0 1.332-.675 1.332-1.5s.45-1.5 1-1.5 1 .675 1 1.5.619 1.5 1.375 1.5c1.315 0 2.625-4.083 2.625-8.184 0-2.643-1.973-1.244-2.106 1.493-.096 1.964-.219 1.906-1.193-.559-1.415-3.58-2.181-3.469-3.454.5-1.013 3.157-1.046 3.173-1.145.559-.098-2.598-1.296-4.281-2.319-3.259m11.652 2.942c-.36 1.921-.394 4.171-.076 5 .875 2.283 2.641 1.805 2.641-.715v-2.222l1.557 2.222C87.986 191.246 89 190.429 89 185c0-2.75-.45-5-1-5s-1.002 1.463-1.004 3.25l-.003 3.25-1.982-3.25c-2.484-4.074-2.769-4.055-3.576.242m11.571-2.242c.028 6.401 4.009 11.011 4.897 5.672l.402-2.422.625 2.426c1.299 5.042 5.035.855 5.064-5.676.011-2.326-1.772-1.268-2.529 1.5-.738 2.698-.764 2.706-1.359.441-.333-1.27-1.056-2.309-1.606-2.309s-1.253 1.039-1.562 2.309c-.548 2.25-.58 2.239-1.269-.441-.707-2.75-2.674-3.858-2.663-1.5M105 185c0 2.75.45 5 1 5s1-2.25 1-5-.45-5-1-5-1 2.25-1 5m3-3.969c0 .568.675 1.291 1.5 1.607.926.356 1.5 1.875 1.5 3.969 0 1.866.45 3.393 1 3.393s1-1.827 1-4.059c0-2.451.396-3.814 1-3.441.55.34 1-.084 1-.941 0-1.115-.997-1.559-3.5-1.559-1.925 0-3.5.464-3.5 1.031m8.75-.459c-1.124 1.141-.904 9.428.25 9.428.55 0 1-.9 1-2 0-1.111.667-2 1.5-2s1.5.889 1.5 2 .667 2 1.5 2c1.108 0 1.5-1.16 1.5-4.441 0-4.74-1.77-7.153-2.684-3.66-.71 2.715-3.083 2.719-3.496.006-.176-1.152-.658-1.752-1.07-1.333m11.917.095c-1.425 1.424-.718 9.333.833 9.333.833 0 1.5-.889 1.5-2 0-1.1.45-2 1-2s1-.45 1-1-.75-1-1.667-1c-.916 0-1.329-.338-.916-.75.412-.412 1.237-.75 1.833-.75.596 0 1.271-.562 1.5-1.25.438-1.313-3.861-1.806-5.083-.583M135 185c0 4.667.167 5 2.5 5 1.375 0 2.5-.45 2.5-1s-.675-1-1.5-1c-1.083 0-1.5-1.111-1.5-4 0-2.2-.45-4-1-4s-1 2.25-1 5m6.709-4.376c-.39.39-.709 2.659-.709 5.043 0 4.289.036 4.333 3.514 4.333 1.932 0 4.421-.562 5.53-1.25 1.378-.854 2.245-.918 2.737-.202.395.576 2.193 1.147 3.994 1.268 4.189.281 5.513-2.355 2.434-4.848-2.234-1.809-1.997-3.208.389-2.292.771.296 1.402.026 1.402-.6 0-1.954-3.078-2.427-4.771-.733-1.488 1.488-1.438 1.805.634 4.011l2.251 2.396h-2.436c-1.963 0-2.662-.753-3.597-3.875-1.481-4.942-2.692-4.906-4.199.125-1.127 3.761-5.882 6.186-5.882 3 0-.55.675-1 1.5-1s1.5-.45 1.5-1-.75-1-1.667-1c-.916 0-1.329-.338-.916-.75.412-.412 1.162-.75 1.666-.75.505 0 1.03-.45 1.167-1 .294-1.176-3.508-1.909-4.541-.876M164 181.838c0 1.322.585 1.899 1.75 1.728.963-.141 1.75-.883 1.75-1.648 0-.765-.787-1.542-1.75-1.728-1.192-.229-1.75.296-1.75 1.648m69.015-.088c.009.999.336 1.321.762.75.41-.55 1.154-1.338 1.651-1.75.498-.412.155-.75-.761-.75-.927 0-1.66.777-1.652 1.75M54 185.115c0 1.994.433 2.909 1.25 2.64 1.87-.616 2.095-4.409.303-5.096-1.195-.459-1.553.108-1.553 2.456m8.362-1.615c-.82 2.136.303 4.5 2.138 4.5 2.12 0 3.006-2.685 1.489-4.513-1.574-1.897-2.896-1.893-3.627.013m200.097 4.567c-.363.586-.445 1.281-.183 1.543s.743-.218 1.069-1.067c.676-1.762.1-2.072-.886-.476M162 189c0 .55.45 1 1 1s1-.45 1-1-.45-1-1-1-1 .45-1 1m200.75 3.689c-2.018.528-2.396 3.311-.45 3.311 1.441 0 3.7-1.954 3.7-3.2 0-.841-.403-.855-3.25-.111M258 194.393c0 .216.675.652 1.5.969.825.316 1.5.139 1.5-.393 0-.533-.675-.969-1.5-.969s-1.5.177-1.5.393m112 .452c0 1.243 3.915 4.573 4.587 3.901.951-.95-1.547-4.746-3.122-4.746-.806 0-1.465.38-1.465.845m-81.921 1.738c.048 1.165.285 1.402.604.605.289-.722.253-1.585-.079-1.917-.332-.332-.568.258-.525 1.312m76.021 2.23c-.804 1.503-.628 2.304.788 3.585 2.561 2.318 5.302 1.05 4.916-2.276-.384-3.311-4.168-4.179-5.704-1.309m-6.41-.17c-1.021 1.021-.837 5.148.26 5.826 1.765 1.091 3.424-3.523 1.838-5.109-.774-.774-1.718-1.097-2.098-.717m14.926 4.495c-2.002 2.858-2.041 3.862-.151 3.862 1.968 0 4.031-3.904 2.743-5.192-.636-.636-1.541-.171-2.592 1.33m-78.537 2.112c-.043.963-.467 1.75-.94 1.75-.474 0-.637 1.175-.363 2.611.439 2.296.242 2.529-1.638 1.933-1.272-.404-2.138-.247-2.138.389 0 .587.675 1.067 1.5 1.067 1.808 0 1.933 1.167.3 2.8-.933.933-.698 1.2 1.059 1.2 1.242 0 1.995-.427 1.673-.949-.323-.521-.078-2.969.544-5.439s.895-5.081.606-5.802c-.342-.855-.552-.702-.603.44M261 207.893c0 1.041-.775 2.19-1.722 2.554-1.475.566-1.511.794-.25 1.591 3.261 2.063 7.298-1.735 4.907-4.616-1.644-1.981-2.935-1.773-2.935.471m100.406-.741c-.744 1.204 2.115 3.848 4.163 3.848 2.565 0 3.677-2.798 1.561-3.93-2.599-1.391-4.833-1.359-5.724.082m-97.154 6.057c-2.849 2.85-3.122 2.922-5.386 1.439-1.476-.967-2.909-1.239-3.76-.714-.758.469-2.752.454-4.45-.033-3.779-1.083-4.979-.037-4.078 3.553.664 2.645.871 2.723 5.805 2.18 2.814-.31 9.021-.855 13.793-1.211 7.109-.53 8.572-.916 8.104-2.136-.314-.819-.01-1.836.675-2.259.805-.498-.341-1.312-3.227-2.296l-4.474-1.524-3.002 3.001m13.553 2.916c-1.942 1.191.722 1.561 6.195.861 3.025-.388 5.05-.83 4.5-.984-2.034-.57-9.71-.481-10.695.123m126.874 20.625c-1.633 1.633-7.73 1.783-91.131 2.25-49.16.275-89.607.725-89.882 1-.677.677 173.042.184 176.834-.501 2.937-.531 9.007-4.433 6.964-4.477-.569-.012-1.823.765-2.785 1.728" fill-rule="evenodd"/><path fill="#4d8871" stroke="#4d8871" d="M0 134.002v134.002l219.25-.252 219.25-.252.254-133.75L439.007 0H0v134.002m.486.498c0 73.7.119 103.702.264 66.672.145-37.03.145-97.33 0-134S.486 60.8.486 134.5M18.643 25.202c-.339 1.264-.622 2.561-.629 2.882-.008.321 4.373.546 9.736.5 5.362-.046 9.638-.421 9.5-.834-.138-.413-.25-1.2-.25-1.75s-.9-1-2-1-2-.45-2-1-.45-1-1-1-1 .563-1 1.25c0 .811-1.55 1.25-4.417 1.25-2.429 0-4.341-.423-4.25-.941.383-2.157-3.103-1.551-3.69.643m20.537 38.48c-1.827.9-4.527 3.217-6 5.149l-2.68 3.513V229.5l2.288 3.679c1.344 2.162 4.055 4.535 6.574 5.754l4.286 2.075h177.6c185.121.001 180.845.1 185.597-4.325 6.189-5.762 6.085-3.264 5.356-128.785-.226-38.827-.113-38.227-8.146-43.64l-3.398-2.29-87.724.266c-83.929.254-87.813.347-89.78 2.127-2.008 1.818-2.117 1.812-4.739-.25L215.73 62l-86.615.023c-78.147.02-86.94.183-89.935 1.659m283.415 20.796c-4.429 2.385-5.704 4.543-5.121 8.665.455 3.217.233 3.714-1.897 4.248-3.715.933-13.175 10.146-15.634 15.227-5.759 11.897 1.878 29.631 18.799 43.654 7.065 5.855 21.416 13.41 27.245 14.342 3.385.541 4.014.927 2.915 1.788-1.252.981-4.214 7.598-3.401 7.598.18 0 1.666-2.175 3.302-4.834l2.974-4.834-3.388-3.026c-4.073-3.637-4.204-5.184-.781-9.252 6.605-7.849 17.93-8.273 22.523-.842 2.531 4.095 3.761-13.661 1.539-22.212-1.149-4.42-1.117-4.536 1.83-6.533 4.449-3.014 4.773-9.348.687-13.434-3.832-3.832-7.481-4.726-10.694-2.621-2.443 1.601-2.623 1.525-9.242-3.94-3.713-3.066-9.259-6.788-12.324-8.273l-5.574-2.699.433-4.067c.811-7.625-7.235-12.703-14.191-8.955M51 107c0 .55.9 1 2 1s2-.45 2-1-.9-1-2-1-2 .45-2 1m5.452 2.598c1.083 5.771 3.548 7.358 3.548 2.284 0-1.1.45-1.722 1-1.382.55.34 1 1.491 1 2.559 0 1.92 1.445 2.648 2.35 1.183 1.222-1.977 1.879-8.502.788-7.828-.626.387-1.138 1.604-1.138 2.704s-.45 1.722-1 1.382c-.55-.34-1-1.491-1-2.559 0-3.039-1.603-2.277-2.753 1.309-1.013 3.157-1.046 3.173-1.145.559-.056-1.48-.614-3.008-1.24-3.395-.821-.507-.935.381-.41 3.184m11.467-2.848c-.776 7.162-.192 8.618 3.194 7.964l2.387-.46-2.25-.744c-2.669-.882-2.987-2.497-.5-2.54 1.667-.029 1.667-.079 0-1.05-2.397-1.396-2.195-2.695.5-3.214 1.929-.372 1.858-.453-.5-.57-1.513-.075-2.787.202-2.831.614m10.653 1.956c-.367 1.537-.91 3.61-1.207 4.607-.481 1.615-.309 1.67 1.578.5 1.78-1.104 2.264-1.078 3.033.158 1.617 2.599 2.108.44.796-3.499-1.573-4.723-3.319-5.457-4.2-1.766M85 110.434c0 2.511.45 4.566 1 4.566s1-.675 1-1.5c0-1.949.982-1.907 2.453.105.962 1.315 1.162.819 1.11-2.75-.058-3.989-.294-4.382-2.813-4.671-2.645-.305-2.75-.142-2.75 4.25m8 .066c0 4.133.204 4.5 2.5 4.5 3.107 0 3.347-1.978.25-2.059-1.999-.052-2.063-.185-.577-1.196 1.564-1.063 1.564-1.218 0-2.372-1.513-1.117-1.434-1.331.827-2.241l2.5-1.005-2.75-.064c-2.602-.06-2.75.179-2.75 4.437m10.25-3.811c1.297.339 1.75 1.488 1.75 4.443 0 2.192.39 3.745.866 3.451.476-.294.635-1.741.353-3.215-.357-1.871.043-3.086 1.326-4.024 1.647-1.205 1.429-1.332-2.104-1.228-2.167.064-3.154.322-2.191.573M110 110.5c0 2.475.45 4.5 1 4.5s1-.9 1-2c0-2.88 3.733-2.663 4.294.25.239 1.237.466 0 .506-2.75.058-3.927-.121-4.517-.831-2.75-1.125 2.798-3.969 2.977-3.969.25 0-1.1-.45-2-1-2s-1 2.025-1 4.5m9-.469c0 4.221 1.336 5.548 4.692 4.66 1.58-.419 1.524-.57-.442-1.202-2.689-.863-2.921-2.167-.5-2.8 1.667-.435 1.667-.463 0-.573-.963-.064-1.75-.758-1.75-1.543 0-.784.787-1.632 1.75-1.884 1.077-.281.692-.502-1-.573-2.564-.108-2.75.156-2.75 3.915m10.607-2.449c-.964 2.512-.704 7.418.393 7.418.55 0 1.052-1.237 1.116-2.75.071-1.692.292-2.077.573-1 .252.963.852 1.75 1.335 1.75.482 0 1.335-.787 1.896-1.75.871-1.496 1.024-1.351 1.05 1 .016 1.513.48 2.75 1.03 2.75 1.156 0 1.252-1.492.375-5.875-.771-3.856-1.906-3.99-3.168-.375l-.96 2.75-.732-2.75c-.819-3.076-1.994-3.549-2.908-1.168m10.679 2.918c.008 2.75.202 3.756.432 2.236.229-1.52.223-3.77-.014-5-.237-1.23-.425.014-.418 2.764m3.914-3.3c-3.062 3.062-.632 7.8 4 7.8 2.32 0 2.8-.429 2.8-2.5 0-1.63-.56-2.5-1.607-2.5-1.002 0-1.395.553-1.044 1.468.862 2.246-1.48 3.074-2.962 1.047-1.817-2.486-.017-5.85 2.674-4.996 1.092.347 1.939.15 1.939-.452 0-1.453-4.313-1.354-5.8.133m7.981 2.814c.03 2.208.452 4.259.937 4.559.485.3.882-.382.882-1.514 0-2.931 3.725-2.765 4.294.191.239 1.237.434 0 .434-2.75s-.195-3.987-.434-2.75c-.561 2.913-4.294 3.13-4.294.25 0-1.1-.422-2-.937-2-.516 0-.913 1.806-.882 4.014m9.569-3.352c.701.283 1.25 2.224 1.25 4.421 0 2.154.45 3.917 1 3.917s1-1.8 1-4c0-3.217.36-4 1.839-4 1.886 0 4.607 4.469 3.657 6.006-.291.471-.071 1.138.488 1.484.565.349 1.016-.302 1.016-1.466 0-1.152.727-3.204 1.615-4.559.917-1.4 1.155-2.465.55-2.465-.586 0-1.508.787-2.048 1.75-.936 1.667-1.015 1.667-1.657 0-.515-1.336-1.771-1.731-5.317-1.671-2.554.043-4.08.306-3.393.583M87 108.5c0 .917.484 1.505 1.075 1.308.591-.197 1.075-.785 1.075-1.308s-.484-1.111-1.075-1.308c-.591-.197-1.075.391-1.075 1.308m-34.443 17.723c-2.757 3.936-1.338 7.039 3.368 7.365 2.638.183 3.075-.128 3.075-2.188 0-1.547-.576-2.4-1.622-2.4-1.373 0-1.419.246-.298 1.596 1.158 1.396 1.017 1.553-1.128 1.25-3.875-.547-3.445-5.149.548-5.864 2.459-.44 2.67-.667 1.168-1.259-2.784-1.099-3.423-.911-5.111 1.5m13.426.321c-.532 1.399-1.226 3.762-1.543 5.25-.55 2.58-.504 2.617.976.787 1.53-1.893 1.583-1.893 3.718 0l2.165 1.919-.657-2.706c-.96-3.949-2.51-7.794-3.142-7.794-.302 0-.985 1.145-1.517 2.544m14.414-1.377c-.283.458.187.833 1.044.833 1.156 0 1.559 1.049 1.559 4.059 0 2.451.396 3.814 1 3.441.55-.34 1-2.166 1-4.059 0-1.893.45-3.441 1-3.441s1-.375 1-.833c0-.459-1.37-.834-3.044-.834s-3.276.375-3.559.834m8.508.448c-1.147 1.381-1.02 1.873.877 3.41 2.782 2.252 2.777 2.738-.032 3.23-2.041.357-2.08.469-.422 1.206 3.334 1.483 5.721-2.14 2.922-4.436-2.644-2.169-2.84-3.025-.691-3.025.857 0 1.281-.45.941-1-.888-1.436-2.059-1.236-3.595.615m16 0c-1.147 1.381-1.02 1.873.877 3.41 2.759 2.234 2.799 2.975.159 2.975-1.132 0-1.781.45-1.441 1 1.004 1.625 4.232 1.142 4.954-.741.436-1.137-.048-2.321-1.393-3.411-2.648-2.144-2.602-2.844.189-2.863 1.819-.013 1.963-.201.75-.985-2.051-1.325-2.547-1.251-4.095.615m8.183.679c-.59 1.537-1.331 4.012-1.648 5.5-.55 2.58-.504 2.617.976.787 1.523-1.884 1.591-1.884 3.643-.028 2.084 1.886 2.089 1.882 1.378-1.08-.393-1.635-1.29-4.098-1.995-5.473l-1.282-2.5-1.072 2.794m10.579-1.627c-1.471 1.47-.713 9.333.899 9.333 2.935 0 5.434-2.053 5.434-4.464 0-3.752-4.212-6.99-6.333-4.869m12.034-.035c-.385.386-.701 2.705-.701 5.153v4.452l3.224-3.152c2.613-2.555 3.019-3.477 2.143-4.868-1.185-1.881-3.562-2.688-4.666-1.585m7.87.939c-1.865 1.865-2.054 5.546-.371 7.229 3.672 3.672 9.294-1.87 6.392-6.3-1.885-2.877-3.78-3.169-6.021-.929m12.121.652c-1.325 1.901-1.596 1.988-1.64.527-.119-3.978-2.052-1.388-2.052 2.75 0 2.475.45 4.5 1 4.5s1.01-1.012 1.022-2.25l.022-2.25L156 132c2.104 2.69 2.652 2.086.965-1.066-.725-1.354-.701-2.559.081-4.02 1.566-2.926.562-3.439-1.354-.691m4.975-1.556c-.367.366-.667 2.616-.667 5 0 3.955.218 4.333 2.5 4.333 1.375 0 2.5-.45 2.5-1s-.9-1-2-1-2-.45-2-1 .675-1 1.5-1 1.5-.45 1.5-1-.675-1-1.5-1-1.5-.45-1.5-1 .927-1 2.059-1c1.132 0 1.781-.45 1.441-1-.704-1.14-2.841-1.325-3.833-.333m7.333.864c0 .808.675 1.469 1.5 1.469s1.5-.402 1.5-.893-.675-1.152-1.5-1.469c-.914-.35-1.5-.001-1.5.893m16.398-.126c-1.276 3.325.056 8.088 2.352 8.415 1.238.175 2.25-.162 2.25-.75 0-.589-.675-1.07-1.5-1.07-2.121 0-1.876-1.993.25-2.032 1.667-.03 1.667-.095 0-1.36-2.146-1.629-2.24-2.608-.25-2.608.825 0 1.5-.45 1.5-1 0-1.537-3.992-1.186-4.602.405M61 129.559c0 2.785.389 4.319 1 3.941.55-.34 1-2.391 1-4.559S62.55 125 62 125s-1 2.052-1 4.559m11-.059c0 2.475.45 4.5 1 4.5s1.002-1.238 1.005-2.75l.005-2.75 2.459 3 2.459 3 .036-4.75c.021-2.831-.412-4.75-1.072-4.75-.694 0-.875 1.029-.485 2.75l.624 2.75-2.099-2.75C72.978 123.879 72 124.314 72 129.5m25-3.5c0 .55.675 1 1.5 1s1.5-.45 1.5-1-.675-1-1.5-1-1.5.45-1.5 1m22 3.5c0 2.475.45 4.5 1 4.5s1-2.025 1-4.5-.45-4.5-1-4.5-1 2.025-1 4.5m54.081-.75c.479 2.063.882 4.088.895 4.5.062 1.935 2.063.445 2.674-1.992l.688-2.743.915 2.743c.827 2.482 2.712 3.837 2.771 1.992.013-.412.416-2.437.895-4.5.994-4.284-.311-5.182-1.454-1-.738 2.698-.764 2.706-1.359.441-.333-1.27-1.056-2.309-1.606-2.309s-1.273 1.039-1.606 2.309c-.595 2.265-.621 2.257-1.359-.441-1.143-4.182-2.448-3.284-1.454 1m-48.163-2.583c-1.111 4.504-.858 5.833 1.114 5.833 1.689 0 2.039-.524 1.784-2.673-.25-2.115-2.54-4.612-2.898-3.16M137 127.5c0 .825.45 1.5 1 1.5s1-.675 1-1.5-.45-1.5-1-1.5-1 .675-1 1.5m7.141-.17c-1.699 2.048-.305 4.836 2.236 4.473 1.514-.216 2.123-1.017 2.123-2.789 0-2.853-2.566-3.844-4.359-1.684m-77.062 1.253c.048 1.165.285 1.402.604.605.289-.722.253-1.585-.079-1.917-.332-.332-.568.258-.525 1.312m47 0c.048 1.165.285 1.402.604.605.289-.722.253-1.585-.079-1.917-.332-.332-.568.258-.525 1.312M95 133.559c0 .857.45 1.281 1 .941.55-.34 1-1.041 1-1.559s-.45-.941-1-.941-1 .702-1 1.559m71 0c0 .857.45 1.281 1 .941.55-.34 1-1.041 1-1.559s-.45-.941-1-.941-1 .702-1 1.559m104.25 3.546c-3.137 1.553-4.25 2.7-4.25 4.377 0 4.168 2.193 4.819 8.619 2.561 7.292-2.563 10.567-2.691 9.68-.379-.44 1.145-.261 1.431.572.916.666-.412.956-1.551.644-2.532-.311-.981-.116-2.968.435-4.416l1-2.632-6.225.001c-4.313 0-7.531.647-10.475 2.104m64.739-.084c-1.47 2.747-.282 4.415 1.72 2.413 1.162-1.162 1.775-1.269 2.311-.401.547.885.908.892 1.441.03.852-1.379-1.161-4.063-3.048-4.063-.739 0-1.829.909-2.424 2.021M52.252 147.5c-.011 2.75.186 4.213.437 3.25.558-2.132 4.311-2.35 4.311-.25 0 .825.45 1.5 1 1.5s1-1.773 1-3.941-.45-4.219-1-4.559c-.55-.34-1 .309-1 1.441 0 2.931-3.725 2.765-4.294-.191-.239-1.238-.443 0-.454 2.75m9.919-2.413C60.166 150.44 59.887 152 60.933 152c.587 0 1.067-.45 1.067-1 0-1.443 2.75-1.233 3.28.25 1.056 2.957 1.621-.25.588-3.338-1.617-4.837-2.649-5.625-3.697-2.825M67 143.48c0 1.454 3.343 8.52 4.031 8.52 1.104 0 3.251-6.709 2.643-8.259-.268-.682-.81.222-1.206 2.009-.898 4.062-2.035 4.163-2.818.25-.479-2.393-2.65-4.458-2.65-2.52m9 3.961c0 4.743 1.062 6.155 3.798 5.047 1.449-.586 1.331-.845-.798-1.74-2.053-.864-2.187-1.128-.75-1.474 1.85-.445 2.453-2.274.75-2.274-.55 0-1-.45-1-1s.675-1 1.5-1 1.5-.45 1.5-1-1.125-1-2.5-1c-2.291 0-2.5.371-2.5 4.441m11.132-2.251c-1.965 5.249-2.24 6.81-1.199 6.81.587 0 1.067-.45 1.067-1 0-1.663 2.83-1.121 3.92.75 1.319 2.265 1.334.705.037-3.964-1.288-4.639-2.702-5.598-3.825-2.596m10.06 2.405c.33 5.084 1.399 6.186 4.048 4.168 2.503-1.905.988-8.147-2.085-8.59-2.123-.306-2.251-.018-1.963 4.422m7.475-3.928c-1.062 1.062-.771 8.333.333 8.333.55 0 1-2.025 1-4.5 0-4.578-.152-5.015-1.333-3.833m4.533.533c-3.467 3.467-.061 9.361 4.691 8.118 2.435-.636 2.645-4.32.291-5.096-.83-.273-1.201.239-1 1.386.455 2.602-2.849 3.016-3.661.458-.88-2.773.104-4.066 3.097-4.066 1.412 0 2.231-.435 1.882-1-.847-1.371-3.842-1.258-5.3.2m12 0c-2.766 2.766.128 9.655 3.511 8.358.799-.307 1.897-.558 2.44-.558.544 0 .844-1.012.669-2.25-.176-1.238-.77-2.108-1.32-1.934-.55.173-.868.961-.706 1.75.418 2.04-2.545 1.782-3.624-.316-1.32-2.568-.342-4.25 2.472-4.25 1.396 0 2.206-.436 1.858-1-.847-1.371-3.842-1.258-5.3.2m10.031.443c-.525 1.021-1.253 3.105-1.618 4.631-.627 2.621-.544 2.704 1.493 1.5 1.717-1.015 2.247-1.02 2.608-.024 1.088 3.004 2.028.891 1.112-2.5-1.302-4.826-2.402-5.929-3.595-3.607m6.399.607c-.924 3.447-.743 6.75.37 6.75.55 0 1.014-1.012 1.03-2.25.028-2.065.118-2.1 1.089-.43 1.024 1.759 1.104 1.759 2.438 0 1.304-1.72 1.381-1.696 1.411.43.018 1.238.538 2.25 1.157 2.25.727 0 .904-1.106.5-3.125-.344-1.719-.625-3.744-.625-4.5 0-2.439-1.761-1.461-2.478 1.375l-.694 2.75-1.446-2.75c-1.751-3.331-1.982-3.372-2.752-.5m10.037-1.583c-.367.366-.667 2.405-.667 4.531 0 4.144 1.654 5.618 4.75 4.233 1.535-.687 1.474-.831-.5-1.176-2.707-.474-2.817-1.104-.5-2.863 1.667-1.265 1.667-1.33 0-1.36-2.126-.039-2.371-2.032-.25-2.032.825 0 1.5-.45 1.5-1 0-1.117-3.296-1.371-4.333-.333M157 144c0 .55.45 1 1 1s1 1.575 1 3.5.45 3.5 1 3.5 1-1.413 1-3.14c0-1.817.737-3.699 1.75-4.468 1.555-1.18 1.332-1.332-2-1.36-2.062-.018-3.75.418-3.75.968m8.2.2c-2.351 2.351-.387 8.8 2.68 8.8 1.244 0 3.809-2.408 4.405-4.135 1.318-3.82-4.258-7.492-7.085-4.665m8.8 3.331c0 5.006 1.473 6.356 4.922 4.511 4.127-2.209 2.146-9.042-2.622-9.042-2.062 0-2.3.47-2.3 4.531m10.215-1.781c-1.933 5.174-2.151 6.25-1.267 6.25.487 0 1.089-.562 1.338-1.25.362-.999.881-.997 2.583.008 2.545 1.503 2.699.536.682-4.29-1.748-4.184-2.019-4.242-3.336-.718m5.888-.558c.645 1.205 1.522 3.342 1.949 4.75.633 2.086.792 2.184.862.531.047-1.116.807-3.057 1.688-4.315 1.951-2.785.957-4.299-1.041-1.585-1.324 1.798-1.463 1.81-2.097.177-.373-.963-1.096-1.75-1.606-1.75-.511 0-.401.986.245 2.192M98 146c0 .55.675 1 1.5 1s1.5-.45 1.5-1-.675-1-1.5-1-1.5.45-1.5 1m68.176 1.671c.235 2.054.872 2.829 2.324 2.829 3.078 0 2.78-4.889-.324-5.329-2.021-.287-2.282.04-2 2.5M176 148c0 3.281 1.072 3.823 2.989 1.513 1.507-1.816.636-4.513-1.458-4.513-1.034 0-1.531.973-1.531 3m-112.921-.417c.048 1.165.285 1.402.604.605.289-.722.253-1.585-.079-1.917-.332-.332-.568.258-.525 1.312m25 0c.048 1.165.285 1.402.604.605.289-.722.253-1.585-.079-1.917-.332-.332-.568.258-.525 1.312m44 0c.048 1.165.285 1.402.604.605.289-.722.253-1.585-.079-1.917-.332-.332-.568.258-.525 1.312m53 0c.048 1.165.285 1.402.604.605.289-.722.253-1.585-.079-1.917-.332-.332-.568.258-.525 1.312m180.525.007c-.883 2.301.294 3.739 1.941 2.372.752-.624 1.837-.844 2.411-.489.596.368 1.044-.238 1.044-1.414 0-2.533-4.456-2.92-5.396-.469m-266.965 1.104c-1.126 1.126-.685 2.306.861 2.306.825 0 1.5-.423 1.5-.941 0-1.261-1.562-2.164-2.361-1.365m190.593 2.056c-2.589 3.739-3.43 5.25-2.924 5.25.234 0 1.617-1.8 3.073-4 2.959-4.471 2.83-5.552-.149-1.25m-3.557 8.968c-.265.43-1.426 4.754-2.578 9.609-2.388 10.057-2.019 16.246 1.026 17.212 1.032.328 1.877 1.178 1.877 1.89 0 1.773 12.066 4.722 13.737 3.358 1.615-1.319 4.263-.274 4.263 1.682 0 .842-.375 1.531-.833 1.531-.997 0-.879 3.039.184 4.759.992 1.605-3.978 6.598-5.851 5.879-1.417-.543-4.575 7.63-3.811 9.862.677 1.976 7.213 5.651 9.478 5.329 3.044-.433 3.619-3.714 1.006-5.745-1.471-1.143-1.89-2.325-1.505-4.248l.532-2.664 9.358.559c8.882.529 9.635.413 14.784-2.283l5.426-2.84 6.331 1.76 6.332 1.76 2.035-2.755c2.326-3.149 3.398-6.306 2.759-8.123-.604-1.72-3.714-1.571-5.225.25-1.366 1.645-4.739 1.951-6.84.62-1.084-.687-.934-1.642.788-5.018 3.449-6.761 4.175-9.086 2.654-8.503-2.092.803-25.822-9.095-41.273-17.216-7.794-4.096-14.388-7.095-14.654-6.665m82.98 2.111c-2.201 2.432-2.087 4.47.375 6.698 4.525 4.095 10.77-2.585 6.453-6.901-2.139-2.139-4.78-2.06-6.828.203M53.208 164c-1.982 5.265-2.319 7-1.359 7 .542 0 1.188-.562 1.437-1.25.357-.985.936-.964 2.728.099 2.027 1.201 2.205 1.165 1.631-.332-.355-.924-.645-2.233-.645-2.908 0-.675-.641-2.1-1.425-3.168-1.385-1.886-1.452-1.87-2.367.559m6.978 2.5c.071 3.147.274 3.92.546 2.087l.432-2.914 2.382 2.914 2.382 2.913-.114-5c-.071-3.147-.274-3.92-.546-2.087l-.432 2.914-2.382-2.914-2.382-2.913.114 5m8.814 0c0 4.144.2 4.5 2.521 4.5 1.684 0 2.881-.789 3.603-2.374 1.484-3.255-.378-6.626-3.659-6.626-2.255 0-2.465.384-2.465 4.5m11.709-3.876c-.39.39-.709 2.464-.709 4.609 0 3.664.166 3.881 2.75 3.583 2.489-.286 2.75-.696 2.75-4.316 0-3.914-2.628-6.039-4.791-3.876m7.291 3.81c0 4.162 1.958 6.876 2.032 2.816.03-1.667.095-1.667 1.36 0 1.942 2.558 2.239 2.215 2.17-2.5-.057-3.875-.305-4.278-2.812-4.566-2.645-.305-2.75-.142-2.75 4.25m8.2-3.234c-1.543 1.543-1.543 5.057 0 6.6 3.633 3.633 9.33-1.073 6.868-5.674-1.251-2.337-4.957-2.837-6.868-.926m9.269 2.292c1.015 5.686 3.531 8.186 3.531 3.508 0-1.1.45-2 1-2s1 .9 1 2c0 1.968 1.434 2.726 2.35 1.242 1.222-1.977 1.879-8.502.788-7.828-.626.387-1.184 1.915-1.24 3.395-.099 2.614-.132 2.598-1.145-.559-.573-1.787-1.371-3.25-1.773-3.25-.401 0-1.079 1.463-1.506 3.25-.732 3.066-.801 3.108-1.21.75-.238-1.375-.9-2.95-1.47-3.5-.713-.688-.814.246-.325 2.992M117 166.559c0 2.904.378 4.325 1.041 3.916.572-.354.775-1.618.45-2.809-.52-1.909-.313-1.84 1.747.584 3.188 3.751 3.762 3.484 3.762-1.75 0-4.9-1.645-6.193-2.227-1.75l-.361 2.75-1.366-2.75c-1.99-4.005-3.046-3.378-3.046 1.809m9-.059c0 4.743 2.777 6.323 5.8 3.3 2.881-2.881.674-7.8-3.5-7.8-2.059 0-2.3.471-2.3 4.5m9.2-3.3c-.66.66-1.2 2.145-1.2 3.3 0 4.715 6.205 6.339 8.124 2.126 2.141-4.697-3.35-9-6.924-5.426m10 0c-3.086 3.086-.627 7.8 4.07 7.8 3.111 0 3.766-3.837.821-4.808-.96-.317-1.213.047-.794 1.14.902 2.349-1.379 3.276-2.91 1.183-1.817-2.486-.017-5.85 2.674-4.996 1.092.347 1.939.15 1.939-.452 0-1.453-4.313-1.354-5.8.133m11.732.926c-2.049 3.83.255 6.891 5.044 6.704 2.213-.087 4.024-.534 4.024-.994 0-1.329 3.78-.968 4.338.414 1.034 2.563.644-2.004-.436-5.101-1.449-4.158-2.574-3.974-3.959.646-.968 3.23-1.532 3.77-3.79 3.629-4.127-.258-4.153-.276-4.153-2.924 0-2.362.857-2.95 3.75-2.575.688.09 1.25-.307 1.25-.881 0-1.976-4.899-1.102-6.068 1.082m16.204 2.624c.075 2.613.331 3.738.57 2.5.518-2.689 1.809-2.921 2.787-.5.615 1.522.844 1.425 1.762-.75l1.054-2.5.727 3c.639 2.637.742 2.425.846-1.75.12-4.829-1.228-6.385-2.382-2.75-.349 1.1-1.002 2-1.451 2-.449 0-1.051-.9-1.339-2-1.014-3.878-2.712-2.064-2.574 2.75m9.864-.25c0 4.271.14 4.494 2.75 4.384 1.692-.071 2.077-.292 1-.573-.963-.252-1.75-1.067-1.75-1.811s.787-1.559 1.75-1.811c1.667-.435 1.667-.463 0-.573-.963-.064-1.75-.777-1.75-1.585 0-.894.586-1.243 1.5-.893.825.317 1.5.078 1.5-.531S186.875 162 185.5 162c-2.296 0-2.5.367-2.5 4.5m-112.342-2.825c-1.489 1.49-.701 6.555.924 5.932.87-.334 1.77-.607 2-.607.23 0 .418-.845.418-1.878 0-2.086-2.315-4.474-3.342-3.447m11.925.191c-.431.697-.513 1.537-.183 1.867.895.895 1.871-.421 1.387-1.871-.338-1.016-.574-1.016-1.204.004m7.417.575c0 .857.45 1.559 1 1.559s1-.423 1-.941-.45-1.219-1-1.559c-.55-.34-1 .084-1 .941m8.25-.71c-1.438.501-1.699 4.874-.34 5.713 1.71 1.057 4.09-.655 4.09-2.944 0-2.365-1.575-3.528-3.75-2.769m29.348.005c-1.899 1.899-.268 6.458 2 5.588.771-.296 1.402-1.567 1.402-2.824 0-2.211-2.183-3.984-3.402-2.764m9.652-.018c-1.439.516-1.698 4.887-.34 5.726 1.541.953 4.09-.561 4.09-2.429 0-2.135-2.026-3.917-3.75-3.297M167 166c0 .55.45 1 1 1s1-.45 1-1-.45-1-1-1-1 .45-1 1m-85 2.5c0 .917.484 1.505 1.075 1.308.591-.197 1.075-.786 1.075-1.308s-.484-1.111-1.075-1.308c-.591-.197-1.075.391-1.075 1.308m178.5 6.5c-.34.55-.168 1 .382 1s1.278-.45 1.618-1c.34-.55.168-1-.382-1s-1.278.45-1.618 1m94.039.063c.361.585-.027 1.822-.864 2.75-2.341 2.597 2.689 9.687 6.873 9.687 4.899 0 4.618-4.371-.608-9.442-3.881-3.767-6.919-5.451-5.401-2.995M242 176.73c-.825.31-1.878 1.205-2.341 1.99-.712 1.208-1.127 1.166-2.724-.279-1.749-1.582-2.062-1.588-4.374-.073-1.37.898-3.883 1.632-5.585 1.632-1.808 0-2.837.416-2.476 1 .34.55 1.661 1 2.937 1 1.275 0 2.878.675 3.563 1.5 1.722 2.075 4.748 1.877 6.172-.405 1.065-1.704 1.419-1.754 3.369-.476 1.942 1.272 2.441 1.214 4.569-.533 3.378-2.771.984-6.893-3.11-5.356m-1.376 2.808c-.337.878.051 1.784.906 2.112 1.544.592 4.47-1.222 4.47-2.772 0-1.531-4.76-.946-5.376.66m-8.457.761c-1.268 1.528-.591 2.701 1.559 2.701.808 0 1.089-.491.669-1.17-.493-.798-.167-.957 1.025-.499 1.162.446 1.608.251 1.331-.58-.602-1.807-3.244-2.067-4.584-.452M61.473 182.03c-3.871 4.277 1.353 10.247 5.601 6.403 2.454-2.221 2.435-3.924-.074-6.433-2.504-2.504-3.237-2.5-5.527.03m94.432-.415c-1.147 1.381-1.02 1.873.877 3.41 2.593 2.099 2.804 2.975.718 2.975-.825 0-1.5.45-1.5 1 0 1.675 4.019 1.114 4.698-.656.402-1.047-.16-2.3-1.531-3.41-2.483-2.011-2.863-3.415-.699-2.585.807.31 1.705.18 1.994-.288.29-.468-.183-1.124-1.05-1.456-2.091-.803-1.976-.836-3.507 1.01m193.059.549c-1.145 2.233-1.118 2.26.61.61.994-.95 1.533-2.001 1.197-2.336-.335-.335-1.148.442-1.807 1.726M52 185.434c0 4.214.194 4.566 2.521 4.566 5.614 0 5.732-8.147.128-8.816-2.525-.302-2.649-.103-2.649 4.25m18.1-2.743c.177 3.221 1.375 6.427 2.4 6.427.55 0 1.274-1.039 1.61-2.309.596-2.26.634-2.247 1.787.604 1.421 3.515 2.678 2.552 3.664-2.808.516-2.805.397-3.697-.423-3.191-.626.387-1.186 1.69-1.244 2.895-.096 1.964-.219 1.906-1.193-.559-.598-1.512-1.363-2.75-1.701-2.75-.338 0-1.103 1.238-1.701 2.75-.974 2.465-1.097 2.523-1.193.559-.058-1.205-.556-2.469-1.106-2.809-.55-.34-.955.196-.9 1.191m12.032 3.059c.125 4.523.162 4.583.783 1.25l.652-3.5 1.759 3.283c.968 1.805 2.19 3.016 2.717 2.691C89.317 188.686 89.278 181 88 181c-.55 0-1.012 1.238-1.027 2.75l-.026 2.75-1.705-2.75c-2.444-3.941-3.26-3.416-3.11 2m11.949-1c.479 2.063.882 4.088.895 4.5.062 1.935 2.063.445 2.674-1.992l.688-2.743.915 2.743c1.165 3.495 2.351 3.493 3.186-.008.361-1.512.89-3.537 1.176-4.5.286-.963.039-1.75-.548-1.75-.587 0-1.067.873-1.067 1.941 0 2.816-1.799 3.497-2.179.824-.406-2.862-2.13-2.611-2.927.426-.595 2.265-.621 2.257-1.359-.441-1.143-4.182-2.448-3.284-1.454 1m10.919.75c0 2.475.45 4.5 1 4.5s1-2.025 1-4.5-.45-4.5-1-4.5-1 2.025-1 4.5m4.25-3.811c1.297.339 1.75 1.488 1.75 4.443 0 2.403.397 3.741 1 3.368.55-.34 1-2.129 1-3.976 0-1.846.563-3.584 1.25-3.862.688-.277-.55-.487-2.75-.467-2.2.02-3.213.243-2.25.494m7.547-.11c-.908 1.572-.712 7.355.27 7.963.513.317.933-.351.933-1.483 0-2.931 3.725-2.765 4.294.191.239 1.238.466 0 .506-2.75.058-3.927-.121-4.517-.831-2.75-1.145 2.848-2.8 2.882-3.837.079-.441-1.194-1.042-1.757-1.335-1.25m12.339 4.171c.075 2.613.331 3.738.57 2.5.241-1.251 1.179-2.264 2.114-2.28 1.53-.028 1.524-.122-.07-1.05-2.397-1.396-2.195-2.695.5-3.214 1.929-.372 1.858-.453-.5-.57-2.651-.131-2.745.035-2.614 4.614m5.864-.25c0 4.133.204 4.5 2.5 4.5 1.375 0 2.5-.45 2.5-1s-.675-1-1.5-1c-1.048 0-1.5-1.056-1.5-3.5 0-1.925-.45-3.5-1-3.5s-1 2.025-1 4.5m6.193-.25c.255 3.533.687 4.304 2.557 4.57 1.238.175 2.25-.162 2.25-.75 0-.589-.675-1.07-1.5-1.07-2.121 0-1.876-1.993.25-2.032 1.667-.03 1.667-.095 0-1.36-.963-.731-1.75-1.583-1.75-1.895 0-.311.787-.772 1.75-1.024 1.054-.275.633-.503-1.057-.573-2.7-.112-2.796.047-2.5 4.134m7.905-1.101c-1.08 3.097-1.47 7.664-.436 5.101.278-.687 1.33-1.25 2.338-1.25s2.06.563 2.338 1.25c.326.808.532.683.583-.351.113-2.282-1.965-7.899-2.921-7.899-.442 0-1.298 1.417-1.902 3.149M164 182c0 .55.675 1 1.5 1s1.5-.45 1.5-1-.675-1-1.5-1-1.5.45-1.5 1m-110.312.646c-1.634 1.634-.676 5.354 1.378 5.354 1.653 0 2.003-.536 1.75-2.673-.316-2.674-1.835-3.975-3.128-2.681m9.013-.014c-1.806 1.806-.701 5.507 1.549 5.188 1.644-.234 2.25-.989 2.25-2.806 0-2.414-2.315-3.865-3.799-2.382m160.954 2.197c-1.112 1.229-1.617 3.442-1.539 6.75.064 2.706.341 4.021.616 2.921.275-1.1 1.01-2.331 1.634-2.735.813-.526.78-.739-.116-.75-1.729-.021-1.565-3.12.307-5.792 1.884-2.69 1.376-2.912-.902-.394M150 185c0 .55.45 1 1 1s1-.45 1-1-.45-1-1-1-1 .45-1 1m12 4c0 .55.45 1 1 1s1-.45 1-1-.45-1-1-1-1 .45-1 1m101.5 0c-.34.55-.141 1 .441 1s1.059-.45 1.059-1-.198-1-.441-1-.719.45-1.059 1m11.48 3.524c-1.838 2.215-.792 2.47 1.27.309.962-1.008 1.355-1.833.872-1.833-.482 0-1.446.686-2.142 1.524M362 194c-1.333.862-1.333.969 0 .969.825 0 2.175-.436 3-.969 1.333-.862 1.333-.969 0-.969-.825 0-2.175.436-3 .969m8.609 1.423c.595 1.551 3.391 2.991 3.391 1.746 0-.995-2.174-3.169-3.169-3.169-.422 0-.523.64-.222 1.423M289.5 196c-.34.55-.141 1 .441 1s1.059-.45 1.059-1-.198-1-.441-1-.719.45-1.059 1m-16.461 1.295c-.021.988 1.086 2.921 2.461 4.296 1.375 1.375 2.507 3.267 2.515 4.204.013 1.467.151 1.495.985.205 1.419-2.196 1.235-2.79-1.088-3.528-1.149-.365-2.706-2.082-3.461-3.817-.851-1.955-1.388-2.472-1.412-1.36m91.551 1.332c-.725 1.887 1.017 4.373 3.064 4.373 2.319 0 2.872-3.142.817-4.645-2.405-1.758-3.121-1.708-3.881.272m-141.923.04c-.367.366-.667 3.486-.667 6.932 0 5.488.261 6.349 2.101 6.933 2.436.773 3.438-.054 4.277-3.532.332-1.375.345-1.937.029-1.25-1.755 3.823-5.956-1.558-5.206-6.669.488-3.325.468-3.417-.534-2.414m134.777 1.618c-.94 2.45.604 4.38 1.798 2.247.639-1.142.603-2.087-.106-2.796-.761-.761-1.25-.602-1.692.549m-72.777 1.382c-.367.366-.667 1.131-.667 1.7 0 .626.466.567 1.183-.15.651-.651.951-1.416.667-1.7-.284-.285-.817-.217-1.183.15m88.516 1.55c-1.41 1.41-1.567 3.783-.25 3.783.982 0 2.541-3.859 1.842-4.559-.225-.224-.941.125-1.592.776m-109.108 2.736c-.958.593-.917.894.182 1.315.783.301 1.984.201 2.668-.221.958-.593.917-.894-.182-1.315-.783-.301-1.984-.201-2.668.221m7.675 1.024c1.916 2.181 1.492 3.231-1 2.478-1.608-.486-1.956-.368-1.219.414 1.516 1.607 7.983 2.772 7.055 1.271-.398-.645-1.213-.871-1.81-.502s-.801.212-.454-.35c.347-.561-.371-1.856-1.596-2.878-1.224-1.021-1.663-1.216-.976-.433m90.474 1.196c.512 1.534 4.761 1.823 4.807.327.017-.55-1.157-1.147-2.609-1.327-1.844-.228-2.507.073-2.198 1M277.5 210c.34.55.816 1 1.059 1s.441-.45.441-1-.477-1-1.059-1-.781.45-.441 1m13.5 0c0 .55.477 1 1.059 1s.781-.45.441-1-.816-1-1.059-1-.441.45-.441 1m-13.75 4.031c-2.221.893-3.19 3.969-1.25 3.969.55 0 1-.513 1-1.14 0-.627.788-1.737 1.75-2.468 2.025-1.537 1.65-1.627-1.5-.361m10.741.458c.68.819 1.683 1.213 2.229.875.604-.373.461-.951-.363-1.474-2.157-1.366-3.216-1.027-1.866.599M222 223c0 .55.477 1 1.059 1s.781-.45.441-1-.816-1-1.059-1-.441.45-.441 1" fill-rule="evenodd"/><path fill="#f8f3ea" stroke="#f8f3ea" d="M377 8c0 .55.477 1 1.059 1s.781-.45.441-1-.816-1-1.059-1-.441.45-.441 1M19.813 22.683c.721.289 1.584.253 1.916-.079.332-.332-.258-.568-1.312-.525-1.165.048-1.402.285-.604.604m-2.734 3.9c.048 1.165.285 1.402.604.605.289-.722.253-1.585-.079-1.917-.332-.332-.568.258-.525 1.312m21 0c.048 1.165.285 1.402.604.605.289-.722.253-1.585-.079-1.917-.332-.332-.568.258-.525 1.312m348.364.835c-1.067.78-1.716 1.642-1.441 1.914.274.273 1.56-.365 2.859-1.418 2.715-2.202 1.497-2.628-1.418-.496m-363.71 1.706c.679.684 1.486.991 1.793.683.308-.308-.247-.867-1.233-1.243-1.425-.542-1.54-.428-.56.56m4.12.129c.504.504 1.981.749 3.282.544 2.001-.315 1.861-.455-.916-.916-1.988-.329-2.921-.183-2.366.372m-8.04.43c.721.289 1.584.253 1.916-.079.332-.332-.258-.568-1.312-.525-1.165.048-1.402.285-.604.604M382.5 37c.34.55.816 1 1.059 1s.441-.45.441-1-.477-1-1.059-1-.781.45-.441 1m-238.687.683c.721.289 1.584.253 1.916-.079.332-.332-.258-.568-1.312-.525-1.165.048-1.402.285-.604.604m48.187.258c0 .518.445 1.216.989 1.552.566.35.734-.051.393-.941-.665-1.732-1.382-2.049-1.382-.611M389.5 42c.34.55.816 1 1.059 1s.441-.45.441-1-.477-1-1.059-1-.781.45-.441 1M341 52.941c0 .518.445 1.216.989 1.552.566.35.734-.051.393-.941-.665-1.732-1.382-2.049-1.382-.611m-188.187 7.742c.721.289 1.584.253 1.916-.079.332-.332-.258-.568-1.312-.525-1.165.048-1.402.285-.604.604M33.946 66.75 30.5 70.5l3.75-3.446c2.063-1.896 3.75-3.583 3.75-3.75 0-.764-.846-.044-4.054 3.446m375.77 2.397 2.784 4.206.279 76.573c.314 86.368.615 82.603-7.04 88.148-2.222 1.609-3.704 2.926-3.293 2.926 1.52 0 6.547-4.181 8.764-7.29l2.29-3.21.512-77 .512-77 .238 78.102.238 78.102-2.25 3.297c-5.083 7.446 1.145 6.999-97.484 6.999-48.546 0-88.267-.338-88.269-.75-.002-.412-2.477-.75-5.5-.75-3.024 0-5.497.338-5.497.75s-39.683.75-88.184.75c-100.301 0-93.891.538-99.382-8.337-1.707-2.759-2.339-3.32-1.874-1.663 1.21 4.307 4.586 8.162 8.841 10.095 6.403 2.907 365.795 2.907 372.198 0 4.093-1.859 7.545-5.68 8.807-9.749.509-1.641 1.002-115.708.651-150.452-.049-4.807-.55-6.251-3.511-10.13-1.899-2.488-3.27-4.707-3.045-4.931.224-.225-.487-.967-1.58-1.65-1.635-1.022-1.494-.495.795 2.964M29.476 152c0 42.625.123 60.063.274 38.75.15-21.312.15-56.187 0-77.5-.151-21.312-.274-3.875-.274 38.75m293.905-67.518c-4.395 1.848-5.714 4-5.128 8.369.481 3.584.307 3.906-2.689 4.99-7.631 2.759-15.83 12.712-17.12 20.783-2.934 18.355 25.347 47.913 49.483 51.717l3.351.528-3.726-3.816c-3.686-3.774-3.709-3.849-2.14-6.883 4.367-8.444 15.057-11.538 21.627-6.259l3.971 3.192 1.115-2.802c1.084-2.723.04-17.65-1.596-22.811-.501-1.583-.01-2.247 2.31-3.123 5.655-2.135 5.051-11.821-.93-14.914-3.573-1.848-6.9-1.848-9.537-.001-1.913 1.34-2.335 1.178-5.472-2.101-4.309-4.502-13.306-10.668-18.053-12.372-3.3-1.184-3.554-1.529-2.623-3.571 3.174-6.967-5.238-14.124-12.843-10.926m.19 5.089c-3 3.001-.846 8.429 3.345 8.429.976 0 2.519-.823 3.429-1.829 4.232-4.676-2.316-11.057-6.774-6.6M52 107c-1.282.828-1.246.972.25.985.962.008 1.75-.435 1.75-.985 0-1.22-.113-1.22-2 0m4.006-.25c.003.412.477 2.449 1.054 4.526 1.059 3.816 2.94 4.242 2.94.665 0-1.068.45-1.941 1-1.941s1-.9 1-2c0-3.169-1.677-2.324-2.48 1.25l-.729 3.25-.924-3.25c-.842-2.962-1.875-4.349-1.861-2.5m8.379 2.074c-.346 1.729-1.024 2.899-1.507 2.601-.483-.299-.878.132-.878.957s.429 1.765.953 2.089c1.026.634 3.55-7.301 2.62-8.232-.308-.307-.842.856-1.188 2.585M68 110.5c0 4.034.233 4.488 2.25 4.384 1.693-.087 1.817-.229.5-.573-.963-.252-1.75-1.067-1.75-1.811s.787-1.559 1.75-1.811c1.667-.435 1.667-.463 0-.573-.963-.064-1.75-.758-1.75-1.543 0-.784.787-1.632 1.75-1.884 1.317-.344 1.193-.486-.5-.573-2.017-.104-2.25.35-2.25 4.384m11.109-2.25c-2.395 6.401-2.422 6.963-.278 5.623 1.636-1.022 2.325-.988 3.732.179 1.576 1.308 1.658 1.216.948-1.06-1.452-4.651-2.46-6.992-3.011-6.992-.302 0-.928 1.013-1.391 2.25m6.586-1.557c-.717 1.172-.294 7.041.569 7.905.405.404.746-.352.758-1.681l.022-2.417 1.791 2.328 1.791 2.328-.063-4.328c-.061-4.162-3.214-6.84-4.868-4.135M93 110.5c0 4.258.148 4.497 2.75 4.437 2.643-.061 2.663-.099.5-.968-2.687-1.08-2.926-2.646-.5-3.28 1.667-.435 1.667-.463 0-.573-2.546-.169-2.146-2.901.5-3.41 1.929-.372 1.858-.453-.5-.57-2.613-.129-2.75.089-2.75 4.364m10.196-3.821c1.166.307 1.814 1.754 2.075 4.634l.38 4.187.174-4.177c.128-3.042.65-4.301 1.925-4.634.963-.251-.05-.457-2.25-.457s-3.237.201-2.304.447m8.076 3.821c0 2.75.195 3.987.434 2.75.264-1.372 1.159-2.25 2.294-2.25s2.03.878 2.294 2.25c.239 1.237.434 0 .434-2.75s-.195-3.987-.434-2.75c-.264 1.372-1.159 2.25-2.294 2.25s-2.03-.878-2.294-2.25c-.239-1.237-.434 0-.434 2.75m8.728 0c0 4.034.233 4.488 2.25 4.384 1.693-.087 1.817-.229.5-.573-.963-.252-1.75-1.067-1.75-1.811s.787-1.559 1.75-1.811c1.667-.435 1.667-.463 0-.573-.963-.064-1.75-.758-1.75-1.543 0-.784.787-1.632 1.75-1.884 1.317-.344 1.193-.486-.5-.573-2.017-.104-2.25.35-2.25 4.384m10-3.125c0 .756-.295 2.851-.656 4.655-.471 2.357-.331 3.08.5 2.566.636-.393 1.17-1.7 1.186-2.905.029-2.091.081-2.104 1.143-.275 1.081 1.862 1.15 1.863 2.469.058 1.268-1.733 1.358-1.677 1.358.835 0 1.48.498 2.691 1.107 2.691s.834-.712.5-1.582c-.334-.87-.607-2.895-.607-4.5 0-3.69-1.561-3.796-2.478-.168l-.694 2.75-1.446-2.75c-1.591-3.026-2.382-3.482-2.382-1.375m10.286 3.125c.008 2.75.202 3.756.432 2.236.229-1.52.223-3.77-.014-5-.237-1.23-.425.014-.418 2.764m3.914-3.3c-3.053 3.053-.335 8.241 3.995 7.627 2.426-.344 3.313-3.824 1.158-4.543-.631-.21-1.081.428-1 1.417.185 2.262-2.287 2.351-3.686.133-1.372-2.175.963-5.164 3.513-4.497 1.001.262 1.82.068 1.82-.431 0-1.328-4.4-1.106-5.8.294m9.072 3.3c0 2.75.195 3.987.434 2.75.264-1.372 1.159-2.25 2.294-2.25s2.03.878 2.294 2.25c.239 1.237.434 0 .434-2.75s-.195-3.987-.434-2.75c-.264 1.372-1.159 2.25-2.294 2.25s-2.03-.878-2.294-2.25c-.239-1.237-.434 0-.434 2.75m8.849-3.492c1.072.626 1.504 1.957 1.275 3.926-.191 1.638.092 3.25.629 3.581.571.353.975-1.044.975-3.373 0-2.245.544-4.195 1.25-4.48.688-.277-.325-.526-2.25-.553-2.665-.037-3.113.178-1.879.899m7.353 1.942c.839 1.623 1.572 3.761 1.628 4.75.057.99.451.45.877-1.2.425-1.65 1.091-3.9 1.479-5 .689-1.953.669-1.955-.849-.097-1.403 1.719-1.616 1.744-2.188.25-.349-.909-1.048-1.653-1.554-1.653-.505 0-.232 1.328.607 2.95M87 108.5c0 .917.484 1.505 1.075 1.308.591-.197 1.075-.785 1.075-1.308s-.484-1.111-1.075-1.308c-.591-.197-1.075.391-1.075 1.308m-7.362 1c-.347.905-.005 1.5.862 1.5s1.209-.595.862-1.5c-.317-.825-.705-1.5-.862-1.5-.157 0-.545.675-.862 1.5m285.827 8.902c-1.739 1.271-1.679 1.542 1.203 5.462 2.899 3.941 3.106 4.043 4.683 2.301 2.126-2.349 2.092-4.475-.101-6.358-2.989-2.566-3.895-2.787-5.785-1.405m-312.488 7.621c-2.436 2.436-2.456 3.164-.165 5.993 1.328 1.64 2.397 2.053 4 1.544 2.144-.681 3.181-4.56 1.219-4.56-.532 0-.731.617-.442 1.371.732 1.909-2.189 2.816-3.598 1.118-1.764-2.125-.77-4.833 2.014-5.491 2.119-.501 2.228-.693.722-1.271-1.134-.436-2.484.03-3.75 1.296m35.928-.408c-1.147 1.381-1.02 1.873.877 3.41 2.804 2.27 2.797 2.967-.032 3.005-2.092.029-2.12.107-.394 1.109 3.175 1.845 5.546-1.386 2.765-3.768-2.512-2.15-2.715-3.371-.562-3.371.857 0 1.281-.45.941-1-.888-1.436-2.059-1.236-3.595.615m17.345-.897c-1.744.626-1.565 3.947.25 4.644 2.041.783 1.901 2.638-.2 2.638-1.328 0-1.436.264-.493 1.207.943.943 1.589.814 2.95-.589 1.66-1.711 1.636-1.87-.507-3.329-2.7-1.84-2.869-3.02-.5-3.489.963-.191 1.3-.613.75-.939-.55-.325-1.562-.389-2.25-.143m37.692 1.128c-1.712 1.386-2.089 2.433-1.59 4.419 1.34 5.34 7.648 4.225 7.648-1.352 0-3.963-3.046-5.506-6.058-3.067M61.272 129c0 2.475.195 3.488.434 2.25.238-1.238.238-3.263 0-4.5-.239-1.237-.434-.225-.434 2.25m4.902-2.25c-.494.963-1.191 3.1-1.551 4.75-.583 2.678-.506 2.812.722 1.25.756-.963 1.726-1.75 2.155-1.75.429 0 1.415.787 2.192 1.75 1.286 1.594 1.351 1.527.726-.75-1.938-7.069-2.779-8.11-4.244-5.25m5.981 2.25c-.147 2.498.198 4 .921 4 .695 0 .966-.998.679-2.5-.558-2.919.826-3.395 1.716-.59 1.529 4.817 3.534 4.498 3.379-.538-.09-2.919-.317-3.77-.566-2.122-.518 3.419-1.618 3.508-3.102.25-1.651-3.623-2.757-3.074-3.027 1.5m9.595-3.338c.688.278 1.25 2.042 1.25 3.921 0 1.88.36 3.417.799 3.417.44 0 .62-1.533.402-3.408-.313-2.676-.001-3.51 1.45-3.884 1.017-.262.274-.493-1.651-.513-1.925-.02-2.937.19-2.25.467m31.424 1.088c-1.435 2.799-2.452 8.162-1.138 6 .585-.963 1.554-1.75 2.153-1.75.6 0 1.726.787 2.503 1.75 1.286 1.594 1.351 1.527.726-.75-1.938-7.069-2.779-8.11-4.244-5.25M119 129c0 2.2.45 4 1 4s1-1.8 1-4-.45-4-1-4-1 1.8-1 4m4-.059c0 4.353 1.014 5.507 4.007 4.557 4.562-1.448 3.211-8.498-1.629-8.498-2.102 0-2.378.458-2.378 3.941m12 .064c0 3.569.201 3.956 1.465 2.816.806-.726 2.18-1.924 3.054-2.66 2.179-1.838 1.363-3.598-1.846-3.977-2.518-.298-2.673-.076-2.673 3.821m17-.005c0 2.258.482 4 1.107 4 .609 0 .848-.675.531-1.5-.875-2.28 1.136-1.791 2.408.586.614 1.147 1.341 1.86 1.616 1.585.275-.275-.002-1.438-.616-2.585-.8-1.495-.813-2.653-.046-4.086.604-1.128.666-2 .142-2-.51 0-1.187.675-1.504 1.5-.316.825-1.025 1.5-1.575 1.5s-.741-.675-.425-1.5c.317-.825.078-1.5-.531-1.5-.625 0-1.107 1.742-1.107 4m8.193.241c.224 3.094.78 4.332 2.057 4.574.963.182 1.75-.151 1.75-.742 0-.59-.675-1.073-1.5-1.073-2.121 0-1.876-1.993.25-2.032 1.667-.03 1.667-.095 0-1.36-.963-.731-1.75-1.583-1.75-1.895 0-.311.787-.772 1.75-1.024 1.285-.335 1.137-.488-.557-.573-2.111-.106-2.282.246-2 4.125m13.035-.241c1.183 4.659 2.451 5.129 3.42 1.268l.685-2.733 1.154 3.427c.635 1.885 1.412 3.002 1.727 2.483 1.186-1.958 2.592-8.445 1.83-8.445-.437 0-1.122 1.463-1.524 3.25l-.729 3.25-.972-3.435c-1.005-3.552-2.77-2.769-2.804 1.244-.008.995-.465 1.531-1.015 1.191-.55-.34-1-1.716-1-3.059 0-1.343-.402-2.441-.894-2.441-.504 0-.451 1.741.122 4m11.498-3.25c-1.382 2.644-.097 7.768 2.024 8.07 1.238.175 2.25-.162 2.25-.75 0-.589-.675-1.07-1.5-1.07-1.818 0-1.984-1.607-.25-2.417 1-.466 1-.7 0-1.166-1.79-.836-1.541-2.194.5-2.728 1.351-.353 1.251-.483-.441-.573-1.205-.064-2.367.222-2.583.634M124 129c0 2.277.456 3 1.893 3 2.121 0 3.342-2.225 2.469-4.5-1.111-2.894-4.362-1.775-4.362 1.5m12-1.5c0 .825.675 1.5 1.5 1.5s1.5-.675 1.5-1.5-.675-1.5-1.5-1.5-1.5.675-1.5 1.5m7.659-.053c-1.31 3.413 2.181 6.656 4.35 4.042.636-.766 1.002-2.202.813-3.191-.435-2.285-4.365-2.933-5.163-.851M66.638 128.5c-.316.825-.139 1.5.393 1.5.533 0 .969-.675.969-1.5s-.177-1.5-.393-1.5c-.216 0-.652.675-.969 1.5m47 0c-.316.825-.139 1.5.393 1.5.533 0 .969-.675.969-1.5s-.177-1.5-.393-1.5c-.216 0-.652.675-.969 1.5m-18.179 4.567c-.363.586-.445 1.281-.183 1.543s.743-.218 1.069-1.067c.676-1.762.1-2.072-.886-.476m71.208-.4c-.367.366-.667 1.131-.667 1.7 0 .626.466.567 1.183-.15.651-.651.951-1.416.667-1.7-.284-.285-.817-.217-1.183.15m105.936 3.81c-5.133 1.829-6.98 3.758-6.138 6.411.804 2.536 3.785 2.741 8.881.612 1.974-.825 4.677-1.5 6.005-1.5 1.442 0 2.619-.705 2.919-1.75.277-.963.827-2.537 1.224-3.5.922-2.242-6.902-2.408-12.891-.273m62.635-.315c-1.667 1.667-1.559 3.327.318 4.885 1.273 1.056 1.501 1.055 1.25-.003-.168-.712.257-1.5.945-1.753.85-.311 1.03.128.562 1.375-.612 1.633-.497 1.679 1.048.422.955-.777 1.601-2.352 1.437-3.5-.344-2.411-3.712-3.274-5.56-1.426M52.2 147.5c-.058 3.927.121 4.517.831 2.75.498-1.238 1.384-2.25 1.969-2.25.585 0 1.441 1.012 1.9 2.25.71 1.912.897 1.611 1.244-2 .225-2.338.059-4.25-.368-4.25s-.776.675-.776 1.5c0 2.454-3.805 1.79-4.294-.75-.239-1.238-.466 0-.506 2.75m10.015-1.75c-1.933 5.174-2.151 6.25-1.267 6.25.487 0 1.089-.562 1.338-1.25.359-.99.914-.977 2.671.063 2.387 1.413 2.382.98-.066-5.563-1.084-2.899-1.43-2.834-2.676.5m14.452-2.083c-.367.366-.667 2.391-.667 4.5 0 3.548.205 3.823 2.75 3.697 2.358-.117 2.429-.198.5-.57-2.695-.519-2.897-1.818-.5-3.214 1.667-.971 1.667-1.021 0-1.05-.963-.016-1.75-.48-1.75-1.03s.648-1 1.441-1 1.719-.45 2.059-1c.681-1.101-2.766-1.401-3.833-.333m9.988 3.833c-1.296 3.802-.693 6.906.631 3.25.359-.99.914-.977 2.671.063 2.387 1.413 2.382.98-.066-5.563-1.164-3.112-1.485-2.888-3.236 2.25m11.046-3.868c-.385.386-.701 2.426-.701 4.535 0 3.376.285 3.833 2.393 3.833 2.793 0 3.452-1.357 2.663-5.488-.545-2.848-2.857-4.378-4.355-2.88m11.499.568c-2.973 2.973-.104 9.111 3.782 8.094 2.001-.523 2.922-4.294 1.049-4.294-.532 0-.709.675-.393 1.5.401 1.045-.072 1.5-1.562 1.5-1.177 0-2.421-.736-2.767-1.636-.903-2.353 1.111-4.906 3.641-4.615 1.236.141 1.901-.181 1.549-.75-.846-1.37-3.842-1.256-5.299.201m12.371.371c-3.299 3.3-.039 8.887 4.494 7.702 2.246-.588 2.648-4.273.466-4.273-.894 0-1.243.586-.893 1.5.396 1.031-.061 1.5-1.464 1.5-2.804 0-3.995-3.927-1.699-5.605.946-.692 2.424-.987 3.286-.656 1.034.396 1.321.203.844-.569-1.008-1.631-3.173-1.459-5.034.401m9.538.679c-2.448 6.543-2.453 6.976-.066 5.563 1.757-1.04 2.312-1.053 2.671-.063 1.324 3.656 1.927.552.631-3.25-1.751-5.138-2.072-5.362-3.236-2.25m6.891-1.075c0 .866-.281 2.981-.625 4.7-.365 1.824-.211 3.125.369 3.125 1.374 0 2.429-7.227 1.23-8.426-.632-.632-.974-.421-.974.601m4.891 1.164c-.651 1.429-1.568 2.361-2.037 2.071-1.02-.631-1.157 1.954-.156 2.955.384.384 1.268-.329 1.965-1.584l1.266-2.281.036 2.75c.019 1.512.442 2.75.94 2.75.794 0 .345-7.887-.505-8.879-.179-.209-.858.79-1.509 2.218M148 147.5c0 4.034.233 4.488 2.25 4.384 1.693-.087 1.817-.229.5-.573-.963-.252-1.75-1.067-1.75-1.811s.787-1.559 1.75-1.811c1.667-.435 1.667-.463 0-.573-2.129-.141-2.362-2.116-.25-2.116.825 0 1.5-.45 1.5-1s-.9-1-2-1c-1.704 0-2 .667-2 4.5m9-3.433c0 .513.648.933 1.44.933.927 0 1.579 1.335 1.832 3.75l.392 3.75.168-3.75c.092-2.062.618-3.75 1.168-3.75 2.557 0 .641-1.706-2-1.781-1.65-.047-3 .335-3 .848m8.571.504c-2.199 2.2-1.956 5.046.584 6.825 2.938 2.058 5.845.451 5.845-3.231 0-4.73-3.395-6.627-6.429-3.594m9.096-.904c-.367.366-.667 2.391-.667 4.5 0 3.333.3 3.833 2.3 3.833 2.92 0 4.7-1.767 4.7-4.665 0-2.936-4.474-5.528-6.333-3.668m8.988 3.833c-1.296 3.802-.693 6.906.631 3.25.359-.99.914-.977 2.671.063 2.387 1.413 2.382.98-.066-5.563-1.164-3.112-1.485-2.888-3.236 2.25m6.38-3.309c-.019.93.415 1.969.965 2.309.55.34 1.02 1.829 1.044 3.309.038 2.357.219 2.199 1.455-1.271 1.362-3.823 1.245-6.64-.127-3.064-.602 1.569-.819 1.502-1.989-.607-.981-1.769-1.321-1.94-1.348-.676m-121.929.41c-.175 1.811 2.026 7.399 2.914 7.399 1.02 0 3.388-6.925 2.628-7.685-.303-.303-.846.627-1.208 2.067-.842 3.355-1.778 3.316-3.141-.132-.597-1.512-1.134-2.255-1.193-1.649M105.272 148c0 2.475.195 3.488.434 2.25.238-1.238.238-3.262 0-4.5-.239-1.238-.434-.225-.434 2.25m61.334-2.463c-1.824 1.824-1.923 2.415-.721 4.311 1.242 1.96 4.565.982 4.913-1.446.447-3.114-2.16-4.897-4.192-2.865M98 146c0 .55.675 1 1.5 1s1.5-.45 1.5-1-.675-1-1.5-1-1.5.45-1.5 1m78 2c0 2.459.383 3.073 1.75 2.81 1.104-.213 1.75-1.25 1.75-2.81s-.646-2.597-1.75-2.81c-1.367-.263-1.75.351-1.75 2.81m190.04-1.548c-1.45 1.747-1.035 4.717.741 5.309.705.235 1.155-.122 1-.792-.154-.671.353-1.449 1.128-1.73.998-.362 1.217-.009.75 1.208-.436 1.136-.236 1.579.59 1.304 2.896-.965 1.397-6.751-1.749-6.751-.69 0-1.797.653-2.46 1.452m-302.961 1.131c.048 1.165.285 1.402.604.605.289-.722.253-1.585-.079-1.917-.332-.332-.568.258-.525 1.312M88 147.441c0 .857.45 1.559 1 1.559s1-.423 1-.941-.45-1.219-1-1.559c-.55-.34-1 .084-1 .941m43.583-.575c-.431.697-.513 1.537-.183 1.867.895.895 1.871-.421 1.387-1.871-.338-1.016-.574-1.016-1.204.004m53.417.575c0 .857.45 1.559 1 1.559s1-.423 1-.941-.45-1.219-1-1.559c-.55-.34-1 .084-1 .941M98 149.5c0 .825.675 1.5 1.5 1.5s1.5-.675 1.5-1.5-.675-1.5-1.5-1.5-1.5.675-1.5 1.5m187.569 11.389c-1.054 1.705-3.569 15.273-3.569 19.253 0 4.529 4.248 9.858 7.858 9.858 1.106 0 3.261.475 4.789 1.056 2.028.771 3.384.73 5.031-.151 1.778-.952 2.578-.938 3.788.067 1.748 1.45 2.058 4.028.484 4.028-.667 0-.724.581-.157 1.595 2.037 3.639-2.927 11.335-6.44 9.987-1.172-.45-3.332 4.777-3.347 8.1-.008 1.545 4.889 5.003 8.296 5.858 3.733.936 4.694-1.851 1.727-5.009-2.709-2.884-2.103-8.973.809-8.127 8.482 2.462 18.267 1.693 23.483-1.847 3.42-2.321 3.501-2.327 10.182-.728l6.734 1.611 2.377-2.97c4.452-5.565 2.218-11.426-2.447-6.419-1.415 1.519-2.596 1.879-4.548 1.389-3.781-.948-3.881-1.6-1.18-7.706l2.424-5.481-11.182-4.26c-6.149-2.342-18.484-8.024-27.411-12.626-17.567-9.056-16.9-8.775-17.701-7.478m82.462 2.053c-1.759 3.286.355 6.25 4.185 5.866 6.268-.627 6.268-6.989 0-7.616-2.286-.229-3.368.223-4.185 1.75M53.109 164.25c-2.395 6.401-2.422 6.963-.278 5.623 1.636-1.022 2.325-.988 3.732.179 1.576 1.308 1.658 1.216.948-1.06-1.452-4.651-2.46-6.992-3.011-6.992-.302 0-.928 1.012-1.391 2.25m7.006 2.3.115 4.95.791-4c.444-2.246.394-4.417-.115-4.95-.547-.573-.86 1.014-.791 4M65 165.191c0 3.021-.078 3.088-1.468 1.25-.808-1.067-1.483-1.428-1.5-.802-.018.627.853 2.202 1.935 3.5l1.966 2.361.034-4.75c.018-2.613-.192-4.75-.467-4.75s-.5 1.436-.5 3.191m4 1.309c0 4.657 1.479 5.749 4.875 3.598 3.327-2.107 1.031-8.046-3.125-8.083-1.41-.012-1.75.86-1.75 4.485m12 0c0 4.239.194 4.612 2.25 4.32 1.905-.271 2.25-.933 2.25-4.32 0-3.387-.345-4.049-2.25-4.32-2.056-.292-2.25.081-2.25 4.32m7.116.25c.064 2.613.322 3.963.573 3 .252-.963.938-1.75 1.524-1.75.587 0 1.703.787 2.482 1.75 1.296 1.602 1.33 1.573.407-.347-.663-1.378-.67-2.435-.022-3.083 1.597-1.597-.096-4.32-2.687-4.32-2.204 0-2.384.374-2.277 4.75m7.816-2.624c-1.671 3.122.278 6.874 3.571 6.874 2.174 0 4.497-2.838 4.497-5.494 0-3.247-6.476-4.354-8.068-1.38m9.089-1.626c-.005.55.462 2.699 1.039 4.776.995 3.583 2.94 4.315 2.94 1.106 0-.825-.45-1.222-1-.882-.55.34-1.007-.196-1.015-1.191-.016-1.86-1.947-5.604-1.964-3.809M109 164c0 1.1.45 2 1 2s1 .873 1 1.941c0 3.728 1.916 3.086 3.019-1.012.612-2.272.884-4.36.604-4.64-.28-.279-.938 1.004-1.461 2.851l-.953 3.36-.729-3.25c-.803-3.574-2.48-4.419-2.48-1.25m8.132 2.628c.123 4.571.172 4.656.783 1.372l.652-3.5 1.903 3.5 1.902 3.5.943-3.194c.518-1.756.582-4.006.142-5-.642-1.451-.921-1.119-1.42 1.694-.544 3.069-.712 3.234-1.367 1.34-1.74-5.027-3.678-4.87-3.538.288M126 166.5c0 4.144.2 4.5 2.521 4.5 1.684 0 2.881-.789 3.603-2.374 1.484-3.255-.378-6.626-3.659-6.626-2.255 0-2.465.384-2.465 4.5m8.932-2.374c-1.801 3.365.331 7.092 3.826 6.69 2.31-.266 2.793-.85 3.066-3.711.485-5.082-4.592-7.276-6.892-2.979m10.268-.926c-2.841 2.841-.683 7.8 3.393 7.8 2.212 0 3.891-2.408 2.851-4.09-1.044-1.69-2.261-.925-1.734 1.09.643 2.459-1.856 2.734-3.78.416-1.726-2.08.022-4.946 2.951-4.837 1.165.044 2.119-.293 2.119-.75 0-1.269-4.444-.985-5.8.371m13.227-.435c-3.328 2.279-1.852 8.235 2.041 8.235 1.392 0 2.532-.373 2.532-.829 0-.457-1.012-.794-2.25-.75-1.851.065-2.25-.453-2.25-2.921s.399-2.986 2.25-2.921c1.238.044 2.25-.293 2.25-.75 0-1.022-3.11-1.065-4.573-.064m7.546 3.336c-.608 2.255-.85 4.355-.539 4.667.311.311.566.04.566-.601 0-.642.9-1.167 2-1.167s2 .525 2 1.167c0 .641.256.91.569.597.772-.772-1.68-8.764-2.689-8.764-.441 0-1.3 1.845-1.907 4.101m7.777-3.535c-.412.422-.697 2.605-.632 4.851.11 3.787.167 3.866.782 1.083.629-2.843.728-2.895 1.882-1l1.218 2 1.218-2c1.154-1.895 1.253-1.843 1.882 1 .606 2.742.674 2.64.782-1.191.134-4.773-1.503-6.669-2.461-2.85-.814 3.245-1.787 3.225-2.978-.06-.519-1.431-1.281-2.256-1.693-1.833m9.791.684c-1.178 3.719-.009 7.252 2.459 7.435 1.444.106 1.761-.03.75-.324-2.02-.586-2.341-2.956-.5-3.699 1-.403 1-.52 0-.583-1.899-.12-1.493-2.869.5-3.39 1.299-.339 1.162-.487-.531-.573-1.255-.064-2.46.447-2.678 1.134M70 166.573c0 2.864.348 3.507 1.75 3.24 2.138-.407 2.936-4.763 1.087-5.935-2.319-1.47-2.837-.978-2.837 2.695m12-2.073c0 .917.484 1.505 1.075 1.308.591-.197 1.075-.786 1.075-1.308s-.484-1.111-1.075-1.308c-.591-.197-1.075.391-1.075 1.308m7.667-.833c-1.151 1.15-.729 2.333.833 2.333.825 0 1.5-.675 1.5-1.5 0-1.562-1.183-1.984-2.333-.833m7.439 1.135c-.744 1.39-.664 2.42.288 3.722 1.951 2.668 4.822 1.201 4.423-2.26-.382-3.307-3.247-4.197-4.711-1.462m30.561-1.135c-.367.366-.667 1.941-.667 3.5 0 3.239 2.367 3.884 3.88 1.057 1.487-2.778-1.193-6.578-3.213-4.557m8.439 1.135c-.744 1.39-.664 2.42.288 3.722 1.951 2.668 4.822 1.201 4.423-2.26-.382-3.307-3.247-4.197-4.711-1.462M54 166.059c0 1.132.43 1.793.956 1.468.526-.325.703-1.252.393-2.059-.793-2.067-1.349-1.824-1.349.591m113 .441c0 .825.45 1.5 1 1.5s1-.675 1-1.5-.45-1.5-1-1.5-1 .675-1 1.5m-85 2.083c0 1.766 2.153 1.459 2.771-.395.218-.654-.317-1.188-1.188-1.188-.87 0-1.583.713-1.583 1.583m272.575 9.334c-1.987 2.196-1.32 4.123 2.744 7.924 5.667 5.3 8.897-.248 3.634-6.242-3.652-4.159-4.043-4.262-6.378-1.682m-114.585.595c-.949 1.143-1.586 1.238-2.61.389-1.779-1.477-5.984-.375-6.813 1.784-.593 1.547-.473 1.54 1.316-.079 2.088-1.89 5.779-1.775 5.379.167-.131.635.386.916 1.149.623.763-.293 1.684-.052 2.047.536.363.587 1.169 1.068 1.792 1.068s.276-.626-.771-1.392c-1.617-1.182-1.703-1.633-.569-3 .734-.884 1.11-1.608.835-1.608-.275 0-1.065.681-1.755 1.512M52 185.5c0 4.938 2.221 6.136 5.429 2.929 2.818-2.819.978-7.429-2.964-7.429-2.255 0-2.465.384-2.465 4.5m9.012-2.522c-1.44 2.69-.468 5.743 2.087 6.553 2.913.925 5.055-1.328 4.702-4.946-.384-3.94-4.961-5.023-6.789-1.607m8.994-1.228c.003.412.477 2.449 1.054 4.526 1.059 3.816 2.94 4.242 2.94.665 0-1.068.45-1.941 1-1.941s1 .873 1 1.941c0 3.728 1.916 3.086 3.019-1.012.612-2.272.884-4.36.604-4.64-.28-.279-.938 1.004-1.461 2.851l-.953 3.36-.729-3.25c-.402-1.787-1.068-3.25-1.48-3.25-.412 0-1.078 1.463-1.48 3.25l-.729 3.25-.924-3.25c-.842-2.962-1.875-4.349-1.861-2.5m12.126 4c.123 4.467.168 4.541.75 1.253l.618-3.497 2.233 3.497 2.233 3.497-.101-5c-.086-4.234-.21-4.54-.811-2l-.71 3-1.332-2.75c-1.977-4.078-3.029-3.348-2.88 2m12.056-1c1.54 5.628 2.059 5.968 3.344 2.195l1.174-3.445.748 3.349c.412 1.842 1.111 2.967 1.554 2.5 1.333-1.403 2.922-8.349 1.911-8.349-.505 0-.919 1.098-.919 2.441 0 1.343-.45 2.719-1 3.059-.55.34-1.007-.196-1.015-1.191-.034-4.013-1.799-4.796-2.804-1.244l-.972 3.435-.729-3.25c-.402-1.787-1.087-3.25-1.524-3.25-.437 0-.333 1.688.232 3.75m11.377.298c.278 5.731 1.435 6.23 1.435.619 0-2.567-.367-4.667-.815-4.667-.449 0-.728 1.821-.62 4.048m4.111-3.27c.646.412 1.358 2.542 1.581 4.735l.407 3.987.168-4.177c.123-3.046.642-4.3 1.918-4.634.963-.251.175-.502-1.75-.558-1.925-.055-2.971.236-2.324.647m7.596 3.722c0 2.75.195 3.988.434 2.75.264-1.372 1.159-2.25 2.294-2.25s2.03.878 2.294 2.25c.239 1.238.434 0 .434-2.75s-.195-3.988-.434-2.75c-.264 1.372-1.159 2.25-2.294 2.25s-2.03-.878-2.294-2.25c-.239-1.238-.434 0-.434 2.75m11.864.25c.075 2.613.328 3.765.562 2.561.234-1.203 1.185-2.389 2.113-2.634 1.533-.404 1.527-.456-.061-.561-.963-.064-1.75-.758-1.75-1.543 0-.784.787-1.632 1.75-1.884 1.317-.344 1.193-.486-.5-.573-2.052-.106-2.238.303-2.114 4.634m6.221-.75c.127 3.994.424 4.539 2.643 4.846 1.375.19 2.125-.035 1.667-.5-.459-.465-1.359-.846-2-.846-.642 0-1.456-1.8-1.81-4l-.643-4 .143 4.5m6.643.5c0 3.833.296 4.5 2 4.5 1.1 0 2-.477 2-1.059s-.419-.8-.931-.484c-.512.317-1.245.068-1.628-.552-.383-.621-.077-1.521.681-2.001.998-.633 1.033-.878.128-.889-1.907-.023-1.489-2.806.5-3.326 1.317-.344 1.193-.486-.5-.573-2.017-.104-2.25.35-2.25 4.384m7.053-.75c-1.422 5.117-1.318 5.975.447 3.691 1.485-1.921 1.515-1.921 3 0 1.765 2.284 1.869 1.426.447-3.691-.572-2.062-1.449-3.75-1.947-3.75s-1.375 1.688-1.947 3.75m6.947-1.785c0 1.08.913 2.453 2.028 3.05 2.206 1.181 1.652 3.46-.629 2.585-.77-.296-1.399-.101-1.399.431 0 1.548 2.63 1.12 4.114-.668 1.173-1.414 1.054-1.84-.878-3.122-2.688-1.785-2.846-2.935-.486-3.552 1.317-.344 1.193-.486-.5-.573-1.609-.083-2.25.444-2.25 1.849m-103 1.976c0 3.619 1.327 4.589 3.417 2.499 1.193-1.193 1.327-2.051.546-3.509-1.61-3.008-3.963-2.408-3.963 1.01m9.141-1.611c-1.345 1.621-.627 4.269 1.363 5.033 1.757.674 3.757-1.77 3.317-4.053-.436-2.267-3.142-2.833-4.68-.98m88.442.536c-.431.697-.513 1.537-.183 1.867.895.895 1.871-.421 1.387-1.871-.338-1.016-.574-1.016-1.204.004M371 195.378c0 .207.788.995 1.75 1.75 1.586 1.243 1.621 1.208.378-.378-1.307-1.666-2.128-2.195-2.128-1.372M15.015 200.75c.045 2.192 1.955 3.647 1.97 1.5.008-1.238-.435-2.25-.985-2.25s-.993.338-.985.75M364 200.378c0 .207.788.995 1.75 1.75 1.586 1.243 1.621 1.208.378-.378-1.307-1.666-2.128-2.195-2.128-1.372m9.5 2.622c-.34.55-.141 1 .441 1s1.059-.45 1.059-1-.198-1-.441-1-.719.45-1.059 1m-348.421 7.583c.048 1.165.285 1.402.604.605.289-.722.253-1.585-.079-1.917-.332-.332-.568.258-.525 1.312M30 230.984C30 232.649 38.351 241 40.016 241c.704 0-.239-1.023-2.094-2.274-1.856-1.25-4.398-3.792-5.648-5.648-1.251-1.855-2.274-2.798-2.274-2.094m12.813 10.699c.721.289 1.584.253 1.916-.079.332-.332-.258-.568-1.312-.525-1.165.048-1.402.285-.604.604m356 0c.721.289 1.584.253 1.916-.079.332-.332-.258-.568-1.312-.525-1.165.048-1.402.285-.604.604M34.046 260.914c-.614 1.148-.699 2.086-.188 2.086 1.028 0 2.446-3.029 1.747-3.729-.244-.243-.945.496-1.559 1.643m347 0c-.614 1.148-.699 2.086-.188 2.086 1.028 0 2.446-3.029 1.747-3.729-.244-.243-.945.496-1.559 1.643M202 261.393c0 .216.698.661 1.552.989.89.341 1.291.173.941-.393-.587-.951-2.493-1.406-2.493-.596m76.079 3.19c.048 1.165.285 1.402.604.605.289-.722.253-1.585-.079-1.917-.332-.332-.568.258-.525 1.312M223 265.893c0 1.109 3.076 2.364 3.864 1.576.318-.318-.084-.996-.893-1.508-1.87-1.183-2.971-1.208-2.971-.068" fill-rule="evenodd"/><path fill="#212121" stroke="#212121" d="M68 110.5c0 4.034.233 4.488 2.25 4.384 1.693-.087 1.817-.229.5-.573-2.019-.528-2.344-2.905-.5-3.649 1-.403 1-.52 0-.583-1.899-.12-1.493-2.869.5-3.39 1.317-.344 1.193-.486-.5-.573-2.017-.104-2.25.35-2.25 4.384m11.616-2.941c-.365.95-.427 1.963-.14 2.251.288.288.531-.114.539-.893.013-1.167.187-1.152.985.083.533.825.969 1.05.969.5 0-2.336-1.672-3.715-2.353-1.941m6.384-.67c0 .489.739.826 1.642.75.904-.076 1.841.424 2.084 1.111.261.741-.407 1.25-1.643 1.25-1.145 0-2.083.477-2.083 1.059s.419.8.932.483c.512-.316 1.637.432 2.5 1.664.862 1.231 1.568 1.715 1.568 1.076 0-.64-.472-1.456-1.049-1.812-.729-.451-.723-1.039.018-1.932 1.475-1.778.213-4.538-2.076-4.538-1.041 0-1.893.4-1.893.889m7.193 3.361c.248 3.44.688 4.269 2.307 4.348 1.522.075 1.582-.001.25-.319-.963-.23-1.75-1.029-1.75-1.775 0-.747.787-1.563 1.75-1.815 1.667-.435 1.667-.463 0-.573-.963-.064-1.75-.758-1.75-1.543 0-.784.787-1.632 1.75-1.884 1.285-.335 1.137-.488-.557-.573-2.111-.106-2.282.246-2 4.134m10.483-3.472c.646.412 1.358 2.542 1.581 4.735l.407 3.987.168-4.177c.123-3.046.642-4.3 1.918-4.634.963-.251.175-.502-1.75-.558-1.925-.055-2.971.236-2.324.647m7.596 3.722c0 2.75.195 3.987.434 2.75.264-1.372 1.159-2.25 2.294-2.25s2.03.878 2.294 2.25c.239 1.237.434 0 .434-2.75s-.195-3.987-.434-2.75c-.264 1.372-1.159 2.25-2.294 2.25s-2.03-.878-2.294-2.25c-.239-1.237-.434 0-.434 2.75m8.728 0c0 4.034.233 4.488 2.25 4.384 1.693-.087 1.817-.229.5-.573-2.019-.528-2.344-2.905-.5-3.649 1-.403 1-.52 0-.583-1.899-.12-1.493-2.869.5-3.39 1.317-.344 1.193-.486-.5-.573-2.017-.104-2.25.35-2.25 4.384m10-3c0 .825.436 1.5.969 1.5.532 0 .709-.675.393-1.5-.317-.825-.753-1.5-.969-1.5-.216 0-.393.675-.393 1.5m5.639-.725c-.263.426-.111 2.338.339 4.25l.817 3.475.103-4.25c.099-4.109-.258-5.094-1.259-3.475m4.647 3.725c.008 2.75.202 3.756.432 2.236.229-1.52.223-3.77-.014-5-.237-1.23-.425.014-.418 2.764m3.646-2.374c-1.41 2.636.228 6.874 2.657 6.874 1.287 0 1.159-.383-.605-1.812-2.734-2.214-1.999-5.846 1.313-6.488l2.203-.428-2.215-.136c-1.331-.082-2.669.712-3.353 1.99m9.34 2.374c0 2.75.195 3.987.434 2.75.264-1.372 1.159-2.25 2.294-2.25s2.03.878 2.294 2.25c.239 1.237.434 0 .434-2.75s-.195-3.987-.434-2.75c-.264 1.372-1.159 2.25-2.294 2.25s-2.03-.878-2.294-2.25c-.239-1.237-.434 0-.434 2.75m7.728-4.117c0 .91 3.898 1.296 5.139.51.925-.586.321-.867-1.889-.878-1.787-.008-3.25.158-3.25.368m10.992 1.542c-1.02 1.076-1.302 2.56-.869 4.583.52 2.431.663 2.558.759.676.065-1.273.604-3.224 1.199-4.335 1.369-2.558.865-2.986-1.089-.924M60 108c0 .55.45 1 1 1s1-.45 1-1-.45-1-1-1-1 .45-1 1m-2.859 2c0 .825.386 2.4.859 3.5.542 1.261.859 1.445.859.5 0-.825-.386-2.4-.859-3.5-.542-1.261-.859-1.445-.859-.5m6.43 1.571c-.367 1.466-.475 2.858-.24 3.094.236.235.73-.771 1.098-2.236.367-1.466.475-2.858.24-3.094-.236-.235-.73.771-1.098 2.236m100.624-.071c.02 1.65.244 2.204.498 1.231.254-.973.237-2.323-.037-3-.274-.677-.481.119-.461 1.769m-31.493.167c.282.733.641 1.333.798 1.333.157 0 .516-.6.798-1.333.281-.734-.078-1.334-.798-1.334-.72 0-1.079.6-.798 1.334m-55.119.976c-.918 2.394-.202 2.578 1.213.312.672-1.075.815-1.955.319-1.955-.495 0-1.185.739-1.532 1.643M82 113c.589 1.1 1.237 2 1.442 2 .204 0 .135-.9-.152-2-.288-1.1-.937-2-1.442-2-.507 0-.439.895.152 2m-29.333 12.667c-.367.366-.667 1.352-.667 2.191 0 1.322.166 1.311 1.25-.083.688-.883 2.15-1.817 3.25-2.075 1.587-.371 1.466-.492-.583-.584-1.421-.064-2.884.184-3.25.551M61.272 129c0 2.475.195 3.488.434 2.25.238-1.238.238-3.263 0-4.5-.239-1.237-.434-.225-.434 2.25m5.431-2.667c-.374.974-.282 1.525.204 1.225.486-.301 1.162.18 1.503 1.068.47 1.224.152 1.493-1.309 1.111-1.297-.34-2.085.093-2.406 1.319-.41 1.572-.211 1.66 1.445.634 1.542-.955 2.102-.9 2.836.281 1.77 2.845 1.873.449.15-3.458-1.398-3.169-1.878-3.601-2.423-2.18m6.297-.41c0 .671.665 1.885 1.478 2.698s1.904 2.239 2.425 3.17c.521.931 1.145 1.471 1.388 1.201.242-.271-.849-2.246-2.425-4.391-1.576-2.144-2.866-3.349-2.866-2.678m5.195 1.577c.02 1.65.244 2.204.498 1.231.254-.973.237-2.323-.037-3-.274-.677-.481.119-.461 1.769m3.474-1.726c.642.409 1.358 2.315 1.59 4.235l.421 3.491.16-3.677c.112-2.573.685-3.814 1.91-4.134.963-.251.175-.502-1.75-.558-1.925-.055-2.974.234-2.331.643M89 126.893c0 1.041.675 2.152 1.5 2.469.825.316 1.5 1.312 1.5 2.214 0 1.147-.524 1.438-1.75.972-1.334-.508-1.474-.388-.587.506C91 134.401 93 133.508 93 131.563c0-.725-.675-1.878-1.5-2.563-1.979-1.643-1.896-2.75.25-3.311 1.317-.344 1.193-.486-.5-.573-1.582-.082-2.25.446-2.25 1.777m16-.134c0 .968.917 2.333 2.039 3.033 2.329 1.455 1.604 3.666-.89 2.717-1.327-.505-1.403-.38-.392.639 1.014 1.021 1.57.954 2.871-.347 1.485-1.485 1.444-1.759-.507-3.43-2.579-2.208-2.667-3.082-.371-3.682 1.317-.344 1.193-.486-.5-.573-1.525-.079-2.25.451-2.25 1.643m8.66-.317c-.374.977-.229 1.41.351 1.051.544-.336.989-.059.989.615 0 .674.266.959.592.634.325-.326.167-1.35-.351-2.276-.876-1.564-.989-1.566-1.581-.024M123 129c0 2.2.36 4 .799 4 .44 0 .616-1.575.391-3.5-.349-2.991-.112-3.5 1.633-3.5 2.875 0 3.989 3.933 1.608 5.674-.997.729-1.332 1.326-.745 1.326 2.332 0 3.657-2.952 2.482-5.53-2.016-4.426-6.168-3.396-6.168 1.53m12.24.25c.064 2.338.294 3.463.511 2.5.218-.963 1.215-1.75 2.215-1.75 1.001 0 2.027-.562 2.28-1.25.806-2.194-.342-3.75-2.767-3.75-2.12 0-2.342.421-2.239 4.25m8.349-3.394c-.291.47.577.644 1.929.385 2.855-.546 4.414 2.057 2.782 4.645-1.48 2.346-3.556 1.979-5.006-.886-.789-1.561-1.27-1.901-1.279-.905-.008.877.848 2.376 1.902 3.33 3.599 3.257 7.409-.807 5.476-5.843-.638-1.662-4.896-2.195-5.804-.726m8.733 3.142c-.043 3.926.073 4.18.918 2l.967-2.498 1.049 2.25c.577 1.238 1.435 2.25 1.905 2.25.471 0 .294-.9-.393-2-.999-1.599-.999-2.401 0-4 .687-1.1.843-2 .347-2-.495 0-1.16.675-1.477 1.5-.781 2.036-2.404 1.895-2.879-.25-.214-.963-.41.274-.437 2.748M160 129c0 2.2.477 4 1.059 4s.75-.5.372-1.112c-.378-.611-.067-1.504.691-1.984.998-.633 1.033-.878.128-.889-1.907-.023-1.489-2.806.5-3.326 1.317-.344 1.193-.486-.5-.573-1.978-.102-2.25.368-2.25 3.884m13.158-2c0 1.375.227 1.938.504 1.25.278-.687.278-1.812 0-2.5-.277-.687-.504-.125-.504 1.25m3.921-.417c.048 1.165.285 1.402.604.605.289-.722.253-1.585-.079-1.917-.332-.332-.568.258-.525 1.312m4.079.417c0 1.375.227 1.938.504 1.25.278-.687.278-1.812 0-2.5-.277-.687-.504-.125-.504 1.25m4.592-1.338c.688.278 1.813.278 2.5 0 .688-.277.125-.504-1.25-.504s-1.937.227-1.25.504M136 127.5c0 1.03.655 1.52 1.75 1.31 2.108-.406 1.975-2.181-.197-2.633-.906-.189-1.553.362-1.553 1.323M57.429 131c0 1.1.353 2 .785 2 .432 0 .786-.9.786-2s-.354-2-.786-2c-.432 0-.785.9-.785 2m54.257.094c-.404 1.544-.193 1.625 1.554.596 1.581-.931 2.12-.918 2.474.06.249.688.851 1.25 1.338 1.25 1.892 0-.317-2.817-2.543-3.243-1.663-.318-2.493.075-2.823 1.337M52 130.975c0 .525.9 1.436 2 2.025s2 .93 2 .757c0-.172-.9-1.083-2-2.025s-2-1.283-2-.757M174 132c0 .55.45 1 1 1s1-.45 1-1-.45-1-1-1-1 .45-1 1m5 0c0 .55.45 1 1 1s1-.45 1-1-.45-1-1-1-1 .45-1 1m-69.25 12.08c-2.009 1.17-2.318 4.952-.55 6.72 2.012 2.012 5.8 1.49 5.8-.8 0-1.1-.436-2-.969-2-.532 0-.709.675-.393 1.5.401 1.045-.072 1.5-1.562 1.5-1.177 0-2.421-.736-2.767-1.636-.809-2.109 1.005-4.904 3.069-4.727.88.075 1.354-.262 1.052-.75-.695-1.124-1.49-1.082-3.68.193m11.905.749c-1.954 2.159-2.118 4.308-.455 5.971 1.374 1.374 5.8 1.633 5.8.339 0-.474-1.119-.648-2.488-.386-1.743.333-2.688-.048-3.159-1.275-.967-2.52 1.038-5.02 3.788-4.725 1.861.2 2.042.044.859-.735-2.06-1.356-2.45-1.284-4.345.811m43.841.175c-3.464 3.828 1.666 9.434 5.304 5.796 1.837-1.837 1.428-5.608-.734-6.765-2.522-1.349-2.46-1.362-4.57.969M52.07 147.75c-.038 2.338.103 4.25.313 4.25.849 0 1.222-4.762.514-6.569-.535-1.366-.777-.688-.827 2.319m4.729-2c-.239.963-.112 2.875.283 4.25.586 2.037.737 1.713.818-1.75.104-4.436-.359-5.488-1.101-2.5m15.825-.211c-.343.893-.595 2.15-.561 2.793.035.642.495.09 1.022-1.227.527-1.318.779-2.574.56-2.793-.219-.219-.679.333-1.021 1.227M76.181 148c-.052 3.721.132 3.99 2.632 3.864 2.357-.12 2.41-.19.437-.57-2.663-.513-3.001-2.951-.5-3.605 1.579-.412 1.569-.468-.107-.573-1.218-.076-1.659-.632-1.281-1.616.316-.825.192-1.5-.276-1.5-.467 0-.875 1.8-.905 4M97 148c0 3.6.25 4 2.5 4 1.375 0 2.5-.408 2.5-.906 0-.499-.9-.671-2-.384-1.432.375-2 .031-2-1.21 0-1.175.578-1.582 1.794-1.264 1.318.345 1.846-.155 1.989-1.883.107-1.294-.236-2.353-.763-2.353-.526 0-.698.675-.382 1.5.374.974-.025 1.5-1.138 1.5s-1.512-.526-1.138-1.5c.316-.825.139-1.5-.393-1.5-.533 0-.969 1.8-.969 4m8.272 0c0 2.475.195 3.488.434 2.25.238-1.238.238-3.262 0-4.5-.239-1.238-.434-.225-.434 2.25M138 145.441c0 .857.45 1.559 1 1.559s1-.423 1-.941-.45-1.219-1-1.559c-.55-.34-1 .084-1 .941m4.71.56c-.288 1.101-.146 1.769.315 1.483.461-.285 1.027.727 1.257 2.249.297 1.963.462 1.533.568-1.483.154-4.373-1.21-5.806-2.14-2.249m5.369 1.749c-.071 3.797.161 4.238 2.171 4.134 1.693-.087 1.817-.229.5-.573-1.989-.52-2.407-3.303-.5-3.326.865-.011.911-.242.15-.75-.605-.404-1.357-1.41-1.671-2.235-.314-.825-.607.412-.65 2.75m11.75.25c.209 2.2.559 4 .776 4 .217 0 .395-1.8.395-4s-.349-4-.776-4c-.427 0-.605 1.8-.395 4m6.238-2.581c-1.683 2.028-.389 5.581 2.032 5.581 2.36 0 3.599-2.67 2.239-4.826-1.397-2.214-2.847-2.47-4.271-.755m13.082.449c1.549 2.479.516 4.873-2.338 5.418-2.146.41-2.159.451-.183.578 1.17.075 2.682-.533 3.361-1.351 1.355-1.633.593-6.513-1.017-6.513-.589 0-.517.755.177 1.868m11.436-.955c.404.777 1.066 2.802 1.472 4.5.72 3.01.741 3.02.841.396.056-1.48.552-2.969 1.102-3.309.55-.34.986-1.154.97-1.809-.017-.655-.507-.372-1.089.629-1.024 1.759-1.108 1.759-2.544 0-.817-1.001-1.155-1.184-.752-.407m-7.248 3.984c-.64 1.707-.752 3.103-.25 3.103s.913-.45.913-1 .9-1 2-1c1.268 0 1.971-.64 1.921-1.75-.047-1.045-.282-1.247-.583-.5-.709 1.756-2.13 1.556-2.515-.353-.206-1.025-.743-.484-1.486 1.5M90 148c0 .55-.852 1-1.893 1s-2.152.675-2.469 1.5c-.316.825-.139 1.5.393 1.5.533 0 .969-.45.969-1s.9-1 2-1c1.111 0 2-.667 2-1.5 0-.825-.225-1.5-.5-1.5s-.5.45-.5 1m40.079.25c-.05 1.11.653 1.75 1.921 1.75 1.1 0 2 .45 2 1s.436 1 .969 1c.532 0 .709-.675.393-1.5-.317-.825-1.39-1.5-2.386-1.5-.995 0-2.036-.562-2.314-1.25-.301-.747-.536-.545-.583.5m-69.449 2.057c-.395 1.509-.224 1.601 1.03.56 1.135-.941 1.945-.97 3.312-.117 1.504.94 1.735.845 1.368-.56-.607-2.319-5.097-2.227-5.71.117M70 151c0 .55.45 1 1 1s1-.45 1-1-.45-1-1-1-1 .45-1 1m-16.368 12.516c-.373.974-.443 2.006-.156 2.294.288.288.557-.114.598-.893.041-.78.94.383 1.998 2.583s1.643 2.875 1.301 1.5c-1.226-4.925-2.973-7.486-3.741-5.484m6.5 3.234c.128 4.639.148 4.669.868 1.25.405-1.925.806-3.05.891-2.5.084.55 1.033 2.125 2.109 3.5l1.956 2.5-.11-5c-.1-4.597-.162-4.718-.761-1.5l-.652 3.5-1.742-3.25c-2.327-4.34-2.715-4.113-2.559 1.5M69 166.5c0 3.667.333 4.5 1.8 4.5 2.001 0 4.216-1.833 4.17-3.45-.017-.578-.489-.263-1.05.7-1.783 3.06-3.92 2.106-3.92-1.75s2.137-4.81 3.92-1.75c.561.963 1.033 1.278 1.05.7.046-1.617-2.169-3.45-4.17-3.45-1.467 0-1.8.833-1.8 4.5m12 .07c0 4.166.198 4.541 2.25 4.25 3.697-.525 2.876-8.82-.872-8.82-.97 0-1.378 1.355-1.378 4.57m7.871-4.32c-.071.137-.245 2.275-.388 4.75-.173 3.015.003 3.84.534 2.5.436-1.1.562-3.012.28-4.25-.35-1.53-.053-2.25.928-2.25 2.175 0 2.809 1.068 1.779 2.993-.641 1.197-.459 2.313.59 3.619 1.46 1.818 1.48 1.812.531-.166-.576-1.2-.622-2.641-.112-3.466 1.008-1.632-.547-3.98-2.635-3.98-.758 0-1.436.113-1.507.25m8.379.412c-.687.278-1.25.921-1.25 1.43 0 .509.927.359 2.061-.334 1.759-1.074 2.272-.974 3.5.683.791 1.068 1.439 1.495 1.439.95 0-2.46-2.948-3.859-5.75-2.729m8.36 1.838c.823 3.677 1.395 4.475 1.375 1.917-.009-1.054-.472-2.592-1.031-3.417-.741-1.095-.834-.691-.344 1.5m11.68 2.118c-.039 4.306.03 4.47.583 1.385l.627-3.497 2.233 3.497c1.228 1.923 2.241 2.94 2.25 2.258.009-.681-.649-2.031-1.464-3a73.071 73.071 0 0 1-2.833-3.643c-1.21-1.683-1.356-1.368-1.396 3m9.377-3.951c-1.687 1.686-.681 8.333 1.262 8.333 2.23 0 5.071-2.521 5.071-4.5 0-2.869-4.546-5.62-6.333-3.833m9.583-.005c-.687.278-1.25.921-1.25 1.43 0 .509.927.359 2.061-.334 1.759-1.074 2.272-.974 3.5.683.791 1.068 1.439 1.495 1.439.95 0-2.46-2.948-3.859-5.75-2.729m8.682 1.464c-1.41 2.636.228 6.874 2.657 6.874 1.277 0 1.136-.402-.645-1.844-2.67-2.162-2.127-4.747 1.284-6.117l2.272-.912-2.215-.064c-1.281-.036-2.695.834-3.353 2.063m13.268-.926c-.66.66-1.2 1.646-1.2 2.191 0 .545.61.157 1.355-.862.853-1.166 1.985-1.612 3.052-1.203 1.004.385 1.447.248 1.086-.337-.83-1.344-2.837-1.245-4.293.211m8.8-.2c0 .55.477 1 1.059 1s.781-.45.441-1-.816-1-1.059-1-.441.45-.441 1m7 .441c0 .793.408 1.693.907 2.001.498.309.671-.34.383-1.441-.611-2.335-1.29-2.63-1.29-.56m4.756.384c-.313 1.198-.161 1.926.337 1.617.499-.308.974.929 1.057 2.749.122 2.695.223 2.838.546.77.218-1.396-.001-3.612-.487-4.926-.88-2.377-.886-2.378-1.453-.21m5.244-.919c0 .499.9.671 2 .384 1.1-.288 2-.696 2-.907 0-.21-.9-.383-2-.383s-2 .408-2 .906M82 164.5c0 .917.484 1.505 1.075 1.308.591-.197 1.075-.786 1.075-1.308s-.484-1.111-1.075-1.308c-.591-.197-1.075.391-1.075 1.308m27-.5c0 .55.45 1 1 1s1-.45 1-1-.45-1-1-1-1 .45-1 1m13.079.583c.048 1.165.285 1.402.604.605.289-.722.253-1.585-.079-1.917-.332-.332-.568.258-.525 1.312m4.921 1.844c0 3.888 1.774 4.755 4.07 1.989 1.541-1.857.215-4.719-2.427-5.239-1.278-.252-1.643.471-1.643 3.25m-13.921.156c.048 1.165.285 1.402.604.605.289-.722.253-1.585-.079-1.917-.332-.332-.568.258-.525 1.312m53.037-.415c-.064.918-.375 2.493-.692 3.5-.545 1.736-.515 1.739.568.051.628-.98.939-2.555.691-3.5-.406-1.549-.462-1.554-.567-.051m2.899.415c.009 1.054.472 2.592 1.031 3.417.741 1.095.834.691.344-1.5-.823-3.677-1.395-4.475-1.375-1.917M184 166.5c0 .867.595 1.209 1.5.862.825-.317 1.5-.705 1.5-.862 0-.157-.675-.545-1.5-.862-.905-.347-1.5-.005-1.5.862m-10.805 2c.02 1.65.244 2.204.498 1.231.254-.973.237-2.323-.037-3-.274-.677-.481.119-.461 1.769M51.71 169c-.287 1.1-.356 2-.152 2 .205 0 .853-.9 1.442-2 .591-1.105.659-2 .152-2-.505 0-1.154.9-1.442 2m30.29-.5c0 .825.675 1.5 1.5 1.5s1.5-.675 1.5-1.5-.675-1.5-1.5-1.5-1.5.675-1.5 1.5m19.32.298c-.935 1.436-1.438 1.505-3.214.444-1.159-.693-2.106-.835-2.106-.318 0 1.825 4.174 2.33 5.802.703.868-.869 1.365-1.794 1.103-2.055-.262-.262-.975.29-1.585 1.226m39 0c-.935 1.436-1.438 1.505-3.214.444-1.159-.693-2.106-.835-2.106-.318 0 1.825 4.174 2.33 5.802.703.868-.869 1.365-1.794 1.103-2.055-.262-.262-.975.29-1.585 1.226m16.68-1.189c0 1.581 2.242 3.391 4.2 3.391.99 0 1.8-.436 1.8-.969 0-.532-.74-.684-1.645-.337-1.007.386-2.17-.088-3-1.223-.745-1.019-1.355-1.407-1.355-.862m19 .391c0 .55.45 1 1 1s1-.45 1-1-.45-1-1-1-1 .45-1 1m8 2.094c0 .498.9.906 2 .906s2-.173 2-.383c0-.211-.9-.619-2-.907-1.1-.287-2-.115-2 .384M52.193 185.172c.175 2.376.856 4.281 1.582 4.425.701.139.814.024.25-.255-.564-.28-1.025-2.046-1.025-3.925 0-4.029 2.069-4.585 4.443-1.194 1.756 2.506 2.099 1.658.522-1.289-.604-1.127-2.087-1.934-3.558-1.934-2.342 0-2.5.297-2.214 4.172m8.793-2.146c-.631 1.18-.928 2.366-.658 2.635.269.269.794-.47 1.167-1.644 1.022-3.222 4.913-2.317 5.322 1.239.375 3.263-1.969 4.625-4.58 2.661-1.588-1.195-1.585-1.142.032.621 2.518 2.745 5.231.854 5.231-3.647 0-4.266-4.534-5.565-6.514-1.865M74 182.441c0 .857.45 1.559 1 1.559s1-.423 1-.941-.45-1.219-1-1.559c-.55-.34-1 .084-1 .941M82.152 185c.072 3.809.182 4.047.718 1.547l.633-2.954 1.829 2.79c1.005 1.535 2.062 2.556 2.349 2.27.286-.287.025-1.114-.58-1.837A208.676 208.676 0 0 1 84.033 183l-1.966-2.5.085 4.5m5.006-2c0 1.375.227 1.938.504 1.25.278-.687.278-1.812 0-2.5-.277-.687-.504-.125-.504 1.25m7 0c0 1.375.227 1.938.504 1.25.278-.687.278-1.812 0-2.5-.277-.687-.504-.125-.504 1.25m3.921-.417c.048 1.165.285 1.402.604.605.289-.722.253-1.585-.079-1.917-.332-.332-.568.258-.525 1.312m4.079.417c0 1.375.227 1.938.504 1.25.278-.687.278-1.812 0-2.5-.277-.687-.504-.125-.504 1.25m4.114 2c0 2.475.195 3.488.434 2.25.238-1.238.238-3.262 0-4.5-.239-1.238-.434-.225-.434 2.25m3.397-3.226c.642.409 1.358 2.315 1.59 4.235l.421 3.491.16-3.677c.112-2.573.685-3.814 1.91-4.134.963-.251.175-.502-1.75-.558-1.925-.055-2.974.234-2.331.643m7.583 3.226c-.011 2.475.186 3.713.437 2.75.252-.963 1.292-1.75 2.311-1.75s2.059.787 2.311 1.75c.251.963.448-.275.437-2.75-.011-2.475-.215-3.488-.454-2.25-.264 1.372-1.159 2.25-2.294 2.25s-2.03-.878-2.294-2.25c-.239-1.238-.443-.225-.454 2.25m11.864.25c.064 2.338.316 3.49.561 2.561.246-.928 1.206-1.888 2.134-2.134 1.533-.404 1.527-.456-.061-.561-.963-.064-1.75-.758-1.75-1.543 0-.784.787-1.632 1.75-1.884 1.317-.344 1.193-.486-.5-.573-2.015-.104-2.238.327-2.134 4.134m6.259-.259c.102 3.656.497 4.557 2.125 4.84 1.839.321 1.863.241.306-.991-.932-.737-1.888-2.915-2.125-4.84-.325-2.646-.4-2.404-.306.991m6.818.25c.231 3.2.742 4.28 2.077 4.399 1.241.11 1.316.016.25-.315-1.835-.569-2.011-2.96-.27-3.663 1-.403 1-.52 0-.583-1.899-.12-1.493-2.869.5-3.39 1.285-.335 1.137-.488-.557-.573-2.111-.106-2.282.246-2 4.125M150 182c0 .55.45 1 1 1s1-.45 1-1-.45-1-1-1-1 .45-1 1m6.337.564c-.367.956.235 2.148 1.548 3.068 2.395 1.677 1.837 3.856-.736 2.877-1.327-.505-1.403-.38-.392.639 1.014 1.021 1.57.954 2.871-.347 1.485-1.485 1.444-1.759-.507-3.43-2.579-2.208-2.667-3.082-.371-3.682 1.64-.428 1.638-.464-.031-.573-.98-.064-2.052.588-2.382 1.448M71.141 185c0 .825.386 2.4.859 3.5.542 1.261.859 1.445.859.5 0-.825-.386-2.4-.859-3.5-.542-1.261-.859-1.445-.859-.5m6.43 1.571c-.367 1.466-.475 2.858-.24 3.094.236.235.73-.771 1.098-2.236.367-1.466.475-2.858.24-3.094-.236-.235-.73.771-1.098 2.236m71.107-.449c-.329 1.26-.392 2.498-.138 2.751.253.253.46-.065.46-.706 0-.642.9-1.167 2-1.167s2 .525 2 1.167c0 .641.207.959.46.706.254-.253.191-1.491-.138-2.751-.451-1.723-.813-1.96-1.461-.957-.718 1.113-1.004 1.113-1.722 0-.648-1.003-1.01-.766-1.461.957M95 188c0 .55.45 1 1 1s1-.45 1-1-.45-1-1-1-1 .45-1 1m5 0c0 .55.45 1 1 1s1-.45 1-1-.45-1-1-1-1 .45-1 1m311.405 51.25-1.905 2.25 2.25-1.905c2.114-1.79 2.705-2.595 1.905-2.595-.19 0-1.202 1.012-2.25 2.25M407 242c-.901.582-1.025.975-.309.985.655.008 1.469-.435 1.809-.985.767-1.242.421-1.242-1.5 0m-191 1c0 .55 1.602 1 3.559 1 2.118 0 3.309-.405 2.941-1-.34-.55-1.941-1-3.559-1s-2.941.45-2.941 1" fill-rule="evenodd"/></svg>