<svg xmlns="http://www.w3.org/2000/svg" width="169" height="167"><path fill="#776f65" stroke="#776f65" d="M0 83.506v83.505l84.75-.255 84.75-.256.256-83.25.255-83.25H80.25l-.6 3c-.33 1.651-.2 4.054.29 5.341.696 1.831.372 2.973-1.489 5.25C75.742 16.904 75.282 20 77.5 20c2.059 0 1.882.964-.674 3.686L74.651 26h2.175c1.196 0 2.192.563 2.214 1.25.022.688.711.012 1.532-1.5 2.466-4.546 6.734-3.898 5.836.887-.983 5.242-3.634 7.608-7.063 6.304-3.326-1.264-6.032-.474-4.539 1.326.768.925.031 1.729-2.887 3.149-3.29 1.6-3.919 2.397-3.919 4.967 0 3.057-.003 3.058-1.557.84C65.587 42 64.467 41 63.955 41 62.24 41 59 37.576 59 35.764c0-.985-.527-2.635-1.171-3.665-2.013-3.224 3.888-25.858 7.913-30.349C67.232.087 65.638 0 33.655 0H0v83.506M.472 84c.001 45.925.126 67.6.278 48.166l.276-35.333 2.371-3.167c1.304-1.741 2.678-4.179 3.054-5.416C6.827 87.012 7.507 86 7.963 86c.455 0 2.029-2.297 3.497-5.105 1.627-3.112 2.156-4.935 1.354-4.67-1.237.408-5.416 6.91-9.498 14.775-1.785 3.44-1.825 2.692-2.331-43.5C.595 11.859.471 20.68.472 84M100.559 4.532C98.662 5.967 98.668 6 100.809 6 102.09 6 103 5.377 103 4.5c0-1.81-.007-1.809-2.441.032m-28.367 8.543c.197.591.785 1.075 1.308 1.075s1.111-.484 1.308-1.075C75.005 12.484 74.417 12 73.5 12s-1.505.484-1.308 1.075m38.058 8.587c-1.421.574-1.693 3.946-.384 4.755.828.512 3.027-1.506 4.541-4.167.725-1.274-1.631-1.607-4.157-.588M79 36.289c0 .708-.898 3.05-1.996 5.203-2.299 4.51-1.251 6.946 1.801 4.184C79.824 44.754 81.337 44 82.168 44 83.565 44 86 40.158 86 37.953c0-.524-.873-.953-1.941-.953s-2.219-.45-2.559-1c-.88-1.425-2.5-1.238-2.5.289M63.5 38c-.34.55.084 1 .941 1S66 38.55 66 38s-.423-1-.941-1-1.219.45-1.559 1M31 43c0 .55 1.152 1 2.559 1 1.451 0 2.292-.433 1.941-1-.34-.55-1.491-1-2.559-1S31 42.45 31 43m-15.75 1.031c-3.514 1.412-2.965 4.285.666 3.487 2.086-.458 3.162-.201 3.779.902 1.322 2.362 7.851 3.446 6.973 1.157-.367-.957-.668-2.434-.668-3.281 0-1.269-.269-1.317-1.529-.272-1.266 1.051-1.924.899-3.815-.877-2.555-2.401-2.327-2.354-5.406-1.116m14.356 3.555c-.801 2.086-.902 2.005 3.506 2.801 2.53.457 3.959.232 4.775-.75.942-1.136.636-1.493-1.612-1.878-1.526-.262-3.504-.791-4.396-1.175-1.06-.457-1.847-.11-2.273 1.002M124 50c0 .55.45 1 1 1s1-.45 1-1-.45-1-1-1-1 .45-1 1m12.5 1c-.34.55-.168 1 .382 1s1.278-.45 1.618-1c.34-.55.168-1-.382-1s-1.278.45-1.618 1M26.717 57.97c-5.748 6.393-6.352 8.459-2.557 8.74 2.85.21 3.93-1.146 1.59-1.999-.823-.3-.177-1.609 1.89-3.833C30.433 57.872 32.92 53 31.66 53c-.261 0-2.485 2.236-4.943 4.97m136.498-1.408c-1.226.859-3.013 1.482-3.972 1.385-3.877-.394-4.338-.074-3.001 2.084 1.039 1.677.999 2.191-.234 2.958-1.188.739-1.238 1.181-.25 2.169.683.683 1.242 2.08 1.242 3.105 0 1.175.646 1.797 1.75 1.685.963-.098 1.975-.098 2.25.001 1.969.705 7.126.656 7.576-.071.573-.928-.207-1.301-4.826-2.314-2.456-.538-2.75-1.041-2.75-4.711v-4.109l4 .64c3.775.604 4 .498 4-1.872 0-2.957-2.365-3.345-5.785-.95m-57.632 3.304c-.431.697-.513 1.537-.183 1.867.895.895 1.871-.421 1.387-1.871-.338-1.016-.574-1.016-1.204.004m40.414.681c-1.373.76-3.284 1.398-4.247 1.418-2.178.044-2.298 1.888-.175 2.702 1.852.711 9.425-1.366 9.425-2.585 0-2.101-2.56-2.887-5.003-1.535M31.441 62.429c-1.703 1.253-1.745 1.504-.339 2.05 1.042.404 1.446 1.436 1.156 2.954-.246 1.283.046 2.637.648 3.009.602.372 1.094 1.549 1.094 2.617 0 1.274.687 1.941 2 1.941 2.088 0 2.696-1.452 1.038-2.476-.587-.363-.617-1.502-.077-2.922.649-1.707.377-3.161-1.023-5.464-2.214-3.64-1.99-3.555-4.497-1.709m64.654-.488c-.994.615-1.022.986-.115 1.547.657.406 1.644.288 2.194-.262 1.303-1.303-.373-2.339-2.079-1.285m-77.68 8.379c-3.748 3.98-3.931 4.998-.588 3.27 3.58-1.852 4.295-2.775 3.341-4.318-.473-.765-1.366-.425-2.753 1.048m143.279 9.319c-.799.799.104 2.361 1.365 2.361.518 0 .941-.675.941-1.5 0-1.546-1.18-1.987-2.306-.861m2.493 9.61c-2.689 1.294-2.341 4.946.775 8.122 2.662 2.714 4.038 1.204 4.038-4.43 0-5.247-.61-5.715-4.813-3.692m3.438 11.549c-.271.439-.08 1.451.426 2.25.717 1.134.922.959.934-.798.015-2.313-.493-2.856-1.36-1.452m-43.944 6.952c-.878 3.386-.006 7.276 2.145 9.565 3.179 3.384 2.844 5.685-.826 5.685-2.329 0-3 .445-3 1.992 0 1.095-.9 2.553-2 3.24-2.576 1.609-2.529 3.197.169 5.711 1.592 1.483 2.511 1.738 3.452.956.706-.585 2.092-.871 3.081-.634 1.52.364 1.411.599-.702 1.519-1.375.599-2.107 1.118-1.628 1.153.48.034.335.712-.323 1.505-.992 1.195-.544 1.62 2.627 2.488 2.103.575 5.819 2.377 8.258 4.004 2.438 1.626 4.87 2.687 5.404 2.357.898-.555 1.917-.774 7.054-1.517 1.041-.151 2.071.228 2.289.842.229.644-1.312 1.389-3.642 1.762-6.339 1.013-4.828 3.853 2.711 5.097 2.663.439 4.25 1.228 4.25 2.113 0 2.645 1.771 1.423 2.203-1.519.334-2.274-.006-3.046-1.516-3.441-1.19-.311-1.732-1.069-1.394-1.95.304-.792-.574-3.099-1.951-5.126-1.378-2.027-2.273-4.289-1.99-5.028.638-1.66-7.532-14.137-13.165-20.105-1.599-1.695-3.139-3.72-3.422-4.5-.413-1.139-.776-1.172-1.84-.169-1.596 1.505-2.925 1.619-2.925.25 0-.55.675-1 1.5-1 2.149 0 1.854-1.514-.865-4.448-2.796-3.018-3.35-3.131-3.954-.802M32 118.152c0 1.581-.554 3.762-1.23 4.845-1.017 1.629-.935 2.267.476 3.677 2.18 2.18 2.794 1.501 3.473-3.841.303-2.383.95-4.841 1.438-5.462.597-.76.062-1.287-1.635-1.612-2.223-.424-2.522-.141-2.522 2.393m-10.333 15.515c-1.491 1.491-.48 2.333 2.802 2.333 2.672 0 3.336-.344 2.893-1.5-.579-1.509-4.453-2.076-5.695-.833m8.64 2.269c-.393 1.503-1.364 1.924-4.338 1.883-4.472-.062-9.969 3.351-9.969 6.19 0 1.03-.457 2.155-1.015 2.5-2.939 1.817-5.486 14.152-2.735 13.246.688-.226 1.394-1.39 1.57-2.586.176-1.195 1.253-2.673 2.393-3.283 2.974-1.592 7.509-6.436 8.271-8.835.434-1.368 1.508-2.051 3.223-2.051 1.415 0 3.148-.787 3.852-1.75 1.094-1.495 1.728-1.58 4.37-.583 2.718 1.026 3.215.933 4.127-.771 1.341-2.505.298-4.143-2.145-3.368-1.242.394-2.134.056-2.523-.959-.854-2.225-4.472-1.963-5.081.367m9.3 14.646c-.969 2.525-.734 3.152 1.393 3.708 1.661.434 2 .03 2-2.384 0-3.15-2.342-4.064-3.393-1.324m6.729 1.985c-.834 2.172 1.282 4.215 2.797 2.7 1.28-1.28.487-4.267-1.133-4.267-.585 0-1.333.705-1.664 1.567M3 163.559c0 .857.45 1.281 1 .941.55-.34 1-1.041 1-1.559S4.55 162 4 162s-1 .702-1 1.559m7.079.024c.048 1.165.285 1.402.604.605.289-.722.253-1.585-.079-1.917-.332-.332-.568.258-.525 1.312" fill-rule="evenodd"/><path fill="#5b5453" stroke="#5b5453" d="M0 2.045c0 1.796.427 1.966 3.5 1.389C6.853 2.805 8.354 4.045 6 5.5c-.55.34-1 1.669-1 2.954 0 1.285-1.117 3.396-2.483 4.691L.035 15.5.017 42.75C.006 60.262.357 70 1 70c1.324 0 1.292 2.736-.038 3.179-.653.218-.931 4.202-.75 10.758L.5 94.349 4 87.535c1.925-3.748 4.998-8.427 6.829-10.398 4.129-4.446 10.166-12.608 10.185-13.771.008-.476 1.808-2.855 4-5.286C27.206 55.649 29 53.287 29 52.83c0-1.621-2.539-.799-3.807 1.233-1.964 3.145-5.48 2.16-6.665-1.866-.788-2.68-1.369-3.203-3.079-2.774-1.549.389-2.722-.301-4.424-2.604-2.709-3.663-1.752-6.444 2.106-6.12 1.303.109 4.745.442 7.648.74 5.168.53 7.455-.129 11.408-3.287.928-.741 2.246-1.002 2.93-.579 3.186 1.969 17.118-.717 18.931-3.65.464-.751 1.205-1.004 1.646-.562.442.441.129 1.328-.696 1.971-2.215 1.727-1.317 7.077 1.696 10.089C58.405 47.132 58.789 48 57.836 48c-.79 0-1.928-.492-2.53-1.094-.601-.601-1.811-.939-2.688-.75-1.229.265-.77 1.214 2.007 4.147 3.385 3.575 4.12 6.39.991 3.793-1.419-1.177-5.95-1.095-7.176.131-.35.349-1.283.387-2.075.083C44.784 53.703 41 56.631 41 58.461c0 .633 1.067 2.597 2.371 4.364 1.806 2.447 2.301 4.25 2.08 7.562-.2 2.986.306 5.25 1.615 7.23 2.992 4.528 3.599 5.679 4.678 8.883.555 1.65 1.316 3.729 1.69 4.621 1.7 4.049-4.792 6.383-6.616 2.379-.626-1.375-1.711-2.5-2.411-2.5s-1.558-1.013-1.907-2.25c-1.689-5.992-3.069-7.999-7.137-10.383C31.153 75.9 31 75.638 31 70.905 31 67.286 30.62 66 29.55 66c-1.897 0-3.417 2.791-2.803 5.142.342 1.305-.052 1.858-1.321 1.858-1.71 0-1.706.075.071 1.374 1.802 1.318 1.764 1.48-.935 3.981C21.547 81.149 20 81.028 20 78c0-3.047-1.804-3.287-4.492-.599C13.954 78.956 13 81.041 13 82.887c0 2.052-.593 3.167-1.908 3.584-2.199.698-3.456 3.186-2.048 4.056 1.866 1.154.947 4.52-1.544 5.655-2.017.919-2.5 1.861-2.5 4.872 0 2.395-.537 3.938-1.5 4.308-.825.316-1.5 1.714-1.5 3.107C2 109.861 1.55 111 1 111s-1 .9-1 2 .45 2 1 2 1 .675 1 1.5-.453 1.5-1.007 1.5c-.65 0-.982 8.681-.936 24.506l.069 24.505 84.687-.255 84.687-.256v-30.287c0-22.3-.313-30.48-1.187-31.02-.654-.404-1.683-1.85-2.288-3.213-.605-1.364-2.201-4.28-3.546-6.48-1.345-2.2-2.454-4.327-2.463-4.727-.013-.572 7.566-4.773 8.611-4.773.139 0 .429 1.687.645 3.75.215 2.063.4-1.2.41-7.25.01-6.05-.169-9.763-.398-8.25S168.257 77 167.511 77s-1.863 1.535-2.482 3.412c-1.252 3.795-3.545 5.292-4.458 2.912-.472-1.229-.893-1.302-2.039-.351-.794.66-1.914.909-2.488.554-1.565-.967-1.257-3.527.425-3.527.891 0 1.243-.587.896-1.492-.327-.851.116-1.755 1.031-2.107 3.55-1.362 1.226-2.401-5.37-2.401-6.866 0-7-.051-8.615-3.25-.903-1.788-2.939-4.295-4.526-5.572C137 62.855 136.02 60 138.107 60c.609 0 .849-.672.534-1.494-.429-1.116.423-1.653 3.374-2.124 3.901-.624 6.892-2.808 5.607-4.093-.603-.603-7.914.504-14.891 2.256-2.685.674-10.731-3.314-10.731-5.319 0-1.639 5.294-6.327 6.585-5.832.759.292 3.256-.132 5.549-.941 2.293-.809 4.663-1.414 5.267-1.344 3.689.429 6.599-.265 6.599-1.574 0-.805.855-1.922 1.9-2.482 2.338-1.251 3.617 1.113 2.117 3.914-1.073 2.005 1.081 4.709 2.87 3.603.536-.332 1.287-.097 1.669.521.441.713 2.156.891 4.686.486 3.88-.62 3.973-.568 3.355 1.893-.59 2.352-.384 2.53 2.924 2.53h3.559l-.165 9.042c-.09 4.973.117 9.323.46 9.667.344.343.589-11.938.546-27.292-.043-15.355-.306-27.354-.583-26.667-.898 2.225-9.005 1.564-10.712-.874-1.709-2.44-8.626-1.968-8.626.588 0 .755-.252 2.029-.56 2.831-.371.967.291 1.672 1.965 2.092 3.176.797 2.418 3.613-.972 3.613-2.149 0-7.433 4.435-7.433 6.24 0 .418-.727.76-1.615.76-1.476 0-1.472-.218.042-2.528.911-1.391 1.377-2.98 1.037-3.531-1.113-1.8-13.464 1.191-13.464 3.26 0 .557-1.36.666-3.25.261-4.282-.919-4.932-1.368-4.022-2.781.419-.65.847-3.206.952-5.681.105-2.475.285-5.4.4-6.5.115-1.1-.128-2.784-.539-3.742-.531-1.236-.211-1.907 1.105-2.313 1.02-.315 3.204-1.203 4.854-1.974 1.65-.771 4.238-1.691 5.75-2.045 4.164-.973 3.681 2.276-.5 3.359-4.752 1.231-4.572 4.686.25 4.792 1.925.042 4.694.417 6.153.834 2.205.629 2.627.448 2.5-1.077-.106-1.266.852-2.13 3.094-2.79 2.06-.607 3.156-1.52 3-2.5-.305-1.906 9.074-2.745 12.17-1.089 1.535.822 2.172.708 2.854-.511 1.074-1.918 4.458-2.57 5.464-1.052.456.688.74.445.75-.642C169.999.119 167.789 0 137.441 0c-21.644 0-32.35.338-31.935 1.009 1.773 2.869-3.61 7.51-7.256 6.255-1.334-.46-1.759-3.249-.5-3.286.412-.012 1.875-.902 3.25-1.978l2.5-1.956L92.75.022C86.235.009 82 .394 82 1c0 .55.605 1 1.345 1s2.09.823 3 1.829C88.116 5.785 88.544 8 87.152 8c-.467 0-2.942 1.881-5.5 4.18C76.951 16.404 75.751 19 78.5 19c.825 0 1.5.723 1.5 1.607 0 1.022.549 1.396 1.509 1.028 4.109-1.577 6.194.899 5.707 6.779-.397 4.776-.217 5.586 1.24 5.586 1.382 0 1.575.581 1.025 3.085C88.719 40.554 83.57 46 81.052 46c-.909 0-2.162.51-2.785 1.133-2.569 2.569-4.223.179-3.692-5.339l.509-5.294-3.042 3.312C70.369 41.633 69 43.921 69 44.895c0 .974-.262 2.033-.582 2.353C67.434 48.233 58 38.318 58 36.299c0-1.044-.509-2.408-1.132-3.031C55.288 31.688 57.383 18.13 60 13c1.1-2.156 2-5.701 2-7.877 0-2.229.546-4.176 1.25-4.461.688-.277-.839-.54-3.393-.583-3.259-.055-4.815.368-5.219 1.421-.753 1.963-5.295 1.935-6.4-.04-.7-1.25-2.625-1.485-10.239-1.25L28.622.5l-.807 3.124C26.689 7.983 24 10.183 24 6.745c0-1.375.675-3.06 1.5-3.745 4.081-3.387-1.82-4.201-7.046-.972l-3.282 2.029.531-2.029C16.002.885 15.746 0 15.117 0 14.502 0 14 .45 14 1s-.675 1-1.5 1S11 1.55 11 1 8.525 0 5.5 0C.626 0 0 .233 0 2.045m.079.538c.048 1.165.285 1.402.604.605.289-.722.253-1.585-.079-1.917C.272.939.036 1.529.079 2.583M8.5 4c.34.55.816 1 1.059 1S10 4.55 10 4s-.477-1-1.059-1-.781.45-.441 1m98.026 3.941c-1.011 2.244-1.604 4.314-1.317 4.601.287.287 1.087-.842 1.778-2.51C107.965 7.67 108.866 7 111.062 7c1.551 0 3.098-.45 3.438-1 .34-.55.029-1.006-.691-1.014-.72-.007-2.239-.263-3.376-.568-1.673-.45-2.418.222-3.907 3.523M45.25 5.706C43.451 6.052 43 6.81 43 9.488c0 1.842-.273 4.06-.607 4.93-.733 1.911 1.401 2.089 5.06.421C49.974 13.691 51.003 11 48.921 11c-.68 0-.836-1.113-.421-3 .362-1.65.286-2.939-.171-2.864-.456.075-1.842.331-3.079.57M0 10.059c0 .582.45.781 1 .441s1-.816 1-1.059S1.55 9 1 9s-1 .477-1 1.059M.44 42.5c0 15.4.139 21.56.308 13.689.169-7.87.169-20.47-.001-28C.578 20.66.439 27.1.44 42.5M99 17.08c0 1.445 1.951 2.047 3.617 1.115 1.362-.763 1.198-.997-.992-1.416-1.444-.276-2.625-.141-2.625.301m59.165 2.771c-1.005.656-.758 1.026 1 1.497 3.905 1.045 7.037.761 6.591-.598-.493-1.503-5.718-2.122-7.591-.899m-48.915 1.823c-2.606 1.818-2.863 3.572-.777 5.304 1.211 1.004 2.066.593 4.806-2.312 3.135-3.325 3.211-3.567 1.277-4.086-2.7-.726-2.695-.727-5.306 1.094M93 27.035c0 2.766.185 2.936 2.083 1.921 1.987-1.064 2.003-1.204.345-3.036C93.145 23.398 93 23.465 93 27.035m6.688 2.611c-1.374 1.374-.662 3.496 1.062 3.164.963-.186 1.75-.969 1.75-1.74 0-1.579-1.764-2.472-2.812-1.424m14.705 5.936c.334.87.607 1.995.607 2.5 0 1.569 3.029 1.006 3.677-.683.634-1.651-1.148-3.357-3.534-3.384-.829-.009-1.121.601-.75 1.567M97.2 42.2c-1.864 1.864-1.43 2.8 1.3 2.8 1.833 0 2.5-.533 2.5-2 0-2.228-1.96-2.64-3.8-.8m33.18 5.252c-.704 1.834.32 3.548 2.12 3.548 2.058 0 2.838-1.888 1.464-3.544-1.539-1.853-2.874-1.855-3.584-.004m-89.476 2.163c-1.16 1.398-1.086 1.566.545 1.25 1.037-.201 2.073-.927 2.301-1.615.594-1.784-1.26-1.546-2.846.365M148 49c0 .55.702 1 1.559 1s1.281-.45.941-1c-.34-.55-1.041-1-1.559-1s-.941.45-.941 1m-86.5 2c-.34.55.11 1 1 1s1.34-.45 1-1c-.34-.55-.79-1-1-1-.21 0-.66.45-1 1m32.091 7.241c.734 3.238-1.732 4.776-4.694 2.927-1.516-.947-2.031-.787-2.943.918-.952 1.779-.839 2.02.817 1.74 1.057-.179 2.646.275 3.532 1.01.958.796 2.133.998 2.903.5.712-.46 1.969-.859 2.794-.887 8.444-.289 12.955-2.269 12.985-5.699.018-2.052-2.527-2.345-3.685-.425-1.287 2.133-4.049 2.683-5.385 1.073-.804-.97-1.57-1.143-2.212-.501-.642.642-1.63.224-2.857-1.208L92.969 55.5l.622 2.741M7 59c-1.967 1.539-2.137 1.96-.797 1.978C8.448 61.007 13 58.905 13 57.839c0-1.505-3.442-.84-6 1.161m33 9.441c0 .857.45 1.559 1 1.559s1-.423 1-.941-.45-1.219-1-1.559c-.55-.34-1 .084-1 .941M.374 83.5c.002 6.05.167 8.396.366 5.213.199-3.182.197-8.132-.004-11C.535 74.846.372 77.45.374 83.5m43.223-1.656c-.346.56-.142 1.319.453 1.687 1.538.95 2.53-.351 1.246-1.635-.718-.718-1.277-.735-1.699-.052m16.07.823c-1.498 1.497-.735 3.634.833 2.333.825-.685 1.5-1.64 1.5-2.122 0-1.036-1.384-1.161-2.333-.211m28.564 15.856c-.402.702-4.668 3.118-9.481 5.368-4.812 2.25-8.75 4.527-8.75 5.06 0 1.072-4.184 2.279-14 4.038-7.665 1.373-8.328 1.857-7.432 5.426.506 2.017 1.092 2.524 2.305 1.995.895-.39 4.454-1.035 7.909-1.434 3.704-.427 7.075-1.442 8.213-2.471 1.062-.961 2.61-1.487 3.441-1.168.858.329 1.931-.159 2.482-1.129.817-1.437 1.295-1.509 3.013-.458 2.836 1.736 3.747 1.594 7.386-1.152 1.751-1.321 4.758-3.073 6.683-3.893 5.986-2.551 7.084-3.827 6.176-7.177-.906-3.344-6.533-5.472-7.945-3.005M123 105.951c0 6.885-1.717 14.633-4.576 20.649-1.333 2.804-2.424 5.971-2.424 7.036 0 2.031 7.356 8.364 9.715 8.364 2.709 0 10.978 4.928 14.973 8.923 2.785 2.785 4.628 3.893 5.755 3.46 1.341-.514 1.546-.18 1.069 1.741-.751 3.027 2.55 5.449 5.369 3.939 5.918-3.167 5.728-8.113-.59-15.316-1.953-2.228-3.291-4.832-3.291-6.409 0-1.529-1.628-4.817-3.837-7.747-2.11-2.8-4.421-6.216-5.135-7.591-.714-1.375-2.7-3.924-4.413-5.664-4.32-4.389-8.032-9.246-10-13.086-2.237-4.364-2.615-4.118-2.615 1.701M.158 113c0 1.375.227 1.938.504 1.25.278-.687.278-1.812 0-2.5-.277-.687-.504-.125-.504 1.25m29.785 2.834c-1.432 1.494-3.143 5.061-3.892 8.114-.736 2.996-2.398 6.592-3.694 7.99-1.296 1.398-2.357 3.264-2.357 4.147 0 .883-.889 2.409-1.974 3.392-1.086.983-2.265 2.74-2.619 3.905-.354 1.165-1.185 2.793-1.848 3.618-1.457 1.815-3.257 7.971-4.021 13.75L8.976 165h4.39c5.219 0 8.169-2.404 5.418-4.416-2.041-1.493-1.17-2.813 2.716-4.115 2.297-.77 3.079-1.704 3.338-3.987.384-3.375 1.953-5.729 3.275-4.912.488.301.887.071.887-.511S28.523 146 27.941 146s-.781-.45-.441-1 1.866-1 3.392-1c1.526 0 3.085-.311 3.465-.691.38-.379 2.103-.717 3.829-.75 4.326-.082 6.053-4.592 3.017-7.88-4.71-5.102-6.357-12.987-3.595-17.204 1.483-2.263 1.48-2.504-.043-3.088-.908-.349-1.928-.357-2.266-.019-.338.338-1.107.206-1.708-.292-.704-.585-2.002.041-3.648 1.758M57 114c0 .55.702 1 1.559 1s1.281-.45.941-1c-.34-.55-1.041-1-1.559-1s-.941.45-.941 1M.411 135c0 9.625.15 13.563.334 8.75.183-4.813.183-12.688 0-17.5-.184-4.812-.334-.875-.334 8.75M51 136.5c0 .825.177 1.5.393 1.5.216 0 .652-.675.969-1.5.316-.825.139-1.5-.393-1.5-.533 0-.969.675-.969 1.5m-17.262 10.387c-1.683.619-1.683.718 0 2.218.969.864 2.761 2.756 3.982 4.206 1.222 1.45 3.472 2.891 5 3.202 1.529.312 4.015 1.201 5.524 1.976 2.567 1.32 2.779 1.267 3.305-.828.887-3.535-1.135-7.656-3.774-7.693-1.251-.017-3.138-.685-4.193-1.483-1.438-1.088-2.256-1.17-3.269-.33-1.016.843-1.779.745-3.082-.398-.982-.861-2.494-1.238-3.493-.87M.274 160.5c-.051 4.831.173 6.226.726 4.5.44-1.375.845-1.937.9-1.25.182 2.274 4.1 1.446 4.1-.867 0-1.706-.474-2.026-2.45-1.648-2.234.427-2.482.108-2.825-3.633-.215-2.351-.408-1.113-.451 2.898" fill-rule="evenodd"/><path fill="#4b4545" stroke="#4b4545" d="M29.439 1.7c-1.792 6.011-3.997 8.806-7.189 9.113-3.392.327-4.35-1.098-1.726-2.566 1.316-.737 1.435-2.051.55-6.086-.041-.186-1.459.826-3.151 2.25C16.231 5.835 14.531 7 14.146 7c-.385 0-2.056 1.238-3.714 2.75-1.657 1.512-4.277 3.577-5.822 4.588-2.124 1.39-2.697 2.427-2.349 4.249.254 1.326-.137 3.199-.868 4.162C.412 24.041.055 28.925.032 41.381L0 58.262l3.75-.725c2.062-.399 5.037-.966 6.611-1.261 3.635-.68 5.103 1.366 3.135 4.37-1.27 1.939-1.239 2.131.293 1.836.941-.181 2.097-.363 2.568-.405.471-.043.611-.719.309-1.504-.301-.785.049-1.921.777-2.525.99-.823 1.471-.715 1.909.426.322.84 1.128 1.526 1.792 1.526.664 0-.521-1.739-2.633-3.863-2.531-2.546-4.468-3.7-5.681-3.382-2.919.763-4.506-1.369-5.166-6.941-.699-5.901.036-7.244 5.129-9.372C17.147 34.623 18 34.632 18 36.5c0 2.477 1.981 1.698 3.797-1.494 1.854-3.259 3.197-3.651 6.161-1.8 1.576.984 2.276.892 3.815-.5 2.509-2.271 3.557-2.151 4.74.544 1.328 3.026 13.203 3.222 16.463.272C56.648 30.199 58.607 18 55.469 18c-.843 0-1.777-.64-2.078-1.423-.442-1.153-.91-1.058-2.468.5C49.865 18.135 48.341 19 47.535 19c-.805 0-1.93.87-2.5 1.934C43.653 23.518 43.726 24 45.5 24c3.661 0-.916 4.594-5.168 5.187-3.156.441-3.17.422-3.593-4.622-.234-2.786-1.013-6.444-1.731-8.129-1.408-3.304-.822-4.508 4.841-9.926C43.83 2.699 42.426.549 35.728.2c-4.829-.252-5.838-.012-6.289 1.5m78.706-.126c3.412 3.412 14.288 3.95 17.855.883.825-.709 2.85-1.485 4.5-1.724 1.65-.238-3.059-.501-10.464-.583-12.248-.136-13.322-.008-11.891 1.424M150.5 1c.797 1.29 3.203 1.29 4 0 .352-.569-.509-1-2-1s-2.352.431-2 1M88.406 2.152c-.391.634.144 1.785 1.191 2.561 2.109 1.561-.214 4.217-7.686 8.787-3.684 2.253-5.472 5.373-2.297 4.007 4.599-1.979 8.491-1.823 9.063.365.303 1.158.982 1.838 1.511 1.512.612-.379.614.077.002 1.261-2.724 5.28-3.401 7.363-2.854 8.788 1.483 3.865 6.079-.267 5.125-4.609-.603-2.745-.465-2.909 2.198-2.626 3.048.324 3.4-1.087 1.823-7.308-.664-2.619 3.498-5.359 4.351-2.864.588 1.719 2.167 1.04 2.167-.932 0-1.31-.548-1.775-1.75-1.485-1.083.26-3.571-1.299-6.529-4.094-5.28-4.988-5.303-5-6.315-3.363m24.15 5.716c-1.891.406-3.633 1.811-4.87 3.929-2.26 3.871-1.637 5.05 1.72 3.253 3.089-1.653 4.929-.52 4.156 2.559-.484 1.93-.211 2.391 1.419 2.391 1.11 0 2.919.9 4.019 2s2.032 1.887 2.07 1.75c.039-.137.186-3.175.327-6.75.375-9.537-.885-10.839-8.841-9.132M57.986 9.25c-.007.688-.27 2.375-.585 3.75l-.571 2.5 2.063-2.5c2.443-2.961 2.691-5 .607-5-.825 0-1.506.563-1.514 1.25m-30.412 9.417c-.352.917-.182 2.125.377 2.684 1.203 1.203 1.572.892 2.492-2.101.831-2.703-1.846-3.247-2.869-.583M107 21.059c0 .582.45.781 1 .441s1-.816 1-1.059-.45-.441-1-.441-1 .477-1 1.059m-4.333 3.191c-1.304 3.166-1.265 3.27 1.497 4.029 3.395.932 3.548 2.009.695 4.862-1.707 1.707-2.199 3.56-2.423 9.123-.293 7.276-1.998 11.127-3.085 6.969-.693-2.647-2.344-2.984-2.366-.483-.013 1.496-.157 1.532-.985.25-1.57-2.429-1.149-6.023 1.139-9.725l2.139-3.462-2.551-2.365c-3.1-2.875-4.913-1.467-5.249 4.079C91.263 41.071 89.556 44 87.706 44c-.577 0-1.759.582-2.627 1.293-2.24 1.835-8.877 3.95-10.073 3.211-1.586-.981-1.172 1.113.494 2.496.825.685 1.5 2.288 1.5 3.563 0 1.276.457 2.602 1.016 2.947.559.346.767 1.032.462 1.526-.919 1.486-6.669-.055-11.856-3.177-5.127-3.085-6.397-3.123-5.066-.152.441.986.883 2.527.981 3.423.098.897 1.406 3.24 2.906 5.207 1.501 1.967 2.438 4.046 2.084 4.62-.666 1.077-.125 1.232 4.973 1.428 2.086.08 3.301.801 3.987 2.365.543 1.237 1.609 2.25 2.368 2.25.76 0 2.919 1.35 4.798 3s3.894 3 4.477 3c.584 0 2.412.962 4.062 2.137 5.234 3.726 15.895 2.176 21.263-3.093 4.641-4.555 5.281-4.76 7.153-2.294 1.894 2.495 1.718 3.564-1.128 6.844-1.386 1.599-3.043 4.706-3.682 6.906-.639 2.2-1.946 4.774-2.905 5.719-.959.946-2.529 3.048-3.488 4.672-2.042 3.457-3.676 4.4-12.355 7.127-3.548 1.115-8.273 3.081-10.5 4.37-2.228 1.288-5.85 2.91-8.05 3.603-11.166 3.52-16.091 7.026-9.809 6.983 3.408-.023 6.843-1.051 20.809-6.229 2.2-.816 6.531-1.764 9.625-2.108 5.467-.608 5.625-.557 5.625 1.815 0 1.889-.592 2.508-2.625 2.744-2.001.232-2.698.936-2.932 2.96-.207 1.787-1.051 2.843-2.579 3.226-2.911.731-4.614 4.51-4.614 10.238 0 6.882-3.904 5.502-5.476-1.936-1.021-4.829-4.024-3.093-4.024 2.324 0 5.487-2.761 7.271-12 7.755-3.3.173-8.506.571-11.57.885-5.726.586-7.45-.181-9.784-4.352-1.397-2.496-4.538-.897-3.189 1.623 1.537 2.872 1.39 3.003-2.707 2.435-2.83-.392-3.382-.258-2.25.548.825.587 2.288 1.074 3.25 1.083.962.008 1.75.465 1.75 1.015 0 .55 1.055 1 2.345 1 1.29 0 3.16.9 4.155 2 1.377 1.522 3.08 2 7.12 2 4.304 0 5.514.383 6.391 2.021 1.57 2.933.664 3.664-5.498 4.434-3.993.499-5.513 1.113-5.513 2.225 0 1.783-4.446 1.069-7-1.124-.825-.708-2.7-1.572-4.166-1.92-1.467-.348-4.425-2.321-6.575-4.384-2.365-2.271-4.982-3.81-6.631-3.899-2.657-.144-2.626-.072 1.245 2.903l3.968 3.05-3.17 2.326c-1.744 1.279-4.296 2.833-5.671 3.454a114.915 114.915 0 0 0-4.236 2.022c-2.781 1.429-21.503 1.126-22.102-.358-.277-.687-.54-.235-.583 1.006L0 167.011l84.75-.255 84.75-.256-.088-29.136c-.085-28.283-.15-29.216-2.25-31.885-1.189-1.512-2.162-3.143-2.162-3.624 0-.482-1.602-3.155-3.56-5.94-3.852-5.481-3.632-7.148 1.101-8.336 1.352-.339 2.459-1.059 2.459-1.598 0-1.279-1.706-1.266-2.5.019-1.125 1.82-5.166 1.039-7.945-1.537-2.649-2.454-2.683-2.619-1.066-5.086 2.116-3.23 1.584-3.71-4.017-3.625-3.753.056-4.821-.356-6.14-2.367-1.024-1.563-2.205-2.243-3.297-1.896-2.058.653-4.773-4.073-2.733-4.76.888-.299.832-.847-.214-2.114-.996-1.207-1.621-1.37-2.125-.556-.516.835-.902.848-1.397.048-.376-.609-.207-1.107.375-1.107 2.339 0 .857-3.686-2.191-5.448-8.761-5.065-10.851-7.456-9.24-10.572 1.889-3.652 5.878-7.98 7.355-7.98.624 0 1.135-.9 1.135-2 0-1.455-.667-2-2.445-2-1.674 0-2.872-.868-3.796-2.75-.945-1.924-2.012-2.678-3.555-2.512-1.838.199-2.204-.263-2.204-2.781 0-1.794-.624-3.259-1.537-3.61-1.937-.743-5.463 2.361-5.463 4.808 0 1.015-.59 1.845-1.312 1.845-1.521 0-6.021-5.744-6.021-7.685 0-2.097-.564-1.551-2 1.935m47.567 2.372c-4.821 3.231-6.37 5.558-4.478 6.727 1.641 1.014 6.088-.645 6.56-2.448.381-1.46 1.406-1.901 4.416-1.901 2.886 0 4.538-.658 6.264-2.496 2.913-3.1 1.963-4.363-1.549-2.061-2.347 1.538-2.789 1.557-4.298.192-1.522-1.377-2.177-1.189-6.915 1.987M113 34.802c0 3.814-.945 4.557-3.2 2.517-2.632-2.382-4.788-.043-4.084 4.431.588 3.741 4.284 4.82 4.284 1.25 0-1.715.678-2.005 4.75-2.033 10.483-.074 12.342-8.281 2-8.83-3.507-.187-3.75-.014-3.75 2.665m47.732.697c-3.145 3.552-3.24 3.585-3.77 1.322-.331-1.41-1.411-2.446-2.753-2.641-3.26-.471-2.983 4.198.437 7.368 3.232 2.995 4.512 3.038 10.092.337 4.095-1.983 4.35-2.343 4.066-5.75-.438-5.244-3.761-5.506-8.072-.636m-105.138 2.24c-1.361 1.362-.333 3.984 2.947 7.511C61.837 48.796 65 50.159 65 48.033c0-1.443-8.717-10.983-9.406-10.294M167.2 45.2c-1.633 1.633-1.508 2.8.3 2.8.833 0 1.5-.889 1.5-2 0-2.331-.186-2.414-1.8-.8M131.5 49c.34.55.816 1 1.059 1s.441-.45.441-1-.477-1-1.059-1-.781.45-.441 1m-60.551 3.905c.629 1.175.871 2.577.538 3.116-.333.538-.099.979.52.979 1.575 0 .801-5.245-.854-5.789-1.078-.354-1.119-.015-.204 1.694m39.061.583c-2.697 3.249-7.991 5.772-9.494 4.525-.786-.652-1.926-.877-2.535-.501-.609.376-1.95-.079-2.981-1.012-2.379-2.153-4.411-1.137-3 1.5 1.423 2.66-.894 3.858-2.714 1.403-1.335-1.802-1.478-1.81-2.708-.153C84.985 61.396 84 61.492 84 59.5c0-1.674-1.561-2.019-2.472-.546-1.406 2.276.795 6.154 4.339 7.644 3.348 1.408 4.182 1.37 10.633-.486 3.85-1.107 8.11-2.147 9.467-2.312 1.828-.222 2.713-1.163 3.42-3.638.524-1.836 1.998-4.023 3.274-4.86 2.357-1.544 2.305-3.302-.098-3.302-.725 0-1.874.67-2.553 1.488m29.74 1.174c.688.278 1.813.278 2.5 0 .688-.277.125-.504-1.25-.504s-1.937.227-1.25.504M0 64.893c0 1.649.645 3.141 1.5 3.469 1.916.735 1.934 4.682.032 7.197C.554 76.851.053 79.99.032 84.95c-.036 8.288.447 8.309 4.501.198 1.471-2.943 4.428-7.053 6.571-9.133C13.247 73.936 15 71.786 15 71.239c0-.547.675-1.554 1.5-2.239 3.009-2.498 1.827-4.308-2.375-3.636-3.004.48-4.446.172-6.408-1.372C3.748 60.87 0 61.308 0 64.893m28.608 15.686c-.333.869-.333 2.669.001 4 .669 2.666-1.273 3.461-2.247.921C25.445 83.113 24 83.761 24 86.559c0 1.451-.433 2.292-1 1.941-.55-.34-1.014-1.604-1.032-2.809-.03-2.101-2.08-5.691-3.249-5.691-.308 0-.847 1.463-1.198 3.25-1.068 5.444-2.65 7.844-4.735 7.182-1.591-.505-1.768-.208-1.207 2.029.462 1.839.109 3.227-1.185 4.656-1.753 1.937-1.759 2.182-.13 5.021 1.709 2.977 1.704 2.994-1.791 6.592-2.264 2.332-3.72 4.963-4.116 7.439C3.992 118.451 3.19 120 2.372 120c-1.701 0-1.764 1.208-.147 2.825.967.967.967 1.639 0 3.186-2.291 3.669-1.623 21.597.871 23.343 1.452 1.018 1.9 2.084 1.459 3.473-.35 1.103-.15 2.305.445 2.673.595.368.828 1.467.518 2.443-.318 1.001.134 2.353 1.036 3.102 2.059 1.709 3.417-.188 3.253-4.547-.067-1.788 1.375-5.649 3.551-9.505 2.014-3.571 4.453-8.068 5.419-9.993.966-1.925 2.608-4.767 3.648-6.316 1.04-1.548 2.382-4.964 2.983-7.591.657-2.873 2.433-6.3 4.457-8.6l3.366-3.825 4.232 2.312c2.71 1.48 5.095 2.1 6.634 1.723 1.322-.323 5.103-1.281 8.403-2.13 3.3-.848 7.484-1.549 9.298-1.557 2.219-.011 4.055-.834 5.614-2.516 1.275-1.375 2.722-2.5 3.216-2.5.494 0 3.237-1.575 6.096-3.5 2.858-1.925 5.665-3.5 6.237-3.5.571 0 1.039-.422 1.039-.937 0-1.682-7.425.18-10.327 2.59-2.905 2.412-5.165 2.978-6.068 1.517-.806-1.304-9.617-.459-11.452 1.098-4.528 3.843-10.469 5.755-12.912 4.154-1.416-.928-2.158-2.202-1.878-3.228 2.213-8.108-.086-20.405-3.922-20.981-4.999-.75-6.441-1.362-6.441-2.732 0-1.964-1.626-1.897-2.392.098m138.059-.912c-1.08 1.08-.771 2.079.833 2.695 1.02.391 1.5-.054 1.5-1.393 0-1.965-1.072-2.564-2.333-1.302m-27.588 3.916c.048 1.165.285 1.402.604.605.289-.722.253-1.585-.079-1.917-.332-.332-.568.258-.525 1.312m-45.337 3.542C92.784 87.661 92 88.527 92 89.05c0 1.563 3.015 1.073 3.655-.593.797-2.077.183-2.505-1.913-1.332m46.879 3.826c-2.766 5.29-2.048 7.476 1.343 4.085 1.729-1.729 3.056-9.036 1.641-9.036-.218 0-1.56 2.228-2.984 4.951m-18.468 18.799c-.859 6.565-2.236 11.828-4.214 16.112-1.617 3.5-2.939 7.264-2.939 8.366 0 2.427 7.974 9.986 9.802 9.291 1.556-.593 11.948 4.522 14.5 7.135 5.169 5.296 8.698 9.747 8.698 10.972 0 3.368 4.631 1.121 9.21-4.468 2.262-2.761.765-7.387-3.866-11.956-2.219-2.189-3.344-4.245-3.344-6.113 0-3.321-5.401-11.221-19.885-29.089-1.561-1.925-3.587-4.963-4.502-6.75-2.192-4.28-2.002-4.637-3.46 6.5M44 118.059c0 .582.45.781 1 .441s1-.816 1-1.059-.45-.441-1-.441-1 .477-1 1.059m-4.877 2.813c-3.036 2.335-1.567 7.922 3.238 12.31 3.682 3.363 5.189 3.526 6.689.725 1.221-2.283.506-6.907-1.069-6.907-.54 0-.989-.787-.998-1.75-.015-1.472-3.986-6.298-5.124-6.228-.197.012-1.429.845-2.736 1.85M94.8 122.2c.933.933 1.467.933 2.4 0 .933-.933.667-1.2-1.2-1.2s-2.133.267-1.2 1.2m22.562 25.3c-.317.825-1.203 1.5-1.969 1.5s-1.393.9-1.393 2-.65 2-1.444 2c-3.509 0-6.712 4.324-5.342 7.212 2.018 4.256 4.292 4.883 16.564 4.573l11.278-.285-2.989-3.269c-1.644-1.798-2.77-3.841-2.502-4.54.294-.766-.905-1.774-3.019-2.538-2.373-.858-4.035-2.381-5.14-4.711-1.753-3.693-3.121-4.349-4.044-1.942m-43.768 4.368c-4.407.958-4.47 4.278-.072 3.827 4.175-.429 7.192-2.625 5.275-3.841-.713-.453-1.522-.777-1.797-.72-.275.056-1.808.387-3.406.734M1 156.059c0 .582.45.781 1 .441s1-.816 1-1.059S2.55 155 2 155s-1 .477-1 1.059m117.545 1.285c-2.248 1.643-1.449 3.25 1.939 3.898 2.964.566 6.534-1.613 5.016-3.062-1.886-1.802-5.106-2.189-6.955-.836m-24.732 2.339c.721.289 1.584.253 1.916-.079.332-.332-.258-.568-1.312-.525-1.165.048-1.402.285-.604.604M.158 165c0 1.375.227 1.938.504 1.25.278-.687.278-1.812 0-2.5-.277-.687-.504-.125-.504 1.25" fill-rule="evenodd"/><path fill="#302b2b" stroke="#302b2b" d="M31.203 1.256c-.573.69-1.337 2.428-1.696 3.861-.894 3.56-6.26 9.883-8.389 9.883-.955 0-2.609-.661-3.677-1.468C15.226 11.856 12 11.524 12 12.971c0 .535-1.463 1.36-3.25 1.835-2.826.751-3.209 1.236-2.932 3.723.208 1.869-.331 3.398-1.557 4.415-2.325 1.928-4.299 6.399-3.418 7.74.362.55 2.839 1.824 5.506 2.831 4.703 1.777 5.011 1.777 10.267-.01 2.98-1.013 5.877-2.394 6.438-3.07.561-.676 1.963-.982 3.117-.68 1.507.394 1.96.154 1.609-.853-.268-.771-1.228-1.27-2.134-1.108-2.403.429-2.017-1.464.429-2.103 1.726-.452 1.896-.878 1.008-2.535-1.21-2.262-.357-8.156 1.182-8.156 1.181 0 3.422-2.633 4.682-5.5C37.331-.476 37.246 0 34.636 0c-1.315 0-2.86.565-3.433 1.256M110 1.5c1.427 1.72 6.56 2.02 7.536.441.368-.595 1.883-.788 3.464-.441 1.581.347 3.096.154 3.464-.441.44-.712-2.026-1.059-7.527-1.059-7.159 0-8.026.187-6.937 1.5m2.387 7.188c-1.162.228-2.588 1.458-3.168 2.732-1.032 2.264-.957 2.305 3.363 1.818 3.997-.451 4.418-.295 4.418 1.632 0 3.32 2.759 2.504 3.539-1.047 1.035-4.713-1.661-6.411-8.152-5.135m-27.204 3.523c-6.402 3.597-6.323 3.783 1.173 2.744 3.22-.446 6.483-.57 7.25-.276 1.834.704 1.768-.7-.163-3.456-1.883-2.69-1.672-2.715-8.26.988M51.2 21.2c-.66.66-1.2 2.18-1.2 3.378 0 1.197-.675 2.737-1.5 3.422-2.173 1.803-1.955 6 .311 6 5.902 0 9.992-13.822 4.139-13.985-.302-.008-1.09.525-1.75 1.185m37.907 3.599c-1.655 3.093-1.414 5.533.475 4.808.87-.334 1.77-.607 2-.607.754 0 .407-3.469-.49-4.885-.703-1.111-1.096-.976-1.985.684m24.926.168c-1.725 1.725-1.925 2.459-.977 3.6 1.831 2.207 3.838 1.704 4.552-1.14.952-3.795-.939-5.096-3.575-2.46m5.431 17.474c-1.67.583-4.365 2.296-5.99 3.809-3.366 3.134-3.717 3.213-6.618 1.5-1.745-1.03-2.208-.996-2.634.193-.285.794-1.465 2.391-2.624 3.55-5.187 5.187.65 7.496 6.44 2.548 4.455-3.808 7.962-4.035 7.962-.516 0 1.745-.741 2.806-2.402 3.438-1.463.556-2.851 2.274-3.551 4.395-1.44 4.361-3.673 6.416-5.255 4.834-.83-.83-1.424-.709-2.282.464-3.387 4.632-24.564 1.144-23.716-3.906.234-1.395-.431-1.75-3.285-1.75-1.969 0-4.689-.727-6.044-1.615-3.084-2.02-3.225-.459-.215 2.365 1.237 1.161 2.788 2.705 3.446 3.431 8.49 9.362 12.081 11.212 20.412 10.513 6.701-.562 16.124-5.025 18.407-8.718 1.261-2.04 5.509-1.042 6.485 1.524 1.087 2.859 4.365 3.296 7.414.988 2.403-1.819.514-11.725-2.66-13.948-1.411-.988-1.557-1.461-.574-1.854.872-.349.727-.555-.43-.607-2.107-.095-2.091.433-.182-5.996 1.818-6.121 1.862-6.024-2.104-4.642M4.5 46c-.34.55-.141 1 .441 1S6 46.55 6 46s-.198-1-.441-1-.719.45-1.059 1m84.75-.227c-1.237.201-2.25.722-2.25 1.157 0 .435-2.311 1.065-5.136 1.4-6.563.777-6.927 1.234-3.325 4.178 3.668 2.998 6.259 3.086 11.43.391 5.653-2.946 5.135-8.079-.719-7.126M0 51.833c0 3.758.569 4.156 4.058 2.839C7.399 53.411 8.017 51 5 51c-1.1 0-2-.45-2-1s-.675-1-1.5-1c-.98 0-1.5.981-1.5 2.833m95.07 1.858c-.038 1.205.38 2.469.93 2.809 1.183.731 1.183-.248 0-3-.829-1.928-.862-1.921-.93.191M2.598 63.736C1.394 64.939 2.051 66 4 66c1.1 0 2-.402 2-.893 0-1.124-2.601-2.173-3.402-1.371m12.215 3.947c.721.289 1.584.253 1.916-.079.332-.332-.258-.568-1.312-.525-1.165.048-1.402.285-.604.604m-7.86 1.573c-.85.684-2.136 2.692-2.857 4.461-.721 1.769-1.938 3.737-2.704 4.372-.92.764-1.381 3.234-1.36 7.283.029 5.687.141 5.984 1.543 4.128.832-1.1 1.792-3.125 2.134-4.5.342-1.375 1.785-3.962 3.207-5.75 1.421-1.787 2.445-3.587 2.275-4-.17-.412.73-.995 2-1.295 3.401-.803 3.248-5.363-.191-5.699-1.375-.133-3.196.317-4.047 1M131.5 82.208c-2.717 1.558-4.259 3.558-6.417 8.325-3.497 7.724-14.274 15.903-26.182 19.872-10.926 3.641-25.682 10.549-22.595 10.578.993.009 5.493-1.524 10-3.407 13.963-5.835 30.263-8.885 32.336-6.051 1.909 2.611 2.673 1.273 3.166-5.546.519-7.178 2.416-7.959 4.809-1.979.88 2.2 1.996 4 2.479 4 .483 0 1.952 1.688 3.264 3.75 1.311 2.063 4.017 5.47 6.012 7.571 1.996 2.102 3.628 4.427 3.628 5.167 0 .74.345 1.495.767 1.679 1.797.781 8.344 10.936 8.095 12.558-.383 2.5 1.768 6.023 4.137 6.775 1.101.349 2.015 1.392 2.033 2.317.017.926.739 2.583 1.603 3.683l1.572 2-.55-2c-1.702-6.186-1.67-9.146.135-12.64l1.88-3.639-3.302.155c-2.123.1-2.957-.189-2.336-.81 1.439-1.439 1.175-2.379-.773-2.754-1.538-.297-1.472-.601.578-2.651 3.216-3.216 2.158-5.61-2.104-4.76-1.779.354-3.386 1.087-3.57 1.628-.185.541-.747.729-1.25.418s-.915-.088-.915.494-.505 1.059-1.122 1.059c-.742 0-.67-.545.212-1.608 1.128-1.36 1.07-1.802-.378-2.86-.941-.689-1.712-1.82-1.712-2.515 0-1.008-.301-1.012-1.5-.017-.908.754-1.5.834-1.5.204 0-.572-.275-1.757-.611-2.634-.442-1.152-.178-1.426.953-.992 1.249.479 1.703-.433 2.244-4.511.372-2.812 1.068-5.353 1.546-5.648.477-.296.868-1.348.868-2.339 0-1.887-4.403-1.856-5.574.039-.299.485-1.042.881-1.652.881-.609 0-.81-.297-.447-.66.363-.363-.288-1.325-1.448-2.137-1.83-1.282-2.017-2.085-1.412-6.09.948-6.29.787-10.085-.567-13.354-1.276-3.08-1.559-3.18-4.4-1.551m-95.525 6.357c-.536 1.411-.975 3.126-.975 3.812 0 .686-1.35 2.245-3 3.465-1.65 1.22-3 3.119-3 4.219 0 3.459-3.885 3.556-11.741.294-.893-.371-1.077.306-.655 2.417.398 1.989-.131 4.34-1.642 7.303-1.226 2.403-2.321 5.507-2.432 6.897-.525 6.561-5.003 15.023-7.954 15.031-.637.002-1.076 2.246-1.076 5.5 0 3.881.387 5.497 1.317 5.497.8 0 1.1.688.763 1.75-.325 1.023.445 2.997 1.852 4.75l2.407 3 1.104-2.5c.608-1.375 2.196-4.3 3.531-6.5 1.334-2.2 3.221-5.575 4.193-7.5.972-1.925 2.515-4.625 3.428-6 .914-1.375 1.987-4.449 2.385-6.831.43-2.578 1.896-5.667 3.622-7.632 1.594-1.816 2.898-4.043 2.898-4.95 0-2.906 3.034-3.069 5.347-.287 2.262 2.719 3.13 3.011 8.403 2.818 4.293-.156 4.111-1.533-.5-3.786L40.5 107.5l.327-6.605c.541-10.897-2.479-18.571-4.852-12.33m83.104 27.018c.048 1.165.285 1.402.604.605.289-.722.253-1.585-.079-1.917-.332-.332-.568.258-.525 1.312m30.921-1.19c0 .949 2.993 1.427 3.527.563.325-.526-.336-.956-1.468-.956s-2.059.177-2.059.393m-31.91 5.871c-.532 1.398-1.451 2.841-2.043 3.207-.593.366-1.77 2.097-2.618 3.847-3.066 6.334-3.795 7.366-5.839 8.266-2.701 1.19-3.532 4.667-.913 3.819 6.576-2.13 7.323-2.677 7.323-5.365 0-1.495 1.398-5.517 3.108-8.937 1.709-3.421 2.846-6.48 2.528-6.799-.319-.319-1.015.564-1.546 1.962m44.001 8.126c-.735.886-2.004 1.61-2.82 1.61-.943 0-1.264.577-.878 1.582.334.87.607 1.788.607 2.04 0 .253 1.179-.634 2.62-1.971 1.441-1.336 2.437-2.979 2.214-3.65-.29-.868-.793-.756-1.743.389m4.215 4.671c.333 1.273-.015 2.274-.909 2.617-1.112.427-1.182.876-.3 1.939 2.237 2.696 3.903 1.579 3.903-2.617 0-3.017-.397-4-1.617-4-1.14 0-1.457.607-1.077 2.061M115 141c0 .55-.684 1-1.52 1s-3.198 1.042-5.25 2.316c-2.051 1.274-7.555 4.263-12.23 6.642-4.675 2.379-8.756 4.718-9.068 5.198-.312.48-3.237 1.364-6.5 1.963-9.113 1.674-16.186 3.88-17.493 5.455-1.852 2.231-8.468 1.698-14.051-1.131-5.953-3.017-8.949-2.709-3.888.4l3.5 2.15-24.25.003c-15.588.003-24.25.363-24.25 1.01 0 .668 28.43.92 84.75.75l84.75-.256-.315-2.925c-.312-2.893-4.185-9.002-4.185-6.601 0 .839-.844 1.031-2.596.591-3.344-.839-5.404.898-5.404 4.558v2.879l-45.75-.12c-25.163-.066-44.4-.482-42.75-.923 1.65-.442 6.825-1.555 11.5-2.474 4.675-.92 11.697-3.205 15.605-5.078 3.908-1.874 7.657-3.407 8.332-3.407.674 0 4.094-2.925 7.6-6.5 3.505-3.575 5.718-6.5 4.918-6.5-.8 0-1.455.45-1.455 1m45.5 23c-.34.55.335 1 1.5 1s1.84-.45 1.5-1c-.34-.55-1.015-1-1.5-1-.485 0-1.16.45-1.5 1" fill-rule="evenodd"/></svg>